<svg width="500" height="500" viewBox="0 0 500 500" fill="none" xmlns="http://www.w3.org/2000/svg">
<path d="M324.18 23.3599C324.18 23.3599 251.45 -2.51009 180.05 38.6699C108.65 79.8499 72.6199 161.59 41.6899 227.06C10.7599 292.53 28.5599 359.14 83.0599 389.51C137.56 419.88 174.62 375.11 251.06 372.93C327.5 370.75 348.06 381.68 411.53 338.49C475 295.3 486.45 193.29 436.4 117.81C386.35 42.3299 324.18 23.3599 324.18 23.3599Z" fill="#92E3A9"/>
<path opacity="0.7" d="M324.18 23.3599C324.18 23.3599 251.45 -2.51009 180.05 38.6699C108.65 79.8499 72.6199 161.59 41.6899 227.06C10.7599 292.53 28.5599 359.14 83.0599 389.51C137.56 419.88 174.62 375.11 251.06 372.93C327.5 370.75 348.06 381.68 411.53 338.49C475 295.3 486.45 193.29 436.4 117.81C386.35 42.3299 324.18 23.3599 324.18 23.3599Z" fill="white"/>
<path d="M349.46 50.04H164.54C160.304 50.04 156.87 53.474 156.87 57.71V420.64C156.87 424.876 160.304 428.31 164.54 428.31H349.46C353.696 428.31 357.13 424.876 357.13 420.64V57.71C357.13 53.474 353.696 50.04 349.46 50.04Z" fill="#263238" stroke="#263238" stroke-linecap="round" stroke-linejoin="round"/>
<path d="M348.24 91.5701H165.78V386.77H348.24V91.5701Z" fill="white" stroke="#263238" stroke-linecap="round" stroke-linejoin="round"/>
<path d="M276.84 70.91H237.17C236.454 70.91 235.767 70.6255 235.261 70.1192C234.755 69.6128 234.47 68.9261 234.47 68.21C234.469 67.8546 234.538 67.5024 234.673 67.1737C234.808 66.8449 235.007 66.5461 235.257 66.2943C235.508 66.0426 235.806 65.8428 236.135 65.7065C236.463 65.5702 236.815 65.5 237.17 65.5H276.84C277.196 65.5 277.548 65.5702 277.876 65.7065C278.204 65.8428 278.502 66.0426 278.753 66.2943C279.004 66.5461 279.202 66.8449 279.338 67.1737C279.473 67.5024 279.542 67.8546 279.54 68.21C279.54 68.9261 279.256 69.6128 278.749 70.1192C278.243 70.6255 277.556 70.91 276.84 70.91Z" fill="white"/>
<path d="M267.82 403.44C267.82 401.3 267.186 399.208 265.997 397.429C264.808 395.65 263.118 394.263 261.141 393.444C259.164 392.625 256.988 392.411 254.889 392.828C252.79 393.246 250.862 394.276 249.349 395.789C247.836 397.302 246.806 399.23 246.388 401.329C245.971 403.428 246.185 405.604 247.004 407.581C247.823 409.558 249.21 411.248 250.989 412.437C252.768 413.626 254.86 414.26 257 414.26C258.421 414.261 259.829 413.982 261.142 413.439C262.456 412.896 263.649 412.099 264.654 411.094C265.659 410.089 266.456 408.896 266.999 407.582C267.543 406.269 267.822 404.861 267.82 403.44Z" fill="white" stroke="#263238" stroke-width="0.704333" stroke-linecap="round" stroke-linejoin="round"/>
<path d="M262.49 397.95H251.52V408.92H262.49V397.95Z" fill="#263238"/>
<path d="M361.78 274.83L360.6 283.83C360.6 283.83 355.72 317.26 359.1 334.54C362.48 351.82 368.86 369.47 369.24 373.6C369.62 377.73 367.36 393.88 369.99 407.03C372.62 420.18 377.5 446.09 377.5 446.09L373.37 455.86C373.37 455.86 364.73 461.49 363.61 463.37C363.445 463.58 363.333 463.826 363.282 464.087C363.23 464.349 363.242 464.619 363.315 464.876C363.388 465.132 363.521 465.368 363.703 465.563C363.884 465.759 364.109 465.908 364.36 466H391.36C392.187 463.975 392.573 461.796 392.49 459.61V433.32C392.49 430.69 393.99 386 395.49 378.11C396.99 370.22 398.49 310.5 398.49 310.5H400C400 310.5 407.14 369.84 409 376.23C410.86 382.62 418.77 410.03 421 415.67C423.23 421.31 425.89 440.83 427.39 445.72C428.826 450.143 429.956 454.661 430.77 459.24C431.155 461.554 431.785 463.82 432.65 466H453C453 466 453.38 462.62 451.87 460.37C450.36 458.12 440.61 448.37 439.1 441.21C437.59 434.05 441.36 401 441 389.38C440.64 377.76 437.24 376.23 437.24 366.09C437.24 355.95 441 325.15 441 310.5C441 295.85 439 282.35 435.33 274.64L430.11 269.56H365.48L361.78 274.83Z" fill="#D9D9D9" stroke="#263238" stroke-linecap="round" stroke-linejoin="round"/>
<path d="M442.15 447.92V447.97C442.15 447.97 436.89 444.59 435.01 447.22C433.13 449.85 433.13 451.35 433.13 451.35H429.13C429.871 453.943 430.455 456.577 430.88 459.24C431.265 461.554 431.895 463.82 432.76 466H453C453 466 453.38 462.62 451.87 460.37C450.81 458.77 445.64 453.43 442.15 447.92Z" fill="#92E3A9" stroke="#263238" stroke-linecap="round" stroke-linejoin="round"/>
<path d="M432.72 466H453C453.074 465.13 453.051 464.255 452.93 463.39H431.81C432.27 464.89 432.72 466 432.72 466Z" fill="white" stroke="#263238" stroke-linecap="round" stroke-linejoin="round"/>
<path d="M392.53 459.61V453.23H385.39C385.39 453.23 385.77 450.23 382.39 447.97C379.01 445.71 375.62 450.97 375.62 450.97H375.44L373.37 455.85C373.37 455.85 364.73 461.48 363.61 463.36C363.445 463.57 363.333 463.816 363.282 464.078C363.23 464.339 363.242 464.609 363.315 464.866C363.388 465.123 363.521 465.358 363.702 465.553C363.884 465.749 364.109 465.898 364.36 465.99H391.36C392.2 463.971 392.599 461.796 392.53 459.61V459.61Z" fill="#92E3A9" stroke="#263238" stroke-linecap="round" stroke-linejoin="round"/>
<path d="M363.59 463.39C363.43 463.601 363.322 463.846 363.274 464.107C363.226 464.367 363.24 464.635 363.315 464.889C363.39 465.143 363.524 465.376 363.705 465.569C363.887 465.762 364.111 465.91 364.36 466H391.36C391.726 465.165 391.988 464.289 392.14 463.39H363.59Z" fill="white" stroke="#263238" stroke-linecap="round" stroke-linejoin="round"/>
<path d="M439 427.36C439.63 414.57 441.23 397.18 441 389.36C440.63 377.71 437.24 376.21 437.24 366.07C437.24 355.93 441 325.15 441 310.5C441 295.85 439 282.35 435.33 274.64L430.11 269.56H365.48L361.78 274.83L360.6 283.83C360.6 283.83 355.72 317.26 359.1 334.54C362.48 351.82 368.86 369.47 369.24 373.6C369.62 377.73 367.36 393.88 369.99 407.03C371.15 412.8 372.73 421.03 374.15 428.45C380.202 429.822 386.41 430.384 392.61 430.12C392.93 419.25 394.23 384.93 395.53 378.12C397.03 370.23 398.53 310.51 398.53 310.51H400C400 310.51 407.14 369.85 409 376.24C410.86 382.63 418.77 410.04 421 415.68C422 418.08 423 423 424 428.24C429 429.123 434.138 428.822 439 427.36Z" fill="white" stroke="#263238" stroke-linecap="round" stroke-linejoin="round"/>
<path d="M404.55 307.12L424.83 290.97" stroke="#263238" stroke-linecap="round" stroke-linejoin="round"/>
<path d="M374.87 292.47L385.39 301.11" stroke="#263238" stroke-linecap="round" stroke-linejoin="round"/>
<path d="M419 110.46C419 110.46 410.37 105.36 410.57 108.11C410.77 110.86 414.49 112.81 414.49 112.81C414.49 112.81 402.13 111.05 400.17 111.81C398.21 112.57 401.55 113.58 401.55 113.58C401.55 113.58 386.25 125.34 380.96 133.38C375.67 141.42 370.96 153.19 376.45 162.21C381.94 171.23 389.98 178.29 403.51 182.21C417.04 186.13 430.37 182.01 439.39 178.29C448.41 174.57 457.39 163.97 455.86 150.64C454.33 137.31 442.49 123.4 433.66 114C424.83 104.6 419.35 106 419.35 107.33C419.326 108.382 419.209 109.429 419 110.46V110.46Z" fill="#263238" stroke="#263238" stroke-linecap="round" stroke-linejoin="round"/>
<path d="M397.84 166.16L395.84 181.25C395.84 181.25 381.52 185.95 376.23 188.11C370.94 190.27 368.58 193.01 367.6 195.36C366.62 197.71 352.6 230.36 352 233.46C351.4 236.56 352.39 237.97 356.7 239.93C361.01 241.89 373 234.64 373 234.64L374.57 240.13C374.57 240.13 366.72 253.46 365.35 257.77C363.98 262.08 361.82 274.83 361.82 274.83C361.82 274.83 376.72 282.28 400.25 281.7C423.78 281.12 435.35 274.64 435.35 274.64C435.35 274.64 432.8 261.89 430.06 254.44C427.32 246.99 424.96 244.05 424.96 241.11C424.96 238.17 433.59 222.87 433.59 222.87L451.81 231.46C451.81 231.46 447.51 216.6 446.33 206.6C445.15 196.6 443.12 194.97 439.19 191.44C435.26 187.91 418.02 182.82 417.43 182.44C416.84 182.06 418.21 165.58 418.21 165.58C418.21 165.58 403.33 169.5 397.84 166.16Z" fill="#D9D9D9" stroke="#263238" stroke-linecap="round" stroke-linejoin="round"/>
<path d="M409.22 176.49C411.96 175.49 415.22 172.9 417.78 170.58C417.99 167.77 418.17 165.58 418.17 165.58C418.17 165.58 403.33 169.52 397.84 166.18L396.49 176.18C399.53 178.9 404.49 178.27 409.22 176.49Z" fill="#263238" stroke="#263238" stroke-linecap="round" stroke-linejoin="round"/>
<path d="M430 254.44C427.25 246.99 424.9 244.05 424.9 241.11C424.9 238.17 433.53 222.87 433.53 222.87L451.75 231.46C451.75 231.46 447.45 216.6 446.27 206.6C445.64 201.19 444.74 198.24 443.44 196.1C415.5 199.65 384.44 193.28 372.05 190.27C370.083 191.485 368.52 193.257 367.56 195.36C366.56 197.72 352.56 230.36 351.96 233.46C351.36 236.56 352.35 237.97 356.66 239.93C360.97 241.89 373 234.64 373 234.64L374.57 240.13C374.57 240.13 366.72 253.46 365.35 257.77C363.98 262.08 361.82 274.83 361.82 274.83C361.82 274.83 376.72 282.28 400.25 281.7C423.78 281.12 435.35 274.64 435.35 274.64C435.35 274.64 432.76 261.89 430 254.44Z" fill="#92E3A9" stroke="#263238" stroke-linecap="round" stroke-linejoin="round"/>
<path d="M375.48 229.24C375.48 229.24 371.58 221.07 372.64 216.81C373.7 212.55 374.42 211.48 374.42 211.48" stroke="#263238" stroke-linecap="round" stroke-linejoin="round"/>
<path d="M446.29 206.6C445.66 201.19 444.76 198.24 443.46 196.1C415.52 199.65 384.46 193.28 372.07 190.27C370.103 191.485 368.54 193.257 367.58 195.36C367.24 196.19 365.27 200.78 362.85 206.5C373.85 209.5 415.98 219.93 447.72 215.04C447.12 212.13 446.6 209.2 446.29 206.6Z" fill="#92E3A9" stroke="#263238" stroke-linecap="round" stroke-linejoin="round"/>
<path d="M401.67 129.7L426.67 145.81L425.98 152.32C425.98 152.32 430.44 147.87 431.13 152.67C431.82 157.47 430.13 159.87 427.01 161.24C423.89 162.61 422.21 162.24 422.21 162.24C422.21 162.24 414.67 170.46 409.21 172.52C403.75 174.58 397.91 175.12 395.21 170.66C392.51 166.2 388.67 158.12 389.7 153.32C390.73 148.52 400 129.7 400 129.7H401.67Z" fill="#D9D9D9" stroke="#263238" stroke-linecap="round" stroke-linejoin="round"/>
<path d="M404.13 144.93C404.125 146.142 403.709 147.316 402.95 148.26C401.78 149.44 399.03 151.01 399.03 152.18C399.03 153.35 401.58 155.71 403.93 155.52" stroke="#263238" stroke-linecap="round" stroke-linejoin="round"/>
<path d="M399.81 158.07C400.974 158.864 402.359 159.272 403.767 159.236C405.176 159.2 406.538 158.722 407.66 157.87" stroke="#263238" stroke-linecap="round" stroke-linejoin="round"/>
<path d="M409.23 147.87C409.23 147.87 413.54 146.3 415.89 149.63" stroke="#263238" stroke-linecap="round" stroke-linejoin="round"/>
<path d="M395.89 145.91C395.89 145.91 399.42 144.34 401.19 146.3" stroke="#263238" stroke-linecap="round" stroke-linejoin="round"/>
<path d="M398.05 139.24C398.695 138.449 399.567 137.875 400.549 137.594C401.53 137.313 402.574 137.34 403.54 137.67" stroke="#263238" stroke-linecap="round" stroke-linejoin="round"/>
<path d="M411.19 139.63C411.19 139.63 416.68 139.83 417.85 144.93" stroke="#263238" stroke-linecap="round" stroke-linejoin="round"/>
<path d="M361 227C361 227 354.92 229.35 353 233.08C351.08 236.81 351.43 245.43 359.07 247.59C366.71 249.75 423.19 238.37 423.19 238.37C424.574 240.483 426.079 242.513 427.7 244.45C429.08 245.82 432.61 248.57 432.8 249.74C432.99 250.91 433.39 258.37 434.96 258.74C436.53 259.11 435.96 255.21 435.96 255.21C435.96 255.21 438.51 251.49 438.51 249.72C438.51 247.95 438.9 242.27 438.51 240.9C438.12 239.53 428.9 231.49 426.94 230.9C424.98 230.31 374.78 228.9 370.08 228.15C365.38 227.4 362.56 226.79 361 227Z" fill="#D9D9D9" stroke="#263238" stroke-linecap="round" stroke-linejoin="round"/>
<path d="M410.965 173.036L416.969 177.027C418.032 177.734 419.466 177.445 420.172 176.382L432.278 158.168C432.984 157.106 432.695 155.672 431.632 154.966L425.628 150.975C424.565 150.269 423.131 150.558 422.425 151.62L410.319 169.834C409.613 170.896 409.902 172.33 410.965 173.036Z" fill="#92E3A9" stroke="#263238" stroke-miterlimit="10"/>
<path d="M429 173.35C429 173.35 430.24 170.17 431.47 167.88C432.7 165.59 432.71 164.52 431.83 164.52C430.89 164.69 430.02 165.132 429.328 165.791C428.637 166.451 428.154 167.299 427.94 168.23C427.513 170.142 427.395 172.11 427.59 174.06L429 173.35Z" fill="#D9D9D9" stroke="#263238" stroke-miterlimit="10"/>
<path d="M418.39 185.54C418.39 185.54 428.46 175.47 428.81 174.59C429.16 173.71 428.81 162.24 428.66 159C428.663 158.759 428.578 158.525 428.422 158.341C428.266 158.157 428.048 158.036 427.81 158C427.668 157.969 427.521 157.97 427.379 158.002C427.238 158.034 427.104 158.096 426.989 158.185C426.874 158.273 426.78 158.386 426.712 158.514C426.645 158.643 426.607 158.785 426.6 158.93L425.81 168.22L423.5 156.52C423.462 156.283 423.339 156.068 423.156 155.914C422.972 155.76 422.74 155.677 422.5 155.68C422.361 155.679 422.223 155.708 422.095 155.764C421.968 155.82 421.853 155.901 421.759 156.004C421.665 156.107 421.593 156.228 421.549 156.36C421.504 156.492 421.487 156.631 421.5 156.77L422.15 169.77L419.25 158.64C419.214 158.502 419.151 158.372 419.064 158.258C418.978 158.144 418.869 158.049 418.746 157.977C418.622 157.906 418.485 157.859 418.344 157.841C418.202 157.822 418.058 157.832 417.92 157.87C417.672 157.938 417.456 158.092 417.311 158.304C417.166 158.517 417.102 158.774 417.13 159.03L418.44 171.03L415.97 173.15V168.91L412.97 163.91C412.861 163.73 412.689 163.597 412.487 163.538C412.285 163.479 412.069 163.497 411.88 163.59V163.59C411.686 163.685 411.536 163.852 411.463 164.056C411.391 164.259 411.4 164.483 411.49 164.68L413.49 169.07C413.49 169.07 409.6 184.97 409.42 185.5C409.24 186.03 410.13 188.86 410.66 189.92C411.19 190.98 434.86 241.14 436.27 243.08C437.68 245.02 447.22 248.03 451.46 243.43C455.7 238.83 454.29 234.25 451.99 228.95C449.69 223.65 418.39 185.54 418.39 185.54Z" fill="#D9D9D9" stroke="#263238" stroke-miterlimit="10"/>
<path d="M254 191C277.196 191 296 172.196 296 149C296 125.804 277.196 107 254 107C230.804 107 212 125.804 212 149C212 172.196 230.804 191 254 191Z" fill="#92E3A9"/>
<path d="M279.64 129.99H229.86L254.4 153.65L279.64 129.99Z" fill="#263238"/>
<path d="M264.37 148.41L281.7 163.73V132.17L264.37 148.41Z" fill="#263238"/>
<path d="M244.62 148.38L227.06 131.46V163.01L244.62 148.38Z" fill="#263238"/>
<path d="M262.17 150.47L254.37 157.78L246.79 150.48L228.52 165.7H279.4L262.17 150.47Z" fill="#263238"/>
<path d="M254 283C277.196 283 296 264.196 296 241C296 217.804 277.196 199 254 199C230.804 199 212 217.804 212 241C212 264.196 230.804 283 254 283Z" fill="#92E3A9"/>
<path d="M248.39 227.75C248.509 227.982 248.675 228.186 248.878 228.349C249.08 228.513 249.315 228.632 249.567 228.699C249.819 228.766 250.082 228.779 250.339 228.738C250.596 228.697 250.842 228.602 251.06 228.46C252.43 227.71 253.8 226.96 255.06 226.09C255.511 225.661 255.883 225.157 256.16 224.6C255.91 224.01 255.78 223.6 255.58 223.24C255.04 222.24 254.46 221.24 253.89 220.24L248.1 210.24C247.985 209.949 247.804 209.688 247.57 209.48C247.336 209.271 247.057 209.121 246.754 209.04C246.452 208.959 246.135 208.95 245.828 209.015C245.522 209.079 245.234 209.214 244.99 209.41C243.75 210.11 242.52 210.81 241.31 211.55C241.076 211.662 240.868 211.823 240.701 212.021C240.533 212.219 240.41 212.451 240.339 212.701C240.268 212.95 240.251 213.212 240.289 213.469C240.327 213.726 240.42 213.972 240.56 214.19C243.16 218.73 245.77 223.25 248.39 227.75Z" fill="#263238"/>
<path d="M277.22 260.66C274.687 256.26 272.147 251.867 269.6 247.48C269.492 247.214 269.324 246.976 269.109 246.784C268.895 246.592 268.64 246.452 268.363 246.374C268.086 246.296 267.795 246.282 267.512 246.333C267.229 246.384 266.962 246.5 266.73 246.67C265.457 247.383 264.197 248.113 262.95 248.86C262.715 248.971 262.505 249.129 262.333 249.325C262.162 249.52 262.034 249.75 261.956 249.998C261.878 250.246 261.852 250.508 261.88 250.766C261.909 251.025 261.99 251.275 262.12 251.5L270.4 265.63C270.699 265.889 271.073 266.045 271.467 266.075C271.861 266.106 272.255 266.009 272.59 265.8C273.93 265.07 275.28 264.34 276.59 263.49C277.054 263.069 277.452 262.58 277.77 262.04C277.622 261.567 277.439 261.105 277.22 260.66V260.66Z" fill="#263238"/>
<path d="M260.08 252.41C259.264 252.702 258.395 252.814 257.532 252.738C256.669 252.662 255.832 252.4 255.08 251.97C254.229 251.535 253.431 251.005 252.7 250.39C249.002 247.134 246.418 242.801 245.31 238C244.58 235 244.38 232 246.68 229.6L238.16 215C237.49 215.43 236.84 215.84 236.23 216.27C234.997 217.036 233.997 218.125 233.339 219.419C232.682 220.713 232.391 222.162 232.5 223.61C232.653 226.581 233.085 229.53 233.79 232.42C236.613 242.43 241.639 251.683 248.5 259.5C251.047 262.611 254.088 265.283 257.5 267.41C259.181 268.458 261.141 268.971 263.119 268.88C265.098 268.789 267.003 268.098 268.58 266.9L260.08 252.41Z" fill="#263238"/>
<path d="M254 375C277.196 375 296 356.196 296 333C296 309.804 277.196 291 254 291C230.804 291 212 309.804 212 333C212 356.196 230.804 375 254 375Z" fill="#92E3A9"/>
<path d="M247.81 340.87H238.48V345.6C238.479 347.073 239.037 348.492 240.041 349.571C241.045 350.649 242.42 351.306 243.89 351.41L247.81 340.87Z" fill="#263238"/>
<path d="M273.82 324.67H269.82V332.9C269.82 335.022 268.977 337.057 267.477 338.557C265.976 340.057 263.942 340.9 261.82 340.9H261.68L247.4 351.43H262.9L259.07 361.73L273 351.43H273.84C275.387 351.43 276.871 350.816 277.966 349.723C279.061 348.63 279.677 347.147 279.68 345.6V330.5C279.679 329.732 279.526 328.972 279.231 328.264C278.935 327.555 278.503 326.911 277.959 326.37C277.415 325.828 276.769 325.399 276.059 325.108C275.348 324.816 274.588 324.667 273.82 324.67V324.67Z" fill="#263238"/>
<path d="M261.81 312H232.3C230.754 312 229.271 312.614 228.178 313.708C227.084 314.801 226.47 316.284 226.47 317.83V332.93C226.47 334.477 227.084 335.961 228.177 337.056C229.27 338.151 230.753 338.767 232.3 338.77H250.89L247.06 349L261 338.74H261.84C263.388 338.737 264.872 338.121 265.967 337.027C267.061 335.932 267.677 334.448 267.68 332.9V317.8C267.669 316.253 267.045 314.773 265.945 313.686C264.844 312.598 263.357 311.992 261.81 312Z" fill="#263238"/>
<path d="M238.97 327.06C240.124 327.06 241.06 326.124 241.06 324.97C241.06 323.816 240.124 322.88 238.97 322.88C237.816 322.88 236.88 323.816 236.88 324.97C236.88 326.124 237.816 327.06 238.97 327.06Z" fill="#92E3A9"/>
<path d="M249.57 325C249.57 325.413 249.447 325.817 249.218 326.161C248.988 326.505 248.662 326.773 248.28 326.931C247.898 327.089 247.478 327.13 247.072 327.05C246.667 326.969 246.294 326.77 246.002 326.478C245.71 326.185 245.511 325.813 245.43 325.408C245.349 325.002 245.391 324.582 245.549 324.2C245.707 323.818 245.975 323.492 246.319 323.262C246.662 323.032 247.067 322.91 247.48 322.91C248.033 322.913 248.563 323.134 248.955 323.525C249.346 323.916 249.567 324.446 249.57 325V325Z" fill="#92E3A9"/>
<path d="M258.07 325C258.07 325.414 257.947 325.818 257.717 326.162C257.487 326.506 257.16 326.774 256.777 326.932C256.395 327.09 255.974 327.13 255.568 327.049C255.163 326.968 254.79 326.767 254.499 326.474C254.207 326.181 254.008 325.808 253.929 325.402C253.849 324.995 253.892 324.575 254.052 324.193C254.212 323.811 254.481 323.486 254.826 323.257C255.171 323.029 255.576 322.908 255.99 322.91C256.542 322.913 257.072 323.134 257.461 323.526C257.851 323.917 258.07 324.447 258.07 325V325Z" fill="#92E3A9"/>
<path d="M153.17 210.61L153.93 209.61L166.32 192.73C166.32 192.73 168 182.66 168.84 180.14C169.68 177.62 171.36 172.31 171.92 170.35C172.48 168.39 173.04 166.15 174.16 166.99C175.28 167.83 175.28 171.19 174.72 172.87C174.227 174.404 174.13 176.039 174.44 177.62C174.72 178.46 189.55 165.87 190.94 166.99C192.33 168.11 190.39 173.43 187.59 177.06C184.79 180.69 173.32 193.85 173.32 193.85C173.32 193.85 160.17 229.1 156.25 234.7C152.33 240.3 151.5 237.78 147.58 234.7C143.66 231.62 138.58 224.63 138.58 224.63L153.17 210.61Z" fill="white" stroke="#263238" stroke-linecap="round" stroke-linejoin="round"/>
<path d="M173.6 187.11C173.6 187.11 175 182.11 176.4 180.95C177.8 179.79 183.11 176.48 183.11 176.48L186.75 165.28C186.75 165.28 187.87 164.44 187.59 166.96C187.31 169.48 186.75 175.08 185.91 177.59C185.07 180.1 181.43 184.59 181.43 184.59" fill="white"/>
<path d="M173.6 187.11C173.6 187.11 175 182.11 176.4 180.95C177.8 179.79 183.11 176.48 183.11 176.48L186.75 165.28C186.75 165.28 187.87 164.44 187.59 166.96C187.31 169.48 186.75 175.08 185.91 177.59C185.07 180.1 181.43 184.59 181.43 184.59" stroke="#263238" stroke-linecap="round" stroke-linejoin="round"/>
<path d="M133.03 167.8L154.57 210.05L138.07 226.84L133.31 210.89L133.03 167.8Z" fill="#92E3A9" stroke="#263238" stroke-linecap="round" stroke-linejoin="round"/>
<path d="M136.09 220.22L138.07 226.84L154.57 210.05L151.6 204.23L136.09 220.22Z" fill="#263238" stroke="#263238" stroke-miterlimit="10"/>
<path d="M81.38 446L79.38 453.93C79.38 453.93 67.6501 460.43 66.7501 461.33C65.8501 462.23 66.2 466.02 66.2 466.02H99.78C99.9507 463.114 99.7082 460.198 99.06 457.36C98.5523 453.843 98.2418 450.301 98.13 446.75L81.38 446Z" fill="#263238" stroke="#263238" stroke-linecap="round" stroke-linejoin="round"/>
<path d="M66.2102 466H99.7802C99.8192 465.277 99.8192 464.553 99.7802 463.83H66.1502C66.1202 465 66.2102 466 66.2102 466Z" fill="white" stroke="#263238" stroke-linecap="round" stroke-linejoin="round"/>
<path d="M67.4801 461C69.7802 459.036 72.601 457.782 75.6001 457.39C81.0101 456.48 85.8901 458.47 86.9701 459.55C88.0501 460.63 88.7701 463.7 88.7701 463.7L66.1501 463.88C65.9817 463.613 65.8828 463.309 65.8622 462.994C65.8416 462.68 65.9001 462.365 66.0323 462.078C66.1645 461.792 66.3662 461.544 66.6191 461.355C66.872 461.167 67.168 461.045 67.4801 461V461Z" fill="white" stroke="#263238" stroke-linecap="round" stroke-linejoin="round"/>
<path d="M96.35 452.37C96.35 454.32 95.67 455.89 94.82 455.89C93.97 455.89 93.28 454.32 93.28 452.37C93.28 450.42 93.97 448.85 94.82 448.85C95.67 448.85 96.35 450.43 96.35 452.37Z" fill="white" stroke="#263238" stroke-linecap="round" stroke-linejoin="round"/>
<path d="M165.18 446L167.18 453.93C167.18 453.93 178.91 460.43 179.81 461.33C180.71 462.23 180.35 466.02 180.35 466.02H146.78C146.603 463.114 146.846 460.197 147.5 457.36C148.001 453.843 148.308 450.301 148.42 446.75L165.18 446Z" fill="#263238" stroke="#263238" stroke-linecap="round" stroke-linejoin="round"/>
<path d="M180.34 466H146.78C146.723 465.278 146.703 464.554 146.72 463.83H180.41C180.426 464.554 180.402 465.279 180.34 466V466Z" fill="white" stroke="#263238" stroke-linecap="round" stroke-linejoin="round"/>
<path d="M179.08 461C176.778 459.039 173.958 457.785 170.96 457.39C165.55 456.48 160.67 458.47 159.59 459.55C158.51 460.63 157.78 463.7 157.78 463.7L180.41 463.88C180.578 463.613 180.677 463.309 180.698 462.994C180.719 462.68 180.66 462.365 180.528 462.078C180.396 461.792 180.194 461.544 179.941 461.355C179.688 461.167 179.392 461.045 179.08 461V461Z" fill="white" stroke="#263238" stroke-linecap="round" stroke-linejoin="round"/>
<path d="M150.2 452.37C150.2 454.32 150.89 455.89 151.74 455.89C152.59 455.89 153.27 454.32 153.27 452.37C153.27 450.42 152.59 448.85 151.74 448.85C150.89 448.85 150.2 450.43 150.2 452.37Z" fill="white" stroke="#263238" stroke-linecap="round" stroke-linejoin="round"/>
<path d="M81.0001 277.66L79.8901 295.16L81.3801 445.98L98.1301 446.73L114.89 307.45L117.13 306.7L148.42 446.73L165.18 445.98L157.72 352.14L146.46 271.6L81.0001 277.66Z" fill="white" stroke="#263238" stroke-linecap="round" stroke-linejoin="round"/>
<path d="M116.36 282.41V295.18L119.84 289.38L120.43 280.67" stroke="#808080" stroke-linecap="round" stroke-linejoin="round"/>
<path d="M92.4602 165.84C92.4602 165.84 54.6902 182.35 54.1302 184C53.5702 185.65 43.5002 227.37 45.1302 231.28C46.1315 233.473 47.9243 235.207 50.1495 236.134C52.3747 237.061 54.868 237.113 57.1302 236.28C62.4402 234.28 67.4802 213.9 67.4802 213.9C67.4802 213.9 79.2302 249.71 79.2302 253.35C79.2302 256.99 80.3502 279.35 80.3502 279.35C80.3502 279.35 101.89 282.42 119.8 278.23C137.71 274.04 146.38 271.51 146.38 271.51L137.99 220.31C137.99 220.31 133.51 169.67 132.99 167.71C132.47 165.75 100.53 165.19 97.9902 165.47C95.4502 165.75 92.4602 165.84 92.4602 165.84Z" fill="#92E3A9" stroke="#263238" stroke-linecap="round" stroke-linejoin="round"/>
<path d="M63.8101 226C62.5266 221.872 60.2341 218.129 57.14 215.11C54.0201 212.34 49.87 213.91 47.03 215.63C45.53 223.4 44.5601 229.93 45.1801 231.36C46.1814 233.553 47.9742 235.287 50.1994 236.214C52.4246 237.141 54.9179 237.193 57.1801 236.36C59.6101 235.46 62.0001 230.8 63.8101 226Z" fill="#263238" stroke="#263238" stroke-miterlimit="10"/>
<path d="M74.8701 237L138.58 223.61L138.07 220.45C138.07 220.45 137.97 219.45 137.82 217.64L73.0801 231.24C73.6801 233.1 74.2801 235 74.8701 237Z" fill="#263238"/>
<path d="M146.46 271.6L140.17 233.26L77.6201 246.26C78.378 248.61 78.9432 251.018 79.3101 253.46C79.3101 257.09 80.4301 279.46 80.4301 279.46C80.4301 279.46 101.97 282.53 119.88 278.34C137.79 274.15 146.46 271.6 146.46 271.6Z" fill="#263238" stroke="#263238" stroke-miterlimit="10"/>
<path d="M98.06 165.56C95.54 165.84 92.46 165.84 92.46 165.84C92.46 165.84 85.38 168.94 77.3 172.59L110 206.35C110 206.35 117 172.68 116.38 169.78C116.086 168.422 115.698 167.085 115.22 165.78C107.19 165.49 99.26 165.43 98.06 165.56Z" fill="#263238" stroke="#263238" stroke-miterlimit="10"/>
<path d="M108.69 156.05C108.69 156.05 110.37 170.6 111.21 173.4C112.05 176.2 106.45 195.78 106.45 195.78C106.45 195.78 90.2201 179.27 88.2601 174.52C86.3001 169.77 81.8301 153.25 81.8301 153.25C81.8301 153.25 96.1001 160.53 108.69 156.05Z" fill="white" stroke="#263238" stroke-linecap="round" stroke-linejoin="round"/>
<path d="M81.8301 153.25C81.8301 153.25 82.8301 157.02 84.1301 161.47C84.8101 161.85 85.6301 162.28 86.6301 162.78C91.8422 165.54 97.7784 166.626 103.63 165.89C104.852 165.69 106.01 165.205 107.01 164.476C108.01 163.746 108.826 162.792 109.39 161.69C108.99 158.56 108.7 156.05 108.7 156.05C96.1001 160.53 81.8301 153.25 81.8301 153.25Z" fill="#263238" stroke="#263238" stroke-linecap="round" stroke-linejoin="round"/>
<path d="M101.5 119.33C101.5 119.33 105.74 127.82 108.58 131.5C111.42 135.18 115.94 143.4 113.96 148.21C111.98 153.02 110.68 161.21 104.33 162.09C98.4777 162.818 92.5429 161.728 87.3302 158.97C82.2302 156.42 81.6702 155.57 81.6702 155.57C81.6702 155.57 77.4202 155.57 74.8702 153.57C72.3202 151.57 67.2302 145.36 68.6402 139.98C70.0502 134.6 73.4602 134.03 73.4602 134.03C73.4602 134.03 66.3802 131.2 70.9102 124.12C75.4402 117.04 85.0602 114.5 89.6002 114.5C94.1402 114.5 101.5 119.33 101.5 119.33Z" fill="white" stroke="#263238" stroke-linecap="round" stroke-linejoin="round"/>
<path d="M100.08 128.67C100.731 129.699 101.602 130.57 102.63 131.22C104.63 132.64 107.44 131.79 106.63 134.34C105.82 136.89 103.8 137.73 102.1 137.45" stroke="#263238" stroke-linecap="round" stroke-linejoin="round"/>
<path d="M106.88 140.57C106.88 140.57 101.5 143.68 97.8202 143.4C95.9016 143.357 94.0351 142.767 92.4402 141.7" stroke="#263238" stroke-linecap="round" stroke-linejoin="round"/>
<path d="M95 143.4C95 143.4 97 150.48 99.81 148.21C101.59 146.652 102.788 144.537 103.21 142.21C100.598 143.221 97.7914 143.627 95 143.4V143.4Z" fill="#263238" stroke="#263238" stroke-linecap="round" stroke-linejoin="round"/>
<path d="M94.7102 131.13C95.3302 132.13 95.3502 133.22 94.7102 133.6C94.0702 133.98 93.1102 133.5 92.4802 132.52C91.8502 131.54 91.8402 130.43 92.4802 130.04C93.1202 129.65 94.0802 130.14 94.7102 131.13Z" fill="#263238"/>
<path d="M103.75 126.85C104.37 127.85 104.39 128.95 103.75 129.33C103.11 129.71 102.15 129.23 101.52 128.24C100.89 127.25 100.88 126.15 101.52 125.77C102.16 125.39 103.12 125.87 103.75 126.85Z" fill="#263238"/>
<path d="M88.77 130.28C88.77 130.28 89.59 126.5 92.55 126" stroke="#263238" stroke-linecap="round" stroke-linejoin="round"/>
<path d="M98.4702 124.36C98.4702 124.36 100.12 121.24 102.75 122.55" stroke="#263238" stroke-linecap="round" stroke-linejoin="round"/>
<path d="M74.31 128.11C74.31 128.11 92.72 128.11 94.14 124.99C95.56 121.87 91.3 119.61 91.3 119.61C91.3 119.61 107.16 120.18 108.86 115.36C110.56 110.54 103.2 108.57 100.93 108.57H97.53C97.53 108.57 96.68 101.49 88.47 103.19C80.26 104.89 64.4 115.65 62.47 121.88C60.54 128.11 55.96 130.09 59.36 137.45C62.76 144.81 72.1 150.76 72.1 150.76C72.1 150.76 70.68 145.38 73.52 145.1C76.36 144.82 81.16 146.79 82.01 146.79C82.86 146.79 85.41 144.53 84.01 143.11C82.61 141.69 81.18 140.85 80.9 140C80.62 139.15 82.31 136.32 81.18 133.77C80.05 131.22 74.31 128.11 74.31 128.11Z" fill="#263238" stroke="#263238" stroke-linecap="round" stroke-linejoin="round"/>
<path d="M74.5705 138.403L68.0078 142.765C66.9453 143.471 66.6565 144.905 67.3627 145.967L80.2933 165.422C80.9995 166.485 82.4333 166.773 83.4958 166.067L90.0584 161.705C91.1209 160.999 91.4098 159.565 90.7036 158.503L77.773 139.048C77.0668 137.986 75.633 137.697 74.5705 138.403Z" fill="#92E3A9" stroke="#263238" stroke-miterlimit="10"/>
<path d="M70.92 162.11C70.92 162.11 69.61 158.76 68.31 156.33C67.01 153.9 67 152.79 67.93 152.79C68.9154 152.975 69.8253 153.443 70.5483 154.138C71.2713 154.832 71.7758 155.723 72 156.7C72.4457 158.721 72.5706 160.8 72.37 162.86L70.92 162.11Z" fill="white" stroke="#263238" stroke-miterlimit="10"/>
<path d="M82.1101 175C82.1101 175 71.4801 164.37 71.1101 163.44C70.7401 162.51 71.1601 150.44 71.2701 146.97C71.29 146.728 71.3888 146.499 71.5513 146.318C71.7139 146.138 71.9313 146.015 72.1701 145.97V145.97C72.3208 145.945 72.4751 145.951 72.6233 145.988C72.7714 146.026 72.9102 146.094 73.0306 146.188C73.151 146.282 73.2505 146.4 73.3227 146.535C73.395 146.669 73.4383 146.818 73.4501 146.97L74.2901 156.77L76.7201 144.41C76.7691 144.16 76.9039 143.936 77.1012 143.775C77.2984 143.614 77.5457 143.528 77.8001 143.53V143.53C77.948 143.531 78.0942 143.562 78.2298 143.621C78.3655 143.68 78.4878 143.766 78.5896 143.873C78.6914 143.981 78.7704 144.107 78.8221 144.246C78.8737 144.385 78.8968 144.532 78.8901 144.68L78.2001 158.45L81.2701 146.7C81.3072 146.554 81.3731 146.417 81.4641 146.297C81.555 146.176 81.669 146.076 81.7994 146C81.9299 145.925 82.0741 145.876 82.2237 145.857C82.3732 145.838 82.525 145.849 82.6701 145.89V145.89C82.9112 145.958 83.1231 146.104 83.2732 146.304C83.4232 146.505 83.503 146.75 83.5001 147L82.1101 159.65L84.7201 161.89V157.41L87.8501 152.15C87.9616 151.957 88.1431 151.814 88.3572 151.75C88.5712 151.687 88.8014 151.708 89.0001 151.81V151.81C89.2022 151.913 89.3572 152.09 89.4334 152.304C89.5096 152.517 89.5013 152.752 89.4101 152.96L87.3301 157.6C87.3301 157.6 91.4401 174.38 91.6201 174.94C91.8001 175.5 90.8801 178.49 90.3201 179.61C89.7601 180.73 64.7601 233.7 63.3201 235.75C61.8801 237.8 51.7601 240.97 47.3201 236.12C42.8801 231.27 44.3201 226.42 46.7601 220.83C49.2001 215.24 82.1101 175 82.1101 175Z" fill="white" stroke="#263238" stroke-miterlimit="10"/>
<path d="M85.8401 288.46L100 296.65" stroke="#808080" stroke-linecap="round" stroke-linejoin="round"/>
<path d="M143.19 282.87L134.63 294.04" stroke="#808080" stroke-linecap="round" stroke-linejoin="round"/>
<path d="M30 466H477" stroke="#263238" stroke-linecap="round" stroke-linejoin="round"/>
</svg>
