<svg width="750" height="500" viewBox="0 0 750 500" fill="none" xmlns="http://www.w3.org/2000/svg">
<path d="M632.12 140C632.12 140 529.34 34.72 395.77 26.59C262.2 18.46 184.31 104.75 147.4 156.21C110.49 207.67 18.3999 293.41 29.2599 371.92C40.1199 450.43 146.59 510 299.11 483.83C451.63 457.66 495.85 447.73 565.34 467.59C634.83 487.45 725.08 457.66 726.88 344.85C728.68 232.04 632.12 140 632.12 140Z" fill="#4CCB70"/>
<path opacity="0.7" d="M632.12 140C632.12 140 529.34 34.72 395.77 26.59C262.2 18.46 184.31 104.75 147.4 156.21C110.49 207.67 18.3999 293.41 29.2599 371.92C40.1199 450.43 146.59 510 299.11 483.83C451.63 457.66 495.85 447.73 565.34 467.59C634.83 487.45 725.08 457.66 726.88 344.85C728.68 232.04 632.12 140 632.12 140Z" fill="white"/>
<path d="M673.74 443.29H721.75" stroke="#263238" stroke-linecap="round" stroke-linejoin="round"/>
<path d="M65.3896 443.29H662.73" stroke="#263238" stroke-linecap="round" stroke-linejoin="round"/>
<path d="M42.5698 443.29H56.7398" stroke="#263238" stroke-linecap="round" stroke-linejoin="round"/>
<path d="M671.66 303.1L666.85 299.42L661.09 295.01L644.94 282.65V282.64L644.92 282.63L644.8 282.54L627.23 295.26L621.19 299.62L616.26 303.2L627.62 243.62L633.03 215.26L653.01 215.68L654.5 215.71L655.66 215.73L660.43 241.76L671.66 303.1Z" fill="#4CCB70" stroke="#263238" stroke-linecap="round" stroke-linejoin="round"/>
<path d="M660.43 241.76C659.706 241.52 658.928 241.495 658.19 241.69C657.19 242.23 656.93 244.59 655.83 245.01C654.73 245.43 652.99 243.85 651.83 244.16C650.67 244.47 649.99 246.73 648.83 246.92C647.67 247.11 646.29 245.18 645.11 245.25C643.93 245.32 642.78 247.38 641.6 247.32C640.42 247.26 639.45 245.1 638.3 244.92C637.15 244.74 635.56 246.52 634.44 246.23C633.32 245.94 632.8 243.61 631.71 243.23C630.62 242.85 628.71 244.23 627.71 243.69H627.64L633 215.26L653 215.68H654.49H655.65L660.43 241.76Z" fill="#263238" stroke="#263238" stroke-linecap="round" stroke-linejoin="round"/>
<path d="M610.74 204.73C610.8 203.54 608.87 202.17 609.05 201.02C609.23 199.87 611.48 199.12 611.77 198.02C612.06 196.92 610.47 195.13 610.88 194.02C611.29 192.91 613.66 192.68 614.18 191.63C614.7 190.58 613.51 188.54 614.18 187.56C614.85 186.58 617.18 186.82 617.9 185.91C618.62 185 617.9 182.75 618.71 181.91C619.52 181.07 621.79 181.81 622.71 181.06C623.63 180.31 623.35 177.97 624.33 177.32C625.31 176.67 627.33 177.86 628.4 177.32C629.47 176.78 629.66 174.42 630.76 173.99C631.86 173.56 633.61 175.15 634.76 174.84C635.91 174.53 636.59 172.28 637.76 172.09C638.93 171.9 640.3 173.82 641.48 173.76C642.66 173.7 643.8 171.63 644.99 171.69C646.18 171.75 647.14 173.91 648.28 174.08C649.42 174.25 651.02 172.49 652.14 172.78C653.26 173.07 653.78 175.4 654.87 175.78C655.96 176.16 657.87 174.78 658.87 175.32C659.87 175.86 659.87 178.21 660.87 178.85C661.87 179.49 664.01 178.5 664.92 179.24C665.83 179.98 665.34 182.24 666.18 183.12C667.02 184 669.32 183.43 670.06 184.34C670.8 185.25 669.84 187.41 670.49 188.39C671.14 189.37 673.49 189.34 674.04 190.39C674.59 191.44 673.18 193.34 673.61 194.39C674.04 195.44 676.36 195.95 676.67 197.09C676.98 198.23 675.21 199.79 675.4 200.96C675.59 202.13 677.76 203.05 677.82 204.23C677.88 205.41 675.82 206.57 675.82 207.76C675.82 208.95 677.69 210.32 677.52 211.47C677.35 212.62 675.09 213.37 674.79 214.47C674.49 215.57 676.09 217.36 675.68 218.47C675.27 219.58 672.91 219.82 672.38 220.86C671.85 221.9 673.05 223.95 672.38 224.94C671.71 225.93 669.38 225.67 668.65 226.59C667.92 227.51 668.65 229.75 667.84 230.59C667.03 231.43 664.76 230.69 663.84 231.43C662.92 232.17 663.21 234.53 662.23 235.17C661.25 235.81 659.23 234.63 658.15 235.17C657.07 235.71 656.89 238.06 655.79 238.49C654.69 238.92 652.94 237.33 651.79 237.64C650.64 237.95 649.95 240.21 648.79 240.4C647.63 240.59 646.26 238.66 645.08 238.73C643.9 238.8 642.75 240.86 641.56 240.8C640.37 240.74 639.42 238.58 638.27 238.4C637.12 238.22 635.53 240 634.41 239.7C633.29 239.4 632.77 237.09 631.68 236.7C630.59 236.31 628.68 237.7 627.63 237.17C626.58 236.64 626.63 234.27 625.63 233.64C624.63 233.01 622.49 233.98 621.63 233.25C620.77 232.52 621.21 230.19 620.38 229.37C619.55 228.55 617.23 229.06 616.49 228.15C615.75 227.24 616.71 225.08 616.06 224.15C615.41 223.22 613.06 223.15 612.51 222.15C611.96 221.15 613.37 219.15 612.94 218.09C612.51 217.03 610.2 216.54 609.94 215.4C609.68 214.26 611.39 212.69 611.2 211.53C611.01 210.37 608.84 209.43 608.78 208.25C608.72 207.07 610.69 205.91 610.74 204.73Z" fill="#4CCB70" stroke="#263238" stroke-linecap="round" stroke-linejoin="round"/>
<path d="M651.708 232.663C666.275 228.009 674.311 212.426 669.656 197.859C665.002 183.292 649.42 175.256 634.852 179.911C620.285 184.565 612.249 200.148 616.904 214.715C621.559 229.282 637.141 237.318 651.708 232.663Z" fill="#263238" stroke="#263238" stroke-linecap="round" stroke-linejoin="round"/>
<path d="M663.769 219.791C671.231 208.47 668.103 193.244 656.782 185.782C645.461 178.32 630.235 181.449 622.773 192.769C615.312 204.09 618.44 219.316 629.761 226.778C641.081 234.24 656.307 231.111 663.769 219.791Z" fill="white" stroke="#263238" stroke-linecap="round" stroke-linejoin="round"/>
<path d="M625.45 202.5L626.25 204.96H628.84L626.74 206.48L627.54 208.95L625.45 207.42L623.35 208.95L624.15 206.48L622.06 204.96H624.65L625.45 202.5Z" fill="#4CCB70" stroke="#263238" stroke-width="0.5" stroke-linecap="round" stroke-linejoin="round"/>
<path d="M634.33 202.5L635.13 204.96H637.72L635.63 206.48L636.42 208.95L634.33 207.42L632.24 208.95L633.04 206.48L630.94 204.96H633.53L634.33 202.5Z" fill="#4CCB70" stroke="#263238" stroke-width="0.5" stroke-linecap="round" stroke-linejoin="round"/>
<path d="M643.21 202.5L644.01 204.96H646.6L644.51 206.48L645.31 208.95L643.21 207.42L641.12 208.95L641.92 206.48L639.83 204.96H642.41L643.21 202.5Z" fill="#4CCB70" stroke="#263238" stroke-width="0.5" stroke-linecap="round" stroke-linejoin="round"/>
<path d="M652.1 202.5L652.9 204.96H655.49L653.39 206.48L654.19 208.95L652.1 207.42L650 208.95L650.8 206.48L648.71 204.96H651.3L652.1 202.5Z" fill="#4CCB70" stroke="#263238" stroke-width="0.5" stroke-linecap="round" stroke-linejoin="round"/>
<path d="M660.98 202.5L661.78 204.96H664.37L662.27 206.48L663.08 208.95L660.98 207.42L658.89 208.95L659.69 206.48L657.59 204.96H660.18L660.98 202.5Z" fill="#4CCB70" stroke="#263238" stroke-width="0.5" stroke-linecap="round" stroke-linejoin="round"/>
<path d="M627.16 330C626.86 329.854 626.581 329.669 626.33 329.45C626.026 329.188 625.739 328.908 625.47 328.61C625.204 328.318 624.961 328.007 624.74 327.68H624.46C623.725 327.718 622.993 327.548 622.35 327.19C621.824 326.86 621.429 326.358 621.23 325.77C620.988 325.066 620.873 324.324 620.89 323.58V319C620.87 318.265 620.985 317.533 621.23 316.84C621.433 316.265 621.829 315.777 622.35 315.46C622.996 315.109 623.726 314.943 624.46 314.98C625.204 314.941 625.944 315.107 626.6 315.46C627.124 315.777 627.523 316.264 627.73 316.84C627.975 317.533 628.09 318.265 628.07 319V323.69C628.073 324.235 628.016 324.778 627.9 325.31C627.802 325.761 627.611 326.187 627.34 326.56C627.086 326.92 626.741 327.206 626.34 327.39L626.75 327.83L627.18 328.27C627.311 328.388 627.452 328.495 627.6 328.59L627.16 330ZM624.46 326C624.601 326.021 624.744 326.014 624.882 325.979C625.02 325.944 625.149 325.882 625.263 325.796C625.377 325.711 625.472 325.603 625.544 325.48C625.615 325.357 625.662 325.221 625.68 325.08C625.742 324.771 625.772 324.456 625.77 324.14V318.39C625.773 318.074 625.743 317.759 625.68 317.45C625.631 317.196 625.501 316.964 625.31 316.79C625.064 316.613 624.763 316.528 624.46 316.55C624.163 316.527 623.868 316.612 623.63 316.79C623.435 316.96 623.307 317.194 623.27 317.45C623.207 317.759 623.177 318.074 623.18 318.39V324.14C623.178 324.456 623.208 324.771 623.27 325.08C623.309 325.341 623.436 325.581 623.63 325.76C623.868 325.938 624.163 326.023 624.46 326V326Z" fill="#263238"/>
<path d="M633.18 327.72C632.429 327.763 631.682 327.586 631.03 327.21C630.512 326.87 630.132 326.355 629.96 325.76C629.753 325.028 629.655 324.27 629.67 323.51V315.07H631.89V323.78C631.89 324.148 631.917 324.516 631.97 324.88C632.004 325.187 632.13 325.476 632.33 325.71C632.44 325.821 632.573 325.908 632.72 325.963C632.867 326.018 633.024 326.041 633.18 326.03C633.341 326.045 633.504 326.024 633.656 325.968C633.808 325.913 633.946 325.825 634.06 325.71C634.249 325.47 634.37 325.183 634.41 324.88C634.471 324.517 634.501 324.149 634.5 323.78V315.07H636.7V323.51C636.714 324.27 636.617 325.028 636.41 325.76C636.238 326.353 635.862 326.866 635.35 327.21C634.692 327.588 633.937 327.765 633.18 327.72Z" fill="#263238"/>
<path d="M637.79 327.55L640.29 315.07H642.72L645.22 327.55H643.11L642.62 324.67H640.44L639.93 327.55H637.79ZM640.67 323.22H642.37L641.52 317.98L640.67 323.22Z" fill="#263238"/>
<path d="M646.41 327.55V315.07H648.69V326H651.69V327.57L646.41 327.55Z" fill="#263238"/>
<path d="M652.9 327.55V315.07H655.15V327.55H652.9Z" fill="#263238"/>
<path d="M658.32 327.55V316.75H656.32V315.07H662.55V316.75H660.55V327.55H658.32Z" fill="#263238"/>
<path d="M665.44 327.55V322.79L662.91 315.07H665L666.54 320.07L667.99 315.07H670.07L667.57 322.79V327.55H665.44Z" fill="#263238"/>
<path d="M532 55.09L535.09 77.73L520.68 81.16C516.729 83.8355 512.603 86.2442 508.33 88.37C502.49 91.11 498.38 92.14 496.33 92.14C494.28 92.14 486.72 89.05 486.72 89.05C486.72 89.05 491.87 61.26 497.72 58.17C503.57 55.08 518.94 50.63 532 55.09Z" fill="white" stroke="#263238" stroke-linecap="round" stroke-linejoin="round"/>
<path d="M458.72 54.3C458.72 54.3 484.48 52.66 488.25 52.66C492.02 52.66 500.41 62 500.41 62C500.41 62 515.77 87.57 514.48 89.1C511.24 92.94 508.65 90.16 508.65 90.16L508.06 92.86C508.06 92.86 505.56 95.96 492.87 94.25C480.18 92.54 476.06 88.71 473 88C469.94 87.29 453.27 82.67 453.27 82.67L458.72 54.3Z" fill="white" stroke="#263238" stroke-linecap="round" stroke-linejoin="round"/>
<path d="M508.65 90.1099L504.41 81.9299" stroke="#263238" stroke-linecap="round" stroke-linejoin="round"/>
<path d="M504.41 93.9L499.15 84.85" stroke="#263238" stroke-linecap="round" stroke-linejoin="round"/>
<path d="M524.77 57.14C524.77 57.14 499 49.25 493.9 54.74C488.8 60.23 477.77 74.64 480.17 76.36C482.57 78.08 491.17 71.55 493.17 70.18C494.683 69.0845 496.065 67.8196 497.29 66.41C499.681 68.7706 502.652 70.4577 505.905 71.3005C509.157 72.1434 512.574 72.1122 515.81 71.21" fill="white"/>
<path d="M524.77 57.14C524.77 57.14 499 49.25 493.9 54.74C488.8 60.23 477.77 74.64 480.17 76.36C482.57 78.08 491.17 71.55 493.17 70.18C494.683 69.0845 496.065 67.8196 497.29 66.41C499.681 68.7706 502.652 70.4577 505.905 71.3005C509.157 72.1434 512.574 72.1122 515.81 71.21" stroke="#263238" stroke-linecap="round" stroke-linejoin="round"/>
<path d="M496.47 84.36C496.47 84.36 494 93.18 495 94.68C495.373 95.3076 495.943 95.7947 496.621 96.0658C497.299 96.337 498.047 96.3771 498.75 96.18C499.594 95.8322 500.362 95.3226 501.01 94.68C501.01 94.68 501.38 87.18 500.26 85.3C499.14 83.42 498.16 82.11 496.47 84.36Z" fill="white" stroke="#263238" stroke-linecap="round" stroke-linejoin="round"/>
<path d="M489.9 85.49C489.9 85.49 487.46 94.31 488.4 95.81C488.775 96.4383 489.346 96.9258 490.026 97.1969C490.706 97.468 491.456 97.5078 492.16 97.31C492.997 96.9553 493.761 96.4465 494.41 95.81C494.41 95.81 494.78 88.3 493.66 86.43C492.54 84.56 491.59 83.24 489.9 85.49Z" fill="white" stroke="#263238" stroke-linecap="round" stroke-linejoin="round"/>
<path d="M483.3 85.7999C483.3 85.7999 481.43 92.5699 482.15 93.7199C482.434 94.1967 482.867 94.5672 483.381 94.7749C483.896 94.9826 484.464 95.016 485 94.8699C485.645 94.6015 486.233 94.211 486.73 93.7199C486.73 93.7199 487.02 87.9599 486.16 86.5199C485.3 85.0799 484.59 84.0799 483.3 85.7999Z" fill="white" stroke="#263238" stroke-linecap="round" stroke-linejoin="round"/>
<path d="M475.51 86.0899C475.51 86.0899 474.04 90.57 474.61 91.33C474.873 91.6614 475.226 91.9096 475.627 92.0445C476.028 92.1794 476.46 92.1951 476.87 92.0899C477.365 91.9199 477.826 91.6625 478.23 91.33C478.23 91.33 478.46 87.52 477.78 86.57C477.1 85.62 476.53 84.9999 475.51 86.0899Z" fill="white" stroke="#263238" stroke-linecap="round" stroke-linejoin="round"/>
<path d="M536.6 48.1055L526.852 50.1473L534.816 88.1722L544.565 86.1303L536.6 48.1055Z" fill="white" stroke="#263238" stroke-linecap="round" stroke-linejoin="round"/>
<path d="M549.182 44.9647L533.581 48.2325L542.466 90.652L558.068 87.3842L549.182 44.9647Z" fill="#4CCB70" stroke="#263238" stroke-linecap="round" stroke-linejoin="round"/>
<path d="M447.023 86.1301L456.771 88.172L464.736 50.1472L454.987 48.1053L447.023 86.1301Z" fill="white" stroke="#263238" stroke-linecap="round" stroke-linejoin="round"/>
<path d="M433.523 87.3829L449.124 90.6508L458.009 48.2313L442.408 44.9635L433.523 87.3829Z" fill="#263238" stroke="#263238" stroke-linecap="round" stroke-linejoin="round"/>
<path d="M442 117.2C441.245 117.243 440.495 117.054 439.85 116.66C439.334 116.304 438.951 115.787 438.76 115.19C438.546 114.494 438.442 113.768 438.45 113.04V108.58C438.439 107.829 438.544 107.08 438.76 106.36C438.946 105.766 439.331 105.254 439.85 104.91C440.503 104.539 441.25 104.366 442 104.41C442.693 104.378 443.382 104.526 444 104.84C444.462 105.14 444.813 105.582 445 106.1C445.21 106.711 445.312 107.354 445.3 108V109H443.12V108C443.122 107.682 443.102 107.365 443.06 107.05C443.043 106.794 442.941 106.551 442.77 106.36C442.656 106.264 442.523 106.193 442.381 106.15C442.238 106.107 442.088 106.093 441.94 106.11C441.787 106.097 441.634 106.114 441.488 106.16C441.342 106.206 441.207 106.281 441.09 106.38C440.9 106.577 440.777 106.829 440.74 107.1C440.691 107.431 440.668 107.765 440.67 108.1V113.52C440.661 113.896 440.694 114.272 440.77 114.64C440.821 114.907 440.969 115.145 441.184 115.309C441.4 115.473 441.67 115.552 441.94 115.53C442.087 115.548 442.235 115.532 442.375 115.486C442.515 115.439 442.643 115.362 442.75 115.26C442.92 115.056 443.025 114.805 443.05 114.54C443.101 114.209 443.124 113.875 443.12 113.54V112.4H445.3V113.4C445.319 114.078 445.221 114.755 445.01 115.4C444.837 115.947 444.485 116.419 444.01 116.74C443.398 117.082 442.7 117.242 442 117.2V117.2Z" fill="#263238"/>
<path d="M450.36 117.2C449.609 117.243 448.861 117.066 448.21 116.69C447.692 116.35 447.312 115.835 447.14 115.24C446.934 114.508 446.837 113.75 446.85 112.99V104.54H449.07V113.25C449.065 113.618 449.091 113.986 449.15 114.35C449.182 114.66 449.308 114.953 449.51 115.19C449.752 115.39 450.056 115.499 450.37 115.499C450.684 115.499 450.988 115.39 451.23 115.19C451.424 114.948 451.548 114.658 451.59 114.35C451.648 113.986 451.675 113.618 451.67 113.25V104.54H453.88V113C453.895 113.761 453.794 114.52 453.58 115.25C453.415 115.844 453.042 116.358 452.53 116.7C451.871 117.075 451.116 117.248 450.36 117.2V117.2Z" fill="#263238"/>
<path d="M458.81 117.2C458.155 117.222 457.507 117.07 456.93 116.76C456.42 116.465 456.02 116.012 455.79 115.47C455.511 114.812 455.365 114.105 455.36 113.39L457.31 113C457.322 113.432 457.382 113.861 457.49 114.28C457.563 114.601 457.718 114.897 457.94 115.14C458.044 115.242 458.168 115.321 458.304 115.372C458.44 115.424 458.585 115.447 458.73 115.44C458.879 115.454 459.028 115.431 459.166 115.374C459.304 115.316 459.425 115.226 459.52 115.11C459.68 114.86 459.761 114.567 459.75 114.27C459.773 113.795 459.643 113.326 459.38 112.93C459.09 112.541 458.755 112.188 458.38 111.88L456.81 110.49C456.387 110.13 456.028 109.701 455.75 109.22C455.474 108.686 455.34 108.091 455.36 107.49C455.336 107.071 455.4 106.651 455.548 106.259C455.696 105.866 455.925 105.509 456.22 105.21C456.873 104.648 457.719 104.361 458.58 104.41C459.083 104.396 459.583 104.484 460.05 104.67C460.42 104.834 460.741 105.093 460.98 105.42C461.214 105.751 461.39 106.12 461.5 106.51C461.614 106.932 461.684 107.364 461.71 107.8L459.77 108.13C459.755 107.794 459.711 107.459 459.64 107.13C459.589 106.858 459.464 106.606 459.28 106.4C459.18 106.309 459.064 106.239 458.937 106.194C458.809 106.15 458.674 106.131 458.54 106.14C458.394 106.135 458.248 106.161 458.113 106.218C457.979 106.275 457.858 106.361 457.76 106.47C457.575 106.706 457.479 107 457.49 107.3C457.488 107.65 457.577 107.995 457.75 108.3C457.966 108.612 458.221 108.894 458.51 109.14L460.06 110.51C460.577 110.944 461.023 111.457 461.38 112.03C461.758 112.664 461.949 113.392 461.93 114.13C461.941 114.686 461.803 115.235 461.53 115.72C461.276 116.176 460.898 116.55 460.44 116.8C459.942 117.075 459.379 117.213 458.81 117.2V117.2Z" fill="#263238"/>
<path d="M464.53 117V106.22H462.53V104.54H468.75V106.22H466.8V117H464.53Z" fill="#263238"/>
<path d="M473.23 117.2C472.494 117.234 471.763 117.061 471.12 116.7C470.595 116.373 470.2 115.875 470 115.29C469.758 114.586 469.643 113.844 469.66 113.1V108.43C469.641 107.692 469.756 106.957 470 106.26C470.204 105.685 470.599 105.197 471.12 104.88C471.785 104.568 472.511 104.406 473.245 104.406C473.98 104.406 474.705 104.568 475.37 104.88C475.889 105.2 476.283 105.687 476.49 106.26C476.738 106.956 476.856 107.691 476.84 108.43V113.11C476.855 113.849 476.737 114.584 476.49 115.28C476.282 115.863 475.889 116.362 475.37 116.7C474.718 117.063 473.976 117.236 473.23 117.2ZM473.23 115.52C473.531 115.542 473.83 115.453 474.07 115.27C474.261 115.087 474.39 114.849 474.44 114.59C474.502 114.281 474.532 113.966 474.53 113.65V107.9C474.533 107.584 474.503 107.269 474.44 106.96C474.385 106.711 474.256 106.485 474.07 106.31C473.829 106.131 473.53 106.045 473.23 106.07C472.94 106.048 472.652 106.134 472.42 106.31C472.227 106.479 472.097 106.708 472.05 106.96C471.979 107.268 471.945 107.584 471.95 107.9V113.65C471.948 113.966 471.978 114.281 472.04 114.59C472.083 114.85 472.209 115.089 472.4 115.27C472.638 115.45 472.933 115.538 473.23 115.52V115.52Z" fill="#263238"/>
<path d="M478.49 117L478.7 104.51H481.06L482.84 113.16L484.68 104.51H487L487.2 117H485.5L485.32 108.32L483.54 117H482.17L480.37 108.29L480.2 117H478.49Z" fill="#263238"/>
<path d="M489 117V104.54H494.24V106.15H491.24V109.74H493.57V111.33H491.24V115.46H494.24V117H489Z" fill="#263238"/>
<path d="M495.55 117V104.54H498.55C499.271 104.523 499.991 104.624 500.68 104.84C501.225 105.009 501.695 105.363 502.01 105.84C502.345 106.451 502.501 107.144 502.46 107.84C502.467 108.297 502.423 108.753 502.33 109.2C502.245 109.562 502.084 109.903 501.86 110.2C501.617 110.497 501.299 110.725 500.94 110.86L502.68 117.01H500.4L498.89 111.29H497.84V117H495.55ZM497.83 109.85H498.54C498.884 109.857 499.225 109.789 499.54 109.65C499.803 109.529 500.007 109.31 500.11 109.04C500.232 108.69 500.289 108.321 500.28 107.95C500.314 107.455 500.192 106.962 499.93 106.54C499.762 106.364 499.555 106.23 499.326 106.148C499.096 106.067 498.851 106.04 498.61 106.07H497.78L497.83 109.85Z" fill="#263238"/>
<path d="M507.91 117V104.54H510.19V115.46H513.19V117H507.91Z" fill="#263238"/>
<path d="M517.63 117.2C516.894 117.234 516.163 117.061 515.52 116.7C514.995 116.373 514.6 115.875 514.4 115.29C514.158 114.586 514.043 113.844 514.06 113.1V108.43C514.041 107.692 514.156 106.957 514.4 106.26C514.603 105.685 514.999 105.197 515.52 104.88C516.185 104.568 516.911 104.406 517.645 104.406C518.38 104.406 519.105 104.568 519.77 104.88C520.288 105.2 520.683 105.687 520.89 106.26C521.142 106.955 521.261 107.691 521.24 108.43V113.11C521.26 113.849 521.141 114.585 520.89 115.28C520.682 115.863 520.289 116.362 519.77 116.7C519.117 117.063 518.376 117.236 517.63 117.2ZM517.63 115.52C517.931 115.542 518.23 115.453 518.47 115.27C518.664 115.09 518.794 114.851 518.84 114.59C518.902 114.281 518.932 113.966 518.93 113.65V107.9C518.933 107.584 518.903 107.269 518.84 106.96C518.789 106.709 518.66 106.482 518.47 106.31C518.228 106.131 517.93 106.045 517.63 106.07C517.34 106.048 517.052 106.134 516.82 106.31C516.627 106.479 516.497 106.708 516.45 106.96C516.387 107.269 516.357 107.584 516.36 107.9V113.65C516.355 113.965 516.382 114.28 516.44 114.59C516.483 114.85 516.609 115.089 516.8 115.27C517.038 115.45 517.332 115.538 517.63 115.52V115.52Z" fill="#263238"/>
<path d="M524.54 117V112.23L522 104.54H524.13L525.67 109.49L527.12 104.54H529.2L526.7 112.26V117H524.54Z" fill="#263238"/>
<path d="M529.19 117L531.69 104.51H534.13L536.62 117H534.51L534.02 114.12H531.84L531.33 117H529.19ZM532.08 112.67H533.77L532.92 107.43L532.08 112.67Z" fill="#263238"/>
<path d="M537.81 117V104.54H540.09V115.46H543.09V117H537.81Z" fill="#263238"/>
<path d="M544.93 117V106.22H542.93V104.54H549.16V106.22H547.16V117H544.93Z" fill="#263238"/>
<path d="M552.05 117V112.23L549.52 104.51H551.65L553.19 109.46L554.64 104.51H556.72L554.22 112.23V117H552.05Z" fill="#263238"/>
<path d="M216.38 74.07V63.72L206.05 62.57C205.493 60.4135 204.642 58.344 203.52 56.42L210.05 48.26L202.73 41L194.61 47.49C192.688 46.3619 190.623 45.4974 188.47 44.92L187.32 34.5H177L175.83 44.82C173.671 45.3827 171.598 46.2372 169.67 47.36L161.51 40.83L154.2 48.15L160.7 56.27C159.569 58.1917 158.701 60.2569 158.12 62.41L147.75 63.56V73.9L158.08 75.05C158.639 77.2089 159.49 79.2813 160.61 81.21L154.08 89.37L161.4 96.68L169.52 90.18C171.44 91.3123 173.506 92.177 175.66 92.75L176.81 103.13H187.16L188.3 92.8C190.459 92.2408 192.531 91.3897 194.46 90.27L202.62 96.79L209.93 89.48L203.43 81.36C204.561 79.4383 205.429 77.3731 206.01 75.22L216.38 74.07ZM182.07 81.16C179.627 81.162 177.238 80.4393 175.206 79.0835C173.174 77.7277 171.589 75.7996 170.653 73.5431C169.717 71.2866 169.471 68.8031 169.946 66.4068C170.421 64.0104 171.597 61.809 173.324 60.0808C175.05 58.3526 177.251 57.1754 179.647 56.698C182.043 56.2207 184.527 56.4647 186.784 57.3991C189.041 58.3336 190.97 59.9165 192.328 61.9477C193.685 63.9788 194.41 66.367 194.41 68.81C194.41 72.0837 193.11 75.2234 190.796 77.5392C188.482 79.855 185.344 81.1574 182.07 81.16V81.16Z" fill="#263238" stroke="#263238" stroke-linecap="round" stroke-linejoin="round"/>
<path d="M257 53.31L255.85 46.46L248.85 46.84C248.236 45.477 247.442 44.2024 246.49 43.05L250 36.92L244.35 32.92L239.69 38.12C238.293 37.5892 236.829 37.2527 235.34 37.12L233.43 30.38L226.58 31.52L226.97 38.52C225.603 39.1316 224.324 39.9255 223.17 40.88L217 37.38L213 43L218.2 47.65C217.669 49.0474 217.333 50.5111 217.2 52L210.42 54L211.57 60.84L218.57 60.46C219.177 61.8246 219.967 63.0998 220.92 64.25L217.51 70.38L223.16 74.38L227.82 69.18C229.217 69.7109 230.681 70.0473 232.17 70.18L234.08 76.92L240.93 75.78L240.54 68.78C241.907 68.1684 243.186 67.3745 244.34 66.42L250.46 69.84L254.46 64.18L249.26 59.53C249.786 58.1311 250.122 56.6681 250.26 55.18L257 53.31ZM235.06 61.8C233.445 62.068 231.787 61.8513 230.295 61.1774C228.804 60.5034 227.545 59.4024 226.679 58.0135C225.813 56.6245 225.377 55.01 225.428 53.3738C225.479 51.7377 226.014 50.1534 226.965 48.8211C227.916 47.4888 229.241 46.4683 230.772 45.8885C232.303 45.3087 233.971 45.1957 235.566 45.5637C237.161 45.9317 238.611 46.7642 239.733 47.9561C240.855 49.148 241.599 50.6457 241.87 52.26C242.232 54.4237 241.722 56.6426 240.451 58.4308C239.18 60.219 237.252 61.4305 235.09 61.8H235.06Z" fill="#4CCB70" stroke="#263238" stroke-linecap="round" stroke-linejoin="round"/>
<path d="M240.79 116.32L239.64 109.47L232.64 109.85C232.026 108.487 231.232 107.212 230.28 106.06L233.7 99.94L228.04 95.94L223.39 101.14C221.99 100.616 220.528 100.28 219.04 100.14L217.12 93.4L210.28 94.55L210.66 101.55C209.295 102.166 208.017 102.959 206.86 103.91L200.74 100.5L196.74 106.15L201.94 110.81C201.41 112.204 201.074 113.665 200.94 115.15L194.19 117L195.33 123.85L202.33 123.46C202.938 124.829 203.732 126.108 204.69 127.26L201.27 133.38L206.92 137.38L211.58 132.18C212.977 132.711 214.441 133.047 215.93 133.18L217.84 139.93L224.69 138.78L224.31 131.78C225.675 131.173 226.95 130.383 228.1 129.43L234.23 132.84L238.23 127.19L233.03 122.53C233.556 121.131 233.893 119.668 234.03 118.18L240.79 116.32ZM218.86 124.82C217.243 125.092 215.581 124.879 214.085 124.207C212.589 123.534 211.326 122.433 210.456 121.043C209.586 119.653 209.148 118.036 209.197 116.396C209.246 114.757 209.781 113.169 210.732 111.833C211.684 110.498 213.011 109.475 214.545 108.893C216.078 108.312 217.75 108.199 219.348 108.568C220.946 108.937 222.399 109.771 223.522 110.966C224.646 112.161 225.39 113.662 225.66 115.28C226.022 117.447 225.509 119.668 224.234 121.457C222.959 123.246 221.026 124.455 218.86 124.82V124.82Z" fill="white" stroke="#263238" stroke-linecap="round" stroke-linejoin="round"/>
<path d="M247.17 97.72C246.515 97.7468 245.865 97.5947 245.29 97.28C244.786 96.983 244.387 96.5354 244.15 96C243.873 95.3414 243.727 94.6348 243.72 93.92L245.72 93.53C245.735 93.9612 245.792 94.3899 245.89 94.81C245.963 95.1279 246.118 95.4211 246.34 95.66C246.445 95.7606 246.569 95.839 246.705 95.8905C246.84 95.9421 246.985 95.9657 247.13 95.96C247.279 95.9759 247.429 95.954 247.568 95.8963C247.706 95.8386 247.827 95.747 247.92 95.63C248.085 95.3819 248.166 95.0874 248.15 94.79C248.171 94.3156 248.041 93.8467 247.78 93.45C247.491 93.0754 247.155 92.7393 246.78 92.45L245.18 91C244.76 90.6404 244.404 90.2107 244.13 89.73C243.854 89.1927 243.72 88.5938 243.74 87.99C243.716 87.571 243.78 87.1515 243.928 86.7588C244.076 86.366 244.305 86.0088 244.6 85.71C245.254 85.1489 246.1 84.8623 246.96 84.91C247.461 84.8943 247.959 84.9864 248.42 85.18C248.791 85.3442 249.111 85.6028 249.35 85.93C249.587 86.2562 249.763 86.6219 249.87 87.01C249.981 87.4329 250.054 87.8645 250.09 88.3L248.09 88.64C248.074 88.3038 248.03 87.9693 247.96 87.64C247.918 87.3704 247.796 87.1195 247.61 86.92C247.51 86.8278 247.391 86.7572 247.262 86.7124C247.133 86.6677 246.996 86.6499 246.86 86.66C246.714 86.6546 246.568 86.6814 246.434 86.7384C246.299 86.7954 246.178 86.8813 246.08 86.99C245.896 87.2226 245.8 87.5133 245.81 87.81C245.804 88.1608 245.894 88.5065 246.07 88.81C246.286 89.1218 246.542 89.4042 246.83 89.65L248.44 91C248.954 91.4344 249.396 91.9475 249.75 92.52C250.133 93.1521 250.324 93.8816 250.3 94.62C250.311 95.175 250.177 95.7232 249.91 96.21C249.653 96.6692 249.272 97.0469 248.81 97.3C248.31 97.5807 247.744 97.7255 247.17 97.72V97.72Z" fill="#263238"/>
<path d="M255.06 97.7201C254.309 97.7632 253.562 97.5859 252.91 97.2101C252.392 96.8697 252.013 96.3555 251.84 95.7601C251.633 95.0284 251.536 94.2702 251.55 93.5101V85.0701H253.77V93.7801C253.767 94.1479 253.791 94.5155 253.84 94.8801C253.882 95.1862 254.011 95.4741 254.21 95.7101C254.45 95.9156 254.755 96.0287 255.07 96.0287C255.386 96.0287 255.691 95.9156 255.93 95.7101C256.123 95.4707 256.247 95.184 256.29 94.8801C256.343 94.5158 256.37 94.1482 256.37 93.7801V85.0701H258.58V93.5101C258.597 94.271 258.496 95.03 258.28 95.7601C258.128 96.3461 257.774 96.8596 257.28 97.2101C256.608 97.5978 255.835 97.7754 255.06 97.7201V97.7201Z" fill="#263238"/>
<path d="M260.36 97.55V85.07H264C264.635 85.0449 265.266 85.1862 265.83 85.48C266.284 85.7655 266.635 86.1897 266.83 86.69C267.065 87.3021 267.177 87.9545 267.16 88.61C267.193 89.3005 267.052 89.9883 266.75 90.61C266.491 91.0902 266.079 91.4703 265.58 91.69C265.025 91.9299 264.424 92.0459 263.82 92.03H262.58V97.58L260.36 97.55ZM262.64 90.4H263.51C263.853 90.4227 264.196 90.3609 264.51 90.22C264.625 90.1637 264.727 90.0839 264.81 89.9857C264.893 89.8876 264.954 89.7732 264.99 89.65C265.089 89.3092 265.133 88.9547 265.12 88.6C265.13 88.2307 265.096 87.8615 265.02 87.5C264.965 87.2414 264.811 87.0149 264.59 86.87C264.278 86.7229 263.935 86.6543 263.59 86.67H262.72L262.64 90.4Z" fill="#263238"/>
<path d="M268.42 97.55V85.07H272.09C272.725 85.0449 273.356 85.1862 273.92 85.48C274.375 85.7655 274.725 86.1897 274.92 86.69C275.155 87.3021 275.267 87.9545 275.25 88.61C275.283 89.3005 275.142 89.9883 274.84 90.61C274.581 91.0902 274.169 91.4703 273.67 91.69C273.115 91.9299 272.514 92.0459 271.91 92.03H270.68V97.58L268.42 97.55ZM270.71 90.4H271.57C271.913 90.4227 272.256 90.3609 272.57 90.22C272.685 90.1637 272.788 90.0839 272.87 89.9857C272.953 89.8876 273.014 89.7732 273.05 89.65C273.149 89.3092 273.193 88.9547 273.18 88.6C273.19 88.2307 273.156 87.8615 273.08 87.5C273.025 87.2414 272.871 87.0149 272.65 86.87C272.338 86.7229 271.995 86.6543 271.65 86.67H270.79L270.71 90.4Z" fill="#263238"/>
<path d="M279.94 97.72C279.205 97.7592 278.473 97.5893 277.83 97.23C277.302 96.9 276.903 96.3987 276.7 95.81C276.458 95.1058 276.343 94.3644 276.36 93.62V89C276.34 88.2653 276.455 87.5331 276.7 86.84C276.907 86.2641 277.306 85.7769 277.83 85.46C278.476 85.1092 279.206 84.9431 279.94 84.98C280.681 84.9394 281.418 85.1056 282.07 85.46C282.592 85.7793 282.99 86.2657 283.2 86.84C283.445 87.5331 283.56 88.2653 283.54 89V93.69C283.557 94.4246 283.442 95.1563 283.2 95.85C282.991 96.4353 282.593 96.9347 282.07 97.27C281.415 97.6141 280.678 97.7698 279.94 97.72V97.72ZM279.94 96.04C280.24 96.0645 280.538 95.9793 280.78 95.8C280.967 95.6156 281.093 95.3782 281.14 95.12C281.202 94.8106 281.232 94.4956 281.23 94.18V88.43C281.233 88.1144 281.203 87.7993 281.14 87.49C281.095 87.2369 280.968 87.0053 280.78 86.83C280.531 86.6738 280.244 86.5909 279.95 86.5909C279.656 86.5909 279.369 86.6738 279.12 86.83C278.929 87.0044 278.799 87.2359 278.75 87.49C278.687 87.7993 278.657 88.1144 278.66 88.43V94.18C278.66 94.495 278.687 94.8095 278.74 95.12C278.749 95.2632 278.788 95.4028 278.855 95.5295C278.922 95.6562 279.016 95.7669 279.13 95.8542C279.244 95.9414 279.375 96.0032 279.515 96.0353C279.655 96.0673 279.8 96.0689 279.94 96.04V96.04Z" fill="#263238"/>
<path d="M285.22 97.55V85.07H288.22C288.945 85.052 289.668 85.1533 290.36 85.37C290.904 85.5385 291.371 85.8924 291.68 86.37C292.022 86.979 292.181 87.6731 292.14 88.37C292.143 88.8238 292.097 89.2766 292 89.72C291.918 90.0835 291.758 90.4247 291.53 90.72C291.288 91.0161 290.97 91.2407 290.61 91.37L292.35 97.52H290.07L288.56 91.8H287.56V97.52L285.22 97.55ZM287.5 90.4H288.21C288.573 90.4182 288.936 90.3532 289.27 90.21C289.529 90.0817 289.729 89.8601 289.83 89.59C289.953 89.2435 290.01 88.8774 290 88.51C290.04 88.0145 289.917 87.5196 289.65 87.1C289.485 86.923 289.28 86.788 289.052 86.7063C288.824 86.6245 288.58 86.5984 288.34 86.63H287.5V90.4Z" fill="#263238"/>
<path d="M295.06 97.5501V86.7501H293.06V85.0701H299.28V86.7501H297.33V97.5501H295.06Z" fill="#263238"/>
<path d="M73.57 288.65H63.27V319.38H73.57V288.65Z" fill="#263238" stroke="#263238" stroke-width="0.5" stroke-linecap="round" stroke-linejoin="round"/>
<path d="M89.76 299.7H79.46V319.38H89.76V299.7Z" fill="#4CCB70" stroke="#263238" stroke-linecap="round" stroke-linejoin="round"/>
<path d="M105.95 281.92H95.6499V319.38H105.95V281.92Z" fill="#263238" stroke="#263238" stroke-width="0.5" stroke-linecap="round" stroke-linejoin="round"/>
<path d="M122.14 289.67H111.84V319.38H122.14V289.67Z" fill="#4CCB70" stroke="#263238" stroke-linecap="round" stroke-linejoin="round"/>
<path d="M138.33 282.88H128.03V319.38H138.33V282.88Z" fill="#263238" stroke="#263238" stroke-width="0.5" stroke-linecap="round" stroke-linejoin="round"/>
<path d="M154.51 261.25H144.21V319.38H154.51V261.25Z" fill="#4CCB70" stroke="#263238" stroke-linecap="round" stroke-linejoin="round"/>
<path d="M166.09 260.63H172.12" stroke="#263238" stroke-width="0.5" stroke-linecap="round" stroke-linejoin="round"/>
<path d="M166.09 272.38H172.12" stroke="#263238" stroke-width="0.5" stroke-linecap="round" stroke-linejoin="round"/>
<path d="M166.09 284.14H172.12" stroke="#263238" stroke-width="0.5" stroke-linecap="round" stroke-linejoin="round"/>
<path d="M166.09 295.89H172.12" stroke="#263238" stroke-width="0.5" stroke-linecap="round" stroke-linejoin="round"/>
<path d="M166.09 307.64H172.12" stroke="#263238" stroke-width="0.5" stroke-linecap="round" stroke-linejoin="round"/>
<path d="M166.09 319.39H172.12" stroke="#263238" stroke-width="0.5" stroke-linecap="round" stroke-linejoin="round"/>
<path d="M69.1602 277.32L84.9501 286.86L101.36 269.28L117.57 270.65L133.29 264.41L151.06 241.02" stroke="#263238" stroke-linecap="round" stroke-linejoin="round"/>
<path d="M71.1499 277.32C71.1499 276.925 71.0326 276.538 70.8128 276.209C70.5931 275.88 70.2807 275.624 69.9153 275.472C69.5498 275.321 69.1477 275.281 68.7597 275.359C68.3718 275.436 68.0154 275.626 67.7357 275.906C67.456 276.186 67.2655 276.542 67.1883 276.93C67.1112 277.318 67.1508 277.72 67.3021 278.085C67.4535 278.451 67.7099 278.763 68.0388 278.983C68.3677 279.203 68.7543 279.32 69.1499 279.32C69.6803 279.32 70.189 279.109 70.5641 278.734C70.9392 278.359 71.1499 277.851 71.1499 277.32Z" fill="#263238"/>
<path d="M86.9399 286.86C86.9399 286.464 86.8226 286.078 86.6029 285.749C86.3831 285.42 86.0708 285.164 85.7053 285.012C85.3399 284.861 84.9377 284.821 84.5498 284.898C84.1618 284.976 83.8054 285.166 83.5257 285.446C83.246 285.725 83.0555 286.082 82.9784 286.47C82.9012 286.858 82.9408 287.26 83.0922 287.625C83.2436 287.991 83.4999 288.303 83.8288 288.523C84.1577 288.743 84.5444 288.86 84.9399 288.86C85.4704 288.86 85.9791 288.649 86.3542 288.274C86.7292 287.899 86.9399 287.39 86.9399 286.86Z" fill="#263238"/>
<path d="M103.35 269.28C103.35 268.884 103.233 268.498 103.013 268.169C102.793 267.84 102.481 267.584 102.115 267.432C101.75 267.281 101.348 267.241 100.96 267.318C100.572 267.396 100.216 267.586 99.9359 267.866C99.6562 268.146 99.4657 268.502 99.3885 268.89C99.3114 269.278 99.351 269.68 99.5023 270.045C99.6537 270.411 99.9101 270.723 100.239 270.943C100.568 271.163 100.955 271.28 101.35 271.28C101.881 271.28 102.389 271.069 102.764 270.694C103.139 270.319 103.35 269.81 103.35 269.28Z" fill="#263238"/>
<path d="M119.56 270.65C119.56 270.254 119.443 269.868 119.223 269.539C119.003 269.21 118.691 268.954 118.325 268.802C117.96 268.651 117.558 268.611 117.17 268.688C116.782 268.766 116.426 268.956 116.146 269.236C115.866 269.516 115.676 269.872 115.598 270.26C115.521 270.648 115.561 271.05 115.712 271.415C115.864 271.781 116.12 272.093 116.449 272.313C116.778 272.533 117.164 272.65 117.56 272.65C118.09 272.65 118.599 272.439 118.974 272.064C119.349 271.689 119.56 271.18 119.56 270.65Z" fill="#263238"/>
<path d="M135.28 264.1C135.28 263.704 135.162 263.318 134.943 262.989C134.723 262.66 134.411 262.404 134.045 262.252C133.68 262.101 133.278 262.061 132.89 262.138C132.502 262.216 132.145 262.406 131.866 262.686C131.586 262.965 131.395 263.322 131.318 263.71C131.241 264.098 131.281 264.5 131.432 264.865C131.583 265.231 131.84 265.543 132.169 265.763C132.498 265.983 132.884 266.1 133.28 266.1C133.81 266.1 134.319 265.889 134.694 265.514C135.069 265.139 135.28 264.63 135.28 264.1Z" fill="#263238"/>
<path d="M153.06 241C153.06 240.604 152.943 240.218 152.723 239.889C152.503 239.56 152.191 239.304 151.825 239.152C151.46 239.001 151.058 238.961 150.67 239.038C150.282 239.116 149.926 239.306 149.646 239.586C149.366 239.865 149.176 240.222 149.098 240.61C149.021 240.998 149.061 241.4 149.212 241.765C149.364 242.131 149.62 242.443 149.949 242.663C150.278 242.883 150.664 243 151.06 243C151.59 243 152.099 242.789 152.474 242.414C152.849 242.039 153.06 241.53 153.06 241Z" fill="#263238"/>
<path d="M67 349.51V337H69.25V349.48L67 349.51Z" fill="#263238"/>
<path d="M71.1699 349.51L71.3899 337H73.7399L75.5199 345.64L77.3699 337H79.6499L79.8799 349.48H78.1799L77.9999 340.83L76.2299 349.51H74.8499L73.0499 340.8L72.8799 349.51H71.1699Z" fill="#263238"/>
<path d="M81.6299 349.51V337H85.2999C85.9352 336.975 86.566 337.116 87.1299 337.41C87.5845 337.696 87.9351 338.12 88.1299 338.62C88.3647 339.232 88.4768 339.885 88.4599 340.54C88.4919 341.23 88.351 341.918 88.0499 342.54C87.791 343.02 87.3793 343.4 86.8799 343.62C86.3249 343.86 85.7243 343.976 85.1199 343.96H83.9099V349.51H81.6299ZM83.9099 342.36H84.7799C85.1229 342.383 85.4663 342.321 85.7799 342.18C85.8952 342.124 85.9975 342.044 86.0802 341.946C86.1628 341.848 86.2241 341.733 86.2599 341.61C86.3591 341.269 86.403 340.915 86.3899 340.56C86.3995 340.191 86.366 339.822 86.2899 339.46C86.2662 339.331 86.2157 339.208 86.1417 339.099C86.0676 338.991 85.9716 338.899 85.8599 338.83C85.5478 338.683 85.2045 338.614 84.8599 338.63H83.9899L83.9099 342.36Z" fill="#263238"/>
<path d="M89.7002 349.51V337H92.7002C93.4252 336.982 94.1481 337.083 94.8402 337.3C95.3837 337.468 95.8509 337.822 96.1602 338.3C96.5017 338.909 96.6613 339.603 96.6202 340.3C96.6235 340.754 96.5765 341.207 96.4802 341.65C96.3961 342.013 96.2359 342.354 96.0102 342.65C95.7681 342.946 95.4501 343.171 95.0902 343.3L96.8402 349.45H94.5302L93.0002 343.79H92.0002V349.51H89.7002ZM92.0002 342.36H92.7002C93.0634 342.378 93.4259 342.313 93.7602 342.17C94.0186 342.042 94.2187 341.82 94.3202 341.55C94.4486 341.201 94.5064 340.831 94.4902 340.46C94.5243 339.966 94.4056 339.474 94.1502 339.05C93.9816 338.875 93.7746 338.741 93.5455 338.66C93.3165 338.578 93.0716 338.551 92.8302 338.58H92.0002V342.36Z" fill="#263238"/>
<path d="M101.67 349.68C100.935 349.718 100.203 349.548 99.56 349.19C99.0319 348.86 98.633 348.359 98.43 347.77C98.1929 347.065 98.0779 346.324 98.09 345.58V340.91C98.0761 340.176 98.1912 339.445 98.43 338.75C98.6373 338.174 99.0363 337.687 99.56 337.37C100.222 337.054 100.946 336.89 101.68 336.89C102.414 336.89 103.138 337.054 103.8 337.37C104.322 337.689 104.72 338.176 104.93 338.75C105.178 339.443 105.297 340.175 105.28 340.91V345.6C105.294 346.335 105.176 347.067 104.93 347.76C104.721 348.345 104.323 348.845 103.8 349.18C103.152 349.545 102.413 349.719 101.67 349.68ZM101.67 348C101.972 348.027 102.272 347.937 102.51 347.75C102.699 347.571 102.825 347.336 102.87 347.08C102.932 346.771 102.962 346.456 102.96 346.14V340.39C102.963 340.074 102.933 339.759 102.87 339.45C102.824 339.197 102.698 338.965 102.51 338.79C102.261 338.634 101.974 338.551 101.68 338.551C101.386 338.551 101.099 338.634 100.85 338.79C100.659 338.964 100.529 339.196 100.48 339.45C100.417 339.759 100.387 340.074 100.39 340.39V346.14C100.388 346.456 100.418 346.771 100.48 347.08C100.517 347.339 100.644 347.577 100.84 347.75C101.075 347.936 101.372 348.025 101.67 348Z" fill="#263238"/>
<path d="M108.81 349.51L106.29 337H108.29L109.94 345.83L111.5 337H113.57L111.06 349.48L108.81 349.51Z" fill="#263238"/>
<path d="M114.85 349.51V337H120.09V338.6H117.09V342.19H119.41V343.78H117.09V347.91H120.09V349.48L114.85 349.51Z" fill="#263238"/>
<path d="M121.41 349.51L121.63 337.03H124L125.77 345.67L127.62 337.03H129.9L130.13 349.51H128.43L128.25 340.83L126.48 349.51H125.1L123.29 340.8L123.12 349.51H121.41Z" fill="#263238"/>
<path d="M131.88 349.51V337H137.12V338.6H134.12V342.19H136.44V343.78H134.12V347.91H137.12V349.48L131.88 349.51Z" fill="#263238"/>
<path d="M138.47 349.51V337H140.06L143.06 344.12V337H145V349.48H143.49L140.43 342.02V349.48L138.47 349.51Z" fill="#263238"/>
<path d="M148.12 349.51V338.71H146.12V337H152.35V338.68H150.35V349.48L148.12 349.51Z" fill="#263238"/>
<path d="M427.32 438.3H338.28L351.63 389.15H413.96L427.32 438.3Z" fill="#263238" stroke="#263238" stroke-linecap="round" stroke-linejoin="round"/>
<path d="M450.47 438.3H315.13V443.29H450.47V438.3Z" fill="#263238" stroke="#263238" stroke-linecap="round" stroke-linejoin="round"/>
<path d="M575.27 149.94H190.32V394.31H575.27V149.94Z" fill="#263238" stroke="#263238" stroke-linecap="round" stroke-linejoin="round"/>
<path d="M562.94 159.26H202.66V385H562.94V159.26Z" fill="#B2B2B2" stroke="#263238" stroke-linecap="round" stroke-linejoin="round"/>
<path d="M311.51 216.22L288.17 220.12L295.53 327.77L329.36 330.5C329.36 330.5 336.71 289.11 337.13 282.39C337.55 275.67 325.13 225.25 325.13 225.25L311.51 216.22Z" fill="#4CCB70" stroke="#263238" stroke-linecap="round" stroke-linejoin="round"/>
<path d="M346 385C346.767 382.349 347.148 379.6 347.13 376.84C346.86 372.84 345.8 366.73 345.8 366.73L336.22 367.53L339.93 385H346Z" fill="white" stroke="#263238" stroke-linecap="round" stroke-linejoin="round"/>
<path d="M243.28 385H340.16C339.9 382.87 339.16 377.5 338.39 372.11C337.34 365.18 330.2 316.64 330.2 316.64L259 309.91C259 309.91 242.4 342.06 240.09 351.51C237.78 360.96 243 383.23 243 383.23L243.28 385Z" fill="#263238" stroke="#263238" stroke-linecap="round" stroke-linejoin="round"/>
<path d="M337.13 143.1C337.13 143.1 342.59 141.84 344.9 150.45C347.21 159.06 344.48 163.45 345.53 167.68C346.58 171.91 348.84 181.75 346.1 191.62C343.36 201.49 333.56 208.62 333.1 212.22L332.68 215.79C332.68 215.79 331.21 217.26 326.59 216.84C321.97 216.42 316.29 213.06 316.29 213.06L316.92 205.92C316.92 205.92 324.92 205.92 326.8 204.45C328.68 202.98 336.88 188.45 337.51 184.28C338.14 180.11 338.56 168.1 337.93 164.53C337.3 160.96 332.93 153.6 331.21 152.97C329.49 152.34 321.75 146.88 321.75 146.88C321.75 146.88 332.51 140.37 337.13 143.1Z" fill="#263238" stroke="#263238" stroke-linecap="round" stroke-linejoin="round"/>
<path d="M342.38 233.44C342.38 233.44 349.11 236.59 349.32 241.84C349.53 247.09 345.74 270.41 345.74 272.1C345.74 273.79 343.85 308.65 343.85 308.65L347.92 369.38L338.35 369.92C338.35 369.92 330 325 330.83 319.58C331.66 314.16 336.71 287.22 337.13 282.39C337.55 277.56 336.5 256.97 337.97 250.88C339.44 244.79 342.38 233.44 342.38 233.44Z" fill="white" stroke="#263238" stroke-linecap="round" stroke-linejoin="round"/>
<path d="M328 147.68C328 147.68 338.38 151.92 340.06 159.28C341.74 166.64 339.22 175.87 340.06 181.76C340.9 187.65 332.5 202.35 329.56 205.92C326.62 209.49 319.47 208.23 319.47 208.23L320.55 220C320.55 220 324.95 234.7 324.31 238.48C323.67 242.26 316.74 247.81 307.93 247.3C297 246.67 293.63 236.5 293.63 236.5L295.1 213.18C295.467 208.376 295.33 203.546 294.69 198.77C293.64 190.16 295.95 177.13 296.79 175.03C297.63 172.93 305.41 164.32 310.24 160.96C315.07 157.6 324.52 147.96 324.52 147.96C324.52 147.96 327.3 146.79 328 147.68Z" fill="white" stroke="#263238" stroke-linecap="round" stroke-linejoin="round"/>
<path d="M294.68 217.59C294.68 217.59 262.34 220.59 257.68 223.77C253.02 226.95 259.78 294.36 259.78 294.36C259.78 294.36 233.78 351.51 234.57 351.93C235.36 352.35 247.8 362.64 261.04 364.93C274.28 367.22 293.6 368.93 293.6 368.93C293.6 368.93 300.53 312.2 301.37 307.79C302.21 303.38 299.48 259.68 299.9 253.59C300.32 247.5 294.68 217.59 294.68 217.59Z" fill="white" stroke="#263238" stroke-linecap="round" stroke-linejoin="round"/>
<path d="M295.61 285.94C296.564 288.184 297.659 290.365 298.89 292.47" stroke="#263238" stroke-linecap="round" stroke-linejoin="round"/>
<path d="M287.32 231.59C288.71 244.18 290.85 263.74 291.54 271.04C292.024 275.489 293.118 279.849 294.79 284" stroke="#263238" stroke-linecap="round" stroke-linejoin="round"/>
<path d="M286.07 220.33C286.07 220.33 286.4 223.33 286.9 227.84" stroke="#263238" stroke-linecap="round" stroke-linejoin="round"/>
<path d="M328 147.68C325.91 151.25 323.57 154.668 321 157.91C317.34 162.3 303.46 171.31 303.46 171.31C303.46 171.31 303.7 176.19 302.72 177.65C301.74 179.11 298.58 178.14 298.58 178.14C298.58 178.14 296.39 190.07 297.12 198.85C297.85 207.63 302.24 210.05 301.02 212.25C299.8 214.45 292.11 220.25 281.64 216.14C271.17 212.03 265.8 207.85 263.12 201.27C260.44 194.69 269.83 159.62 276.65 148.41C283.47 137.2 299.8 129.89 309.79 131.11C319.78 132.33 337.57 137.69 339.03 141.83C340.49 145.97 328 147.68 328 147.68Z" fill="#263238" stroke="#263238" stroke-linecap="round" stroke-linejoin="round"/>
<path d="M296.79 175C296.79 175 287.39 185.46 285.46 196.75C283.53 208.04 289.33 212.88 291.59 213.85" stroke="#5C5C5C" stroke-linecap="round" stroke-linejoin="round"/>
<path d="M269.05 195.21C268.796 197.365 269.001 199.55 269.65 201.62" stroke="#5C5C5C" stroke-linecap="round" stroke-linejoin="round"/>
<path d="M313 154.28C310.635 156.382 308.111 158.298 305.45 160.01C292.68 168.35 275.62 178.38 270.45 190.09" stroke="#5C5C5C" stroke-linecap="round" stroke-linejoin="round"/>
<path d="M320 141.94C320 141.94 321.08 145.32 316.24 151.01" stroke="#5C5C5C" stroke-linecap="round" stroke-linejoin="round"/>
<path d="M320.55 220C320.55 220 338.39 230.71 342.38 233.44C346.37 236.17 339.65 261.8 340.28 266.84C340.91 271.88 342.8 283.84 340.91 288.9C339.02 293.96 337.97 297.1 337.97 297.1L334.4 320.21C334.4 320.21 340.28 364.54 340.07 365.21C339.86 365.88 319.27 368.57 319.27 368.57C319.27 368.57 323.05 323.57 325.16 314.15C327.27 304.73 334.16 290.83 332.51 275.29C330.86 259.75 320.55 220 320.55 220Z" fill="white" stroke="#263238" stroke-linecap="round" stroke-linejoin="round"/>
<path d="M336.74 275.27C336.477 280.331 335.256 285.295 333.14 289.9" stroke="#263238" stroke-linecap="round" stroke-linejoin="round"/>
<path d="M331 228.6C331 228.6 336.56 258.66 336.84 270.52" stroke="#263238" stroke-linecap="round" stroke-linejoin="round"/>
<path d="M339 261.8C339 261.8 337.72 251.31 336 245.8" stroke="#263238" stroke-linecap="round" stroke-linejoin="round"/>
<path d="M323 176.69C323 178.35 322.2 179.69 321.2 179.69C320.2 179.69 319.4 178.34 319.4 176.69C319.4 175.04 320.2 173.69 321.2 173.69C322.2 173.69 323 175 323 176.69Z" fill="#263238"/>
<path d="M338.29 176.69C338.29 178.35 337.49 179.69 336.49 179.69C335.49 179.69 334.68 178.34 334.68 176.69C334.68 175.04 335.49 173.69 336.49 173.69C337.49 173.69 338.29 175 338.29 176.69Z" fill="#263238"/>
<path d="M315.74 171C317.23 170.018 318.917 169.374 320.683 169.115C322.449 168.856 324.25 168.987 325.96 169.5" stroke="#263238" stroke-linecap="round" stroke-linejoin="round"/>
<path d="M338.59 171C338.077 170.411 337.37 170.026 336.597 169.916C335.824 169.806 335.037 169.978 334.38 170.4C334.38 170.4 331.68 174.01 332.28 176.4" stroke="#263238" stroke-linecap="round" stroke-linejoin="round"/>
<path d="M332.58 190.83L326.86 191.73" stroke="#263238" stroke-linecap="round" stroke-linejoin="round"/>
<path d="M329 195.64C329 195.64 320.58 198.04 315.47 191.73" stroke="#263238" stroke-linecap="round" stroke-linejoin="round"/>
<path d="M319.48 208.23L311.22 205.56L318.44 214.29L319.48 208.23Z" fill="#263238" stroke="#263238" stroke-linecap="round" stroke-linejoin="round"/>
<path d="M468.86 219.76C466.887 222.805 465.447 226.162 464.6 229.69C463.42 235.12 462.24 241.27 462.24 241.27C462.24 241.27 468.15 236.54 468.86 236.27C469.57 236 468.39 230.13 468.39 230.13L472.39 226.82L468.86 219.76Z" fill="#263238" stroke="#263238" stroke-linecap="round" stroke-linejoin="round"/>
<path d="M471.22 140.11C471.22 140.11 465.31 142.24 462.95 146.49C460.59 150.74 454.44 160.67 455.39 163.98C456.34 167.29 456.8 168.71 456.8 168.71C456.8 168.71 448.3 183.6 449.24 185.02C450.391 186.452 451.655 187.79 453.02 189.02C453.02 189.02 456.8 206.74 458.46 207.92C460.12 209.1 464.84 209.81 464.84 209.81L471.69 218.32L509.27 203L509.75 194.73C509.75 194.73 522.51 178.18 524.16 168.73C525.81 159.28 513.76 142.97 500.76 136.59C487.76 130.21 474.06 133.73 471.22 140.11Z" fill="white" stroke="#263238" stroke-linecap="round" stroke-linejoin="round"/>
<path d="M459 173.8C460.622 175.14 462.622 175.94 464.72 176.09" stroke="#263238" stroke-linecap="round" stroke-linejoin="round"/>
<path d="M500.76 136.57C487.76 130.19 474.06 133.73 471.22 140.11C471.22 140.11 472.4 141.06 476.22 140.82C480.04 140.58 488.99 136.82 491.35 140.11C493.71 143.4 484.26 146.26 480.72 151.22C477.18 156.18 478.12 156.42 480.95 160.22C483.78 164.02 484.26 165.66 483.79 167.31C483.32 168.96 482.61 170.38 485.68 170.86C488.75 171.34 489.68 163.77 494.42 166.13C499.16 168.49 499.86 175.58 498.2 180.31C497.794 181.632 497.125 182.858 496.233 183.915C495.341 184.972 494.245 185.838 493.01 186.46C493.01 186.46 493.71 189.53 498.91 192.13C502.319 193.736 506.023 194.622 509.79 194.73C509.79 194.73 522.55 178.18 524.2 168.73C525.85 159.28 513.76 143 500.76 136.57Z" fill="#263238" stroke="#263238" stroke-linecap="round" stroke-linejoin="round"/>
<path d="M509.75 178.91C510.524 180.88 510.825 183.003 510.63 185.11" stroke="#5C5C5C" stroke-linecap="round" stroke-linejoin="round"/>
<path d="M482.87 154.35C482.87 154.35 484.54 157.69 493.87 161.7C499.13 163.96 504.08 168.76 507.23 173.83" stroke="#5C5C5C" stroke-linecap="round" stroke-linejoin="round"/>
<path d="M508.62 164.38C508.62 164.38 516.98 169.38 515.62 179.09" stroke="#5C5C5C" stroke-linecap="round" stroke-linejoin="round"/>
<path d="M463 169.3C463 170.93 462.31 172.3 461.46 172.3C460.61 172.3 459.93 170.97 459.93 169.3C459.93 167.63 460.61 166.3 461.46 166.3C462.31 166.3 463 167.67 463 169.3Z" fill="#263238"/>
<path d="M458 162.8C458 162.8 462.25 157.8 466 163.04" stroke="#263238" stroke-linecap="round" stroke-linejoin="round"/>
<path d="M456.33 189.74C456.33 189.74 462 189.27 465.55 185.74" stroke="#263238" stroke-linecap="round" stroke-linejoin="round"/>
<path d="M493 186.44L490.4 187.14C489.242 190.61 487.298 193.765 484.72 196.36" fill="white"/>
<path d="M493 186.44L490.4 187.14C489.242 190.61 487.298 193.765 484.72 196.36" stroke="#263238" stroke-linecap="round" stroke-linejoin="round"/>
<path d="M510 199.43C510 199.43 473.13 214.8 471.48 216.69C469.83 218.58 468.88 219.76 468.88 219.76L471.71 234.89L514.71 206.52L510 199.43Z" fill="white" stroke="#263238" stroke-linecap="round" stroke-linejoin="round"/>
<path d="M402.77 303.58L404.82 318.63L395.24 320.91C392.603 322.689 389.85 324.289 387 325.7C383.13 327.52 380.39 328.2 379 328.2C377.61 328.2 372.62 326.15 372.62 326.15C372.62 326.15 376.04 307.68 379.92 305.63C383.8 303.58 394.1 300.61 402.77 303.58Z" fill="white" stroke="#263238" stroke-linecap="round" stroke-linejoin="round"/>
<path d="M354.54 309.89C354.54 309.89 372.54 307.22 374.54 306.94C376.54 306.66 381.78 311.03 381.78 311.03C381.78 311.03 391.95 323.63 391.37 324.55C389.91 326.86 388.32 325.55 388.32 325.55L388.2 327.05C388.2 327.05 387.09 328.91 380.13 328.93C373.17 328.95 370.68 327.24 368.97 327.1C367.26 326.96 353.78 323.52 353.78 323.52L354.54 309.89Z" fill="white" stroke="#263238" stroke-linecap="round" stroke-linejoin="round"/>
<path d="M348.5 308.55L355.11 309.74L354.38 324.64L348.37 324.25L348.5 308.55Z" fill="white" stroke="#263238" stroke-linecap="round" stroke-linejoin="round"/>
<path d="M275.21 222.83C275.21 222.83 256.41 221.52 252.47 224.58C248.53 227.64 250.47 268.09 253.79 282.74C257.11 297.39 261.66 320.79 263.79 321.88C265.92 322.97 349.37 326.35 349.37 326.35L350.25 308.2L285.88 294.33L281.29 237.05" fill="white"/>
<path d="M275.21 222.83C275.21 222.83 256.41 221.52 252.47 224.58C248.53 227.64 250.47 268.09 253.79 282.74C257.11 297.39 261.66 320.79 263.79 321.88C265.92 322.97 349.37 326.35 349.37 326.35L350.25 308.2L285.88 294.33L281.29 237.05" stroke="#263238" stroke-linecap="round" stroke-linejoin="round"/>
<path d="M388.37 325.55L385.47 321.47" stroke="#263238" stroke-linecap="round" stroke-linejoin="round"/>
<path d="M386.37 327.91L382.86 323.44" stroke="#263238" stroke-linecap="round" stroke-linejoin="round"/>
<path d="M398 305C398 305 380.9 299.75 377.48 303.4C374.06 307.05 366.76 316.63 368.36 317.77C369.96 318.91 375.65 314.57 377.02 313.66C378.026 312.931 378.946 312.089 379.76 311.15C381.348 312.72 383.323 313.843 385.485 314.405C387.646 314.967 389.918 314.948 392.07 314.35" fill="white"/>
<path d="M398 305C398 305 380.9 299.75 377.48 303.4C374.06 307.05 366.76 316.63 368.36 317.77C369.96 318.91 375.65 314.57 377.02 313.66C378.026 312.931 378.946 312.089 379.76 311.15C381.348 312.72 383.323 313.843 385.485 314.405C387.646 314.967 389.918 314.948 392.07 314.35" stroke="#263238" stroke-linecap="round" stroke-linejoin="round"/>
<path d="M379.17 323C379.17 323 377.55 328.87 378.17 329.86C378.419 330.278 378.799 330.602 379.251 330.782C379.702 330.963 380.201 330.99 380.67 330.86C381.225 330.624 381.731 330.285 382.16 329.86C382.16 329.86 382.41 324.86 381.66 323.63C380.91 322.4 380.29 321.54 379.17 323Z" fill="white" stroke="#263238" stroke-linecap="round" stroke-linejoin="round"/>
<path d="M374.8 323.78C374.8 323.78 373.18 329.64 373.8 330.64C374.047 331.058 374.425 331.383 374.875 331.564C375.325 331.744 375.823 331.771 376.29 331.64C376.85 331.406 377.359 331.066 377.79 330.64C377.79 330.64 378.04 325.64 377.29 324.41C376.54 323.18 375.93 322.29 374.8 323.78Z" fill="white" stroke="#263238" stroke-linecap="round" stroke-linejoin="round"/>
<path d="M370.41 324C370.41 324 369.17 328.5 369.65 329.26C369.839 329.581 370.129 329.83 370.474 329.97C370.82 330.109 371.201 330.13 371.56 330.03C371.991 329.852 372.381 329.59 372.71 329.26C372.71 329.26 372.9 325.44 372.33 324.48C371.76 323.52 371.27 322.85 370.41 324Z" fill="white" stroke="#263238" stroke-linecap="round" stroke-linejoin="round"/>
<path d="M365.24 324.18C365.24 324.18 364.24 327.18 364.64 327.67C364.815 327.89 365.049 328.054 365.316 328.142C365.582 328.231 365.868 328.241 366.14 328.17C366.47 328.057 366.778 327.888 367.05 327.67C367.05 327.67 367.2 325.13 366.75 324.5C366.3 323.87 365.92 323.42 365.24 324.18Z" fill="white" stroke="#263238" stroke-linecap="round" stroke-linejoin="round"/>
<path d="M401.4 301.98L403.68 323.19L411.2 321.82L408.47 300.61L401.4 301.98Z" fill="white" stroke="#263238" stroke-linecap="round" stroke-linejoin="round"/>
<path d="M406.19 299.25L410.75 326.15L441.98 322.05L445.4 291.49L406.19 299.25Z" fill="#4CCB70" stroke="#263238" stroke-linecap="round" stroke-linejoin="round"/>
<path d="M430.71 323.53L441.98 322.05L445.4 291.49L437.17 293.12L430.71 323.53Z" fill="#263238" stroke="#263238" stroke-linecap="round" stroke-linejoin="round"/>
<path d="M525 385L522.45 336C522.45 336 533.17 289 530.89 263C528.61 237 511.05 209.88 511.05 209.88C511.05 209.88 469.78 235.64 465.45 240.2C461.12 244.76 453.38 252.5 451.1 259.8C448.82 267.1 439.93 312 439.93 312C439.93 312 430.58 343.47 427.62 362.4C425.82 373.91 426.04 381.1 426.49 384.98L525 385Z" fill="#4CCB70" stroke="#263238" stroke-linecap="round" stroke-linejoin="round"/>
<path d="M509.5 218.45C512.328 217.303 515.092 216.005 517.78 214.56" stroke="#263238" stroke-linecap="round" stroke-linejoin="round"/>
<path d="M453.38 270.21C456.94 263.77 461.38 256.12 463.38 253.79C467.16 249.54 495.52 224.49 505.92 220" stroke="#263238" stroke-linecap="round" stroke-linejoin="round"/>
<path d="M448.06 280C448.06 280 449.75 276.8 452.06 272.6" stroke="#263238" stroke-linecap="round" stroke-linejoin="round"/>
<path d="M474.28 282.46C474.28 297.12 472.28 311.63 473.28 326.14C468.1 344.8 458.77 361.38 452.06 378.89" stroke="#263238" stroke-linecap="round" stroke-linejoin="round"/>
<path d="M478.08 252.38C478.08 252.38 473.82 258.76 474.29 270.57C474.35 272.02 474.37 274 474.36 276.35" stroke="#263238" stroke-linecap="round" stroke-linejoin="round"/>
<path d="M519.2 259C519.2 259 509.75 331.8 508.8 337.71C508.12 341.94 493.63 365.08 485.45 377.87" stroke="#263238" stroke-linecap="round" stroke-linejoin="round"/>
<path d="M456.74 364.34L437.41 360.98L438.67 355.09L457.58 358.46" stroke="#263238" stroke-linecap="round" stroke-linejoin="round"/>
</svg>
