<svg width="500" height="500" viewBox="0 0 500 500" fill="none" xmlns="http://www.w3.org/2000/svg">
<path d="M62.2598 398.68H436.5" stroke="#263238" stroke-linecap="round" stroke-linejoin="round"/>
<path d="M407.004 57.47V258.72C406.949 261.103 405.988 263.376 404.316 265.074C402.643 266.773 400.386 267.769 398.004 267.86H108.394C103.584 267.86 100.004 263.54 100.004 258.72V57.47C99.9702 56.3488 100.163 55.2322 100.57 54.1869C100.977 53.1416 101.59 52.1889 102.373 51.3855C103.155 50.5821 104.092 49.9445 105.126 49.5106C106.161 49.0767 107.272 48.8555 108.394 48.86H398.004C400.331 48.8352 402.576 49.7222 404.258 51.3312C405.94 52.9403 406.926 55.1437 407.004 57.47Z" fill="#4CCB70"/>
<path opacity="0.1" d="M407.004 82.55V258.72C406.95 261.103 405.988 263.376 404.316 265.074C402.643 266.773 400.386 267.769 398.004 267.86H108.394C103.584 267.86 100.004 263.54 100.004 258.72V190.15C125.484 141.15 186.224 133.21 257.334 161.86C358.004 202.42 400.934 147.37 407.004 82.55Z" fill="white"/>
<path opacity="0.2" d="M205.114 58.56H137.864C133.037 58.56 129.124 62.473 129.124 67.3V134.55C129.124 139.377 133.037 143.29 137.864 143.29H205.114C209.941 143.29 213.854 139.377 213.854 134.55V67.3C213.854 62.473 209.941 58.56 205.114 58.56Z" fill="black"/>
<path d="M216.554 49.26H160.214C156.166 49.26 152.884 52.5418 152.884 56.59V112.93C152.884 116.978 156.166 120.26 160.214 120.26H216.554C220.602 120.26 223.884 116.978 223.884 112.93V56.59C223.884 52.5418 220.602 49.26 216.554 49.26Z" fill="#4CCB70"/>
<path opacity="0.3" d="M216.554 49.26H160.214C156.166 49.26 152.884 52.5418 152.884 56.59V112.93C152.884 116.978 156.166 120.26 160.214 120.26H216.554C220.602 120.26 223.884 116.978 223.884 112.93V56.59C223.884 52.5418 220.602 49.26 216.554 49.26Z" fill="white"/>
<path d="M193.854 76.56V72.27L191.644 72.06C191.354 70.6336 190.794 69.2758 189.994 68.06L191.414 66.34L188.414 63.34L186.704 64.76C185.487 63.9625 184.13 63.4026 182.704 63.11L182.484 60.86H178.194L178.004 63.11C176.578 63.4026 175.221 63.9625 174.004 64.76L172.294 63.34L169.294 66.34L170.714 68.06C169.914 69.2758 169.354 70.6336 169.064 72.06L166.854 72.27V76.56L169.064 76.77C169.357 78.1955 169.917 79.5527 170.714 80.77L169.294 82.49L172.294 85.49L174.004 84.07C175.221 84.8675 176.578 85.4274 178.004 85.72L178.214 87.93H182.504L182.714 85.72C184.14 85.4274 185.497 84.8675 186.714 84.07L188.424 85.49L191.424 82.49L190.004 80.74C190.801 79.5227 191.361 78.1655 191.654 76.74L193.854 76.56ZM180.344 80.23C179.192 80.232 178.065 79.8921 177.107 79.2533C176.148 78.6146 175.401 77.7057 174.959 76.6418C174.517 75.578 174.401 74.4069 174.625 73.277C174.85 72.1471 175.404 71.1092 176.219 70.2946C177.033 69.4801 178.071 68.9256 179.201 68.7014C180.331 68.4771 181.502 68.5932 182.566 69.0349C183.63 69.4767 184.539 70.2242 185.177 71.1828C185.816 72.1414 186.156 73.2681 186.154 74.42C186.151 75.9601 185.538 77.4364 184.449 78.5254C183.36 79.6144 181.884 80.2274 180.344 80.23V80.23Z" fill="white"/>
<path d="M211.254 88.69V85.32L209.524 85.16C209.296 84.0508 208.858 82.9954 208.234 82.05L209.344 80.71L207.004 78.33L205.664 79.44C204.719 78.8165 203.663 78.3787 202.554 78.15L202.394 76.41H199.004L198.844 78.15C197.735 78.3787 196.68 78.8165 195.734 79.44L194.394 78.33L192.004 80.71L193.114 82.05C192.491 82.9954 192.053 84.0508 191.824 85.16L190.094 85.32V88.69L191.824 88.85C192.053 89.9592 192.491 91.0146 193.114 91.96L192.004 93.3L194.384 95.68L195.724 94.57C196.67 95.1935 197.725 95.6313 198.834 95.86L198.994 97.59H202.364L202.524 95.86C203.633 95.6313 204.689 95.1935 205.634 94.57L206.974 95.68L209.354 93.3L208.244 91.96C208.868 91.0146 209.306 89.9592 209.534 88.85L211.254 88.69ZM200.664 91.56C199.762 91.56 198.881 91.2926 198.131 90.7915C197.381 90.2904 196.796 89.5783 196.451 88.745C196.106 87.9118 196.016 86.9949 196.192 86.1104C196.368 85.2258 196.802 84.4133 197.44 83.7756C198.078 83.1379 198.89 82.7036 199.775 82.5276C200.659 82.3517 201.576 82.442 202.409 82.7871C203.243 83.1322 203.955 83.7167 204.456 84.4666C204.957 85.2165 205.224 86.0981 205.224 87C205.224 88.2094 204.744 89.3692 203.889 90.2244C203.033 91.0796 201.874 91.56 200.664 91.56Z" fill="white"/>
<path d="M193.854 98.24V95.41L192.394 95.28C192.204 94.349 191.837 93.463 191.314 92.67L192.244 91.54L190.244 89.54L189.114 90.47C188.319 89.9501 187.434 89.5837 186.504 89.39L186.364 87.93H183.534L183.394 89.39C182.464 89.5837 181.579 89.9501 180.784 90.47L179.654 89.54L177.654 91.54L178.584 92.67C178.061 93.463 177.694 94.349 177.504 95.28L176.044 95.41V98.24L177.504 98.38C177.698 99.3098 178.064 100.195 178.584 100.99L177.654 102.12L179.654 104.12L180.784 103.19C181.58 103.709 182.465 104.078 183.394 104.28L183.534 105.73H186.364L186.504 104.28C187.433 104.078 188.317 103.709 189.114 103.19L190.244 104.12L192.244 102.12L191.314 100.99C191.834 100.195 192.2 99.3098 192.394 98.38L193.854 98.24ZM185.004 100.65C184.246 100.652 183.504 100.429 182.872 100.009C182.241 99.5886 181.749 98.9905 181.457 98.2903C181.166 97.59 181.09 96.8191 181.237 96.0753C181.385 95.3314 181.75 94.648 182.286 94.1118C182.822 93.5756 183.505 93.2106 184.249 93.0631C184.993 92.9157 185.764 92.9923 186.464 93.2835C187.164 93.5746 187.763 94.067 188.183 94.6984C188.603 95.3298 188.826 96.0716 188.824 96.83C188.824 97.8431 188.421 98.8147 187.705 99.5311C186.989 100.248 186.017 100.65 185.004 100.65V100.65Z" fill="white"/>
<path opacity="0.2" d="M219.554 49.26H163.214C159.166 49.26 155.884 52.5418 155.884 56.59V112.93C155.884 116.978 159.166 120.26 163.214 120.26H219.554C223.602 120.26 226.884 116.978 226.884 112.93V56.59C226.884 52.5418 223.602 49.26 219.554 49.26Z" fill="white"/>
<path opacity="0.2" d="M327.254 140.8H265.084C260.621 140.8 257.004 144.418 257.004 148.88V211.05C257.004 215.512 260.621 219.13 265.084 219.13H327.254C331.716 219.13 335.334 215.512 335.334 211.05V148.88C335.334 144.418 331.716 140.8 327.254 140.8Z" fill="black"/>
<path d="M335.544 136.61H283.454C279.715 136.61 276.684 139.641 276.684 143.38V195.47C276.684 199.209 279.715 202.24 283.454 202.24H335.544C339.283 202.24 342.314 199.209 342.314 195.47V143.38C342.314 139.641 339.283 136.61 335.544 136.61Z" fill="#4CCB70"/>
<path opacity="0.2" d="M335.544 136.61H283.454C279.715 136.61 276.684 139.641 276.684 143.38V195.47C276.684 199.209 279.715 202.24 283.454 202.24H335.544C339.283 202.24 342.314 199.209 342.314 195.47V143.38C342.314 139.641 339.283 136.61 335.544 136.61Z" fill="white"/>
<path d="M312.004 179.97C312.004 180.439 311.865 180.898 311.604 181.288C311.343 181.678 310.972 181.981 310.539 182.161C310.105 182.34 309.628 182.386 309.168 182.294C308.708 182.201 308.286 181.975 307.955 181.642C307.624 181.31 307.399 180.887 307.308 180.426C307.218 179.966 307.267 179.489 307.447 179.056C307.628 178.623 307.934 178.254 308.325 177.995C308.716 177.735 309.175 177.598 309.644 177.6C310.271 177.603 310.871 177.854 311.314 178.298C311.756 178.742 312.004 179.343 312.004 179.97V179.97Z" fill="white"/>
<path d="M309.434 156.33C306.343 156.329 303.283 156.936 300.428 158.118C297.572 159.3 294.978 161.034 292.793 163.219C290.607 165.404 288.874 167.999 287.692 170.854C286.51 173.709 285.902 176.77 285.904 179.86H304.694C304.663 179.234 304.764 178.608 304.993 178.024C305.221 177.44 305.571 176.912 306.019 176.473C306.467 176.034 307.003 175.696 307.592 175.48C308.181 175.264 308.808 175.175 309.434 175.22C309.914 175.243 310.389 175.334 310.844 175.49L319.654 165.26L313.434 177.36C313.92 178.102 314.175 178.973 314.164 179.86H333.004C333.004 176.767 332.394 173.704 331.209 170.846C330.024 167.989 328.287 165.393 326.098 163.208C323.909 161.022 321.31 159.29 318.451 158.11C315.591 156.929 312.527 156.325 309.434 156.33Z" fill="white"/>
<path opacity="0.2" d="M338.314 136.61H286.224C282.485 136.61 279.454 139.641 279.454 143.38V195.47C279.454 199.209 282.485 202.24 286.224 202.24H338.314C342.053 202.24 345.084 199.209 345.084 195.47V143.38C345.084 139.641 342.053 136.61 338.314 136.61Z" fill="white"/>
<path opacity="0.2" d="M346.344 78.2H291.794C287.878 78.2 284.704 81.3743 284.704 85.29V139.84C284.704 143.756 287.878 146.93 291.794 146.93H346.344C350.26 146.93 353.434 143.756 353.434 139.84V85.29C353.434 81.3743 350.26 78.2 346.344 78.2Z" fill="black"/>
<path d="M354.784 72.14H309.074C305.793 72.14 303.134 74.7994 303.134 78.08V123.79C303.134 127.071 305.793 129.73 309.074 129.73H354.784C358.064 129.73 360.724 127.071 360.724 123.79V78.08C360.724 74.7994 358.064 72.14 354.784 72.14Z" fill="#4CCB70"/>
<path opacity="0.1" d="M354.784 72.14H309.074C305.793 72.14 303.134 74.7994 303.134 78.08V123.79C303.134 127.071 305.793 129.73 309.074 129.73H354.784C358.064 129.73 360.724 127.071 360.724 123.79V78.08C360.724 74.7994 358.064 72.14 354.784 72.14Z" fill="white"/>
<path d="M348.004 86.75C348.004 86.2487 347.805 85.768 347.45 85.4136C347.096 85.0591 346.615 84.86 346.114 84.86H317.894C317.393 84.86 316.912 85.0591 316.557 85.4136C316.203 85.768 316.004 86.2487 316.004 86.75V92.97C316.004 93.4713 316.203 93.952 316.557 94.3064C316.912 94.6609 317.393 94.86 317.894 94.86H346.114C346.615 94.86 347.096 94.6609 347.45 94.3064C347.805 93.952 348.004 93.4713 348.004 92.97V86.75ZM338.684 90.12H337.064V88.5H338.684V90.12ZM343.014 90.93C342.691 90.932 342.374 90.8378 342.105 90.6595C341.835 90.4811 341.625 90.2267 341.5 89.9284C341.375 89.6302 341.342 89.3016 341.405 88.9845C341.467 88.6674 341.623 88.376 341.851 88.1474C342.08 87.9189 342.371 87.7634 342.688 87.7009C343.006 87.6383 343.334 87.6714 343.632 87.796C343.931 87.9206 344.185 88.1311 344.363 88.4007C344.542 88.6703 344.636 88.9868 344.634 89.31C344.634 89.5236 344.592 89.7351 344.51 89.9323C344.428 90.1295 344.307 90.3085 344.156 90.4591C344.004 90.6096 343.825 90.7287 343.627 90.8096C343.429 90.8904 343.217 90.9313 343.004 90.93H343.014Z" fill="white"/>
<path d="M348.004 97.75C348.004 97.2487 347.805 96.768 347.45 96.4136C347.096 96.0591 346.615 95.86 346.114 95.86H317.894C317.393 95.86 316.912 96.0591 316.557 96.4136C316.203 96.768 316.004 97.2487 316.004 97.75V103.97C316.004 104.471 316.203 104.952 316.557 105.306C316.912 105.661 317.393 105.86 317.894 105.86H346.114C346.615 105.86 347.096 105.661 347.45 105.306C347.805 104.952 348.004 104.471 348.004 103.97V97.75ZM338.684 101.75H337.064V100.13H338.684V101.75ZM343.014 102.56C342.694 102.56 342.38 102.465 342.114 102.287C341.847 102.109 341.64 101.856 341.517 101.56C341.395 101.264 341.363 100.938 341.425 100.624C341.488 100.31 341.642 100.021 341.868 99.7945C342.095 99.5679 342.384 99.4136 342.698 99.3511C343.012 99.2886 343.338 99.3207 343.634 99.4433C343.93 99.5659 344.183 99.7736 344.361 100.04C344.539 100.306 344.634 100.62 344.634 100.94C344.634 101.153 344.592 101.364 344.509 101.561C344.427 101.757 344.307 101.936 344.155 102.086C344.004 102.235 343.824 102.354 343.626 102.433C343.429 102.513 343.217 102.553 343.004 102.55L343.014 102.56Z" fill="white"/>
<path d="M348.004 108.75C348.004 108.249 347.805 107.768 347.45 107.414C347.096 107.059 346.615 106.86 346.114 106.86H317.894C317.393 106.86 316.912 107.059 316.557 107.414C316.203 107.768 316.004 108.249 316.004 108.75V114.97C316.004 115.471 316.203 115.952 316.557 116.306C316.912 116.661 317.393 116.86 317.894 116.86H346.114C346.615 116.86 347.096 116.661 347.45 116.306C347.805 115.952 348.004 115.471 348.004 114.97V108.75ZM338.684 113.37H337.064V111.75H338.684V113.37ZM343.014 114.18C342.694 114.18 342.38 114.085 342.114 113.907C341.847 113.729 341.64 113.476 341.517 113.18C341.395 112.884 341.363 112.558 341.425 112.244C341.488 111.93 341.642 111.641 341.868 111.414C342.095 111.188 342.384 111.034 342.698 110.971C343.012 110.909 343.338 110.941 343.634 111.063C343.93 111.186 344.183 111.394 344.361 111.66C344.539 111.926 344.634 112.24 344.634 112.56C344.634 112.774 344.592 112.985 344.51 113.182C344.428 113.379 344.307 113.558 344.156 113.709C344.004 113.86 343.825 113.979 343.627 114.06C343.429 114.14 343.217 114.181 343.004 114.18H343.014Z" fill="white"/>
<path opacity="0.2" d="M357.224 72.14H311.514C308.234 72.14 305.574 74.7994 305.574 78.08V123.79C305.574 127.071 308.234 129.73 311.514 129.73H357.224C360.505 129.73 363.164 127.071 363.164 123.79V78.08C363.164 74.7994 360.505 72.14 357.224 72.14Z" fill="white"/>
<path opacity="0.2" d="M248.604 131.42H181.354C176.527 131.42 172.614 135.333 172.614 140.16V207.41C172.614 212.237 176.527 216.15 181.354 216.15H248.604C253.431 216.15 257.344 212.237 257.344 207.41V140.16C257.344 135.333 253.431 131.42 248.604 131.42Z" fill="black"/>
<path d="M256.164 125.43H199.824C195.776 125.43 192.494 128.712 192.494 132.76V189.1C192.494 193.148 195.776 196.43 199.824 196.43H256.164C260.212 196.43 263.494 193.148 263.494 189.1V132.76C263.494 128.712 260.212 125.43 256.164 125.43Z" fill="#4CCB70"/>
<path opacity="0.5" d="M256.164 125.43H199.824C195.776 125.43 192.494 128.712 192.494 132.76V189.1C192.494 193.148 195.776 196.43 199.824 196.43H256.164C260.212 196.43 263.494 193.148 263.494 189.1V132.76C263.494 128.712 260.212 125.43 256.164 125.43Z" fill="white"/>
<path d="M208.354 180.42C207.839 179.905 207.43 179.293 207.151 178.619C206.872 177.946 206.728 177.224 206.728 176.495C206.728 175.766 206.872 175.044 207.151 174.371C207.43 173.697 207.839 173.085 208.354 172.57L221.354 159.63C221.643 159.338 221.988 159.106 222.367 158.948C222.746 158.79 223.153 158.708 223.564 158.708C223.975 158.708 224.382 158.79 224.761 158.948C225.141 159.106 225.485 159.338 225.774 159.63L229.194 163.04C229.487 163.33 229.719 163.675 229.877 164.055C230.035 164.435 230.117 164.843 230.117 165.255C230.117 165.667 230.035 166.075 229.877 166.455C229.719 166.835 229.487 167.18 229.194 167.47L216.244 180.42C215.729 180.944 215.115 181.36 214.438 181.644C213.761 181.928 213.034 182.075 212.299 182.075C211.565 182.075 210.837 181.928 210.16 181.644C209.483 181.36 208.869 180.944 208.354 180.42V180.42Z" fill="white"/>
<path d="M232.214 159.11L229.664 156.56L244.294 141.93L247.484 141.29L246.844 144.48L232.214 159.11Z" fill="white"/>
<path d="M230.774 162.5L226.274 157.99C226.176 157.897 226.098 157.784 226.044 157.66C225.99 157.535 225.963 157.401 225.963 157.265C225.963 157.129 225.99 156.995 226.044 156.871C226.098 156.746 226.176 156.633 226.274 156.54V156.54C226.368 156.44 226.481 156.36 226.606 156.306C226.732 156.252 226.867 156.223 227.004 156.223C227.141 156.223 227.276 156.252 227.402 156.306C227.528 156.36 227.641 156.44 227.734 156.54L232.234 161.04C232.334 161.134 232.414 161.247 232.468 161.372C232.523 161.498 232.551 161.633 232.551 161.77C232.551 161.907 232.523 162.042 232.468 162.168C232.414 162.293 232.334 162.406 232.234 162.5C232.141 162.6 232.028 162.68 231.902 162.734C231.776 162.788 231.641 162.817 231.504 162.817C231.367 162.817 231.232 162.788 231.106 162.734C230.981 162.68 230.868 162.6 230.774 162.5V162.5Z" fill="white"/>
<path d="M224.714 153.86L218.544 147.67C219.694 144.58 217.364 140.78 214.834 139.78L214.784 144.54C214.784 145.07 214.573 145.579 214.198 145.954C213.823 146.329 213.315 146.54 212.784 146.54C212.254 146.54 211.745 146.329 211.37 145.954C210.995 145.579 210.784 145.07 210.784 144.54V139.86C209.623 140.33 208.621 141.122 207.895 142.143C207.168 143.163 206.748 144.369 206.684 145.62C206.699 147.097 207.248 148.518 208.23 149.621C209.211 150.724 210.559 151.434 212.024 151.62C213.044 151.777 214.087 151.631 215.024 151.2L221.244 157.44L224.714 153.86Z" fill="white"/>
<path d="M245.254 177.34V182.07C246.415 181.6 247.417 180.808 248.144 179.787C248.87 178.767 249.29 177.561 249.354 176.31C249.364 174.84 248.843 173.415 247.889 172.296C246.934 171.178 245.608 170.441 244.154 170.22C243.198 170.022 242.204 170.119 241.304 170.5L234.844 164.02L231.304 167.56L237.724 173.99C235.864 177.79 238.724 180.99 241.294 181.99V177.29C241.294 176.76 241.505 176.251 241.88 175.876C242.255 175.501 242.764 175.29 243.294 175.29C243.558 175.295 243.818 175.352 244.059 175.458C244.3 175.564 244.518 175.717 244.7 175.907C244.883 176.098 245.025 176.323 245.12 176.568C245.215 176.814 245.261 177.077 245.254 177.34Z" fill="white"/>
<path opacity="0.2" d="M259.164 125.43H202.824C198.776 125.43 195.494 128.712 195.494 132.76V189.1C195.494 193.148 198.776 196.43 202.824 196.43H259.164C263.212 196.43 266.494 193.148 266.494 189.1V132.76C266.494 128.712 263.212 125.43 259.164 125.43Z" fill="white"/>
<path d="M241.254 112.58L309.174 112.58C314.051 112.58 318.004 108.627 318.004 103.75V35.83C318.004 30.9533 314.051 27 309.174 27L241.254 27C236.377 27 232.424 30.9533 232.424 35.83V103.75C232.424 108.627 236.377 112.58 241.254 112.58Z" fill="#4CCB70"/>
<path opacity="0.2" d="M304.274 40.59H223.214C217.393 40.59 212.674 45.3089 212.674 51.13V132.19C212.674 138.011 217.393 142.73 223.214 142.73H304.274C310.095 142.73 314.814 138.011 314.814 132.19V51.13C314.814 45.3089 310.095 40.59 304.274 40.59Z" fill="black"/>
<path opacity="0.5" d="M241.254 112.58L309.174 112.58C314.051 112.58 318.004 108.627 318.004 103.75V35.83C318.004 30.9533 314.051 27 309.174 27L241.254 27C236.377 27 232.424 30.9533 232.424 35.83V103.75C232.424 108.627 236.377 112.58 241.254 112.58Z" fill="white"/>
<path d="M275.184 43.27L249.004 53.55C249.004 53.55 252.314 89.55 275.214 96.3C298.124 89.55 301.434 53.55 301.434 53.55L275.184 43.27ZM274.524 78.13C274.354 78.3539 274.135 78.536 273.883 78.6625C273.632 78.789 273.355 78.8566 273.074 78.86V78.86C272.79 78.8554 272.51 78.7842 272.259 78.6522C272.007 78.5203 271.789 78.3311 271.624 78.1L262.434 65.43C262.294 65.2376 262.193 65.0196 262.138 64.7883C262.082 64.557 262.073 64.3171 262.11 64.0822C262.147 63.8472 262.23 63.6219 262.354 63.4191C262.479 63.2162 262.642 63.0399 262.834 62.9C263.026 62.7601 263.244 62.6595 263.476 62.604C263.707 62.5484 263.947 62.5389 264.182 62.576C264.417 62.6132 264.642 62.6962 264.845 62.8204C265.048 62.9447 265.224 63.1076 265.364 63.3L273.124 73.98L285.804 57.24C286.094 56.859 286.522 56.6082 286.997 56.5426C287.471 56.4771 287.952 56.6019 288.334 56.89C288.709 57.2107 288.952 57.6588 289.017 58.1479C289.081 58.6371 288.963 59.1329 288.684 59.54L274.524 78.13Z" fill="white"/>
<path opacity="0.2" d="M244.864 112.58L312.784 112.58C317.661 112.58 321.614 108.627 321.614 103.75V35.83C321.614 30.9533 317.661 27 312.784 27L244.864 27C239.988 27 236.034 30.9533 236.034 35.83V103.75C236.034 108.627 239.988 112.58 244.864 112.58Z" fill="white"/>
<path d="M234.47 191.7C234.47 191.7 221.67 187.62 211.88 197.7C202.09 207.78 207.25 227.91 207.25 234.98C207.25 242.05 198.25 286.98 198.25 286.98C198.25 286.98 193.89 303.31 205.87 313.66C217.85 324.01 239.99 323.11 249.44 303.19C258.89 283.27 248.87 254.87 248.87 240.19C248.87 225.51 251.05 215.7 247.78 205.09C246.787 201.96 245.061 199.112 242.746 196.783C240.431 194.454 237.594 192.711 234.47 191.7Z" fill="#263238" stroke="#263238" stroke-linecap="round" stroke-linejoin="round"/>
<path d="M230.67 199.33C230.67 199.33 218.33 214.67 210 219" stroke="white" stroke-linecap="round" stroke-linejoin="round"/>
<path d="M220 198C220 198 213.67 213.33 208 217.67" stroke="white" stroke-linecap="round" stroke-linejoin="round"/>
<path d="M255.51 250.73C256.693 251.559 257.686 252.629 258.423 253.87C259.161 255.112 259.627 256.495 259.79 257.93C260.52 263.03 255.08 274.82 253.99 280.65C252.96 287.728 252.296 294.854 252 302C252 303.82 258.2 330.78 259.29 337.34C260.38 343.9 258.74 359.34 257.83 360.47C256.92 361.6 254.37 356.28 254.19 352.82C254.01 349.36 247.27 322.76 244.72 314.75C242.17 306.74 242.89 296.17 242.89 296.17C242.89 296.17 246.36 271.94 246.36 262.65C246.36 253.36 246.64 246.41 246.64 246.41L255.51 250.73Z" fill="#4CCB70" stroke="#263238" stroke-linecap="round" stroke-linejoin="round"/>
<path d="M257.81 360.43C258.72 359.34 260.36 343.85 259.27 337.3C258.18 330.75 252 303.78 252 302C252.3 294.867 252.968 287.754 254 280.69C254.4 278.82 254.914 276.977 255.54 275.17C253.397 276.202 251.048 276.735 248.67 276.73C247.4 276.73 246.16 277.9 244.97 279.89C243.97 288.35 242.88 296.17 242.88 296.17C242.88 296.17 242.16 306.73 244.71 314.75C247.26 322.77 254 349.36 254.18 352.82C254.36 356.28 256.9 361.52 257.81 360.43Z" fill="white" stroke="#263238" stroke-linecap="round" stroke-linejoin="round"/>
<path d="M221.24 398.68C221.64 394.2 222.48 385.08 223.02 381.56C223.75 376.83 225.2 367.17 225.2 367.17L228.89 398.68H254.17C255.08 391.81 257.37 373.39 257.81 360.43C258.36 344.22 246.15 310.7 245.81 308.15C245.47 305.6 246.17 298.15 246.17 295.95C246.17 293.75 252.53 279.79 253.07 272.68C253.61 265.57 255.26 263.39 255.26 263.39L256.17 251.39C255.62 251.21 247.45 244.78 239.25 242.39C234.263 240.975 228.998 240.851 223.95 242.03C223.95 242.03 212.11 247.31 206.1 249.86C200.09 252.41 195.15 257.33 195 263.7C194.85 270.07 206.65 297.22 207.75 299.23C208.85 301.24 205.38 308.33 203.92 311.98C202.46 315.63 196.45 328.74 192.45 343.31C189.02 355.75 191.31 389.18 192.06 398.68H221.24Z" fill="#4CCB70" stroke="#263238" stroke-linecap="round" stroke-linejoin="round"/>
<path d="M226.92 294.2C226.92 294.2 236.26 295.32 245.61 286.35" stroke="#263238" stroke-linecap="round" stroke-linejoin="round"/>
<path d="M233.4 268.08C236.13 267.35 239.6 256.08 239.96 250.23C240.16 246.96 240.36 244.52 240.27 242.72C239.93 242.61 239.58 242.49 239.27 242.39C234.283 240.975 229.018 240.851 223.97 242.03L219.15 244.17C218.748 246.76 219.027 249.411 219.96 251.86C221.93 257.33 230.67 268.81 233.4 268.08Z" fill="white" stroke="#263238" stroke-linecap="round" stroke-linejoin="round"/>
<path d="M221.2 236.44C221.2 236.44 222.12 247.17 222.67 249.8C223.22 252.43 228.75 262.8 231.88 262.23C235.01 261.66 237 248.11 237 246.79C237 245.47 237.37 234.79 237.37 234.79C237.37 234.79 230.78 240.2 221.2 236.44Z" fill="white" stroke="#263238" stroke-linecap="round" stroke-linejoin="round"/>
<path d="M203.16 251.68C203.16 251.68 195.7 252.05 191.51 260.43C187.32 268.81 192.23 274.43 193.87 277.73C195.51 281.03 200.07 294.49 201.52 298.5C202.97 302.51 205.9 307.24 211 313.8C216.1 320.36 226.84 334.38 226.84 334.38L229.76 339.48C229.76 339.48 234.68 345.13 235.22 345.31C235.76 345.49 239.05 349.68 240.32 347.13C241.59 344.58 240.32 335.48 240.32 335.48C240.32 335.48 242.32 339.48 243.06 338.57C243.8 337.66 242.87 335.66 242.15 333.47C241.43 331.28 234.69 327.1 233.22 326.91C231.75 326.72 229.94 324.91 227.76 320.54C225.58 316.17 223.93 308.54 220.47 303.96C217.01 299.38 212.47 292.67 212.47 292.67C212.47 292.67 207.37 274.45 207.37 273.72C207.743 270.318 207.244 266.876 205.92 263.72" fill="#4CCB70"/>
<path d="M203.16 251.68C203.16 251.68 195.7 252.05 191.51 260.43C187.32 268.81 192.23 274.43 193.87 277.73C195.51 281.03 200.07 294.49 201.52 298.5C202.97 302.51 205.9 307.24 211 313.8C216.1 320.36 226.84 334.38 226.84 334.38L229.76 339.48C229.76 339.48 234.68 345.13 235.22 345.31C235.76 345.49 239.05 349.68 240.32 347.13C241.59 344.58 240.32 335.48 240.32 335.48C240.32 335.48 242.32 339.48 243.06 338.57C243.8 337.66 242.87 335.66 242.15 333.47C241.43 331.28 234.69 327.1 233.22 326.91C231.75 326.72 229.94 324.91 227.76 320.54C225.58 316.17 223.93 308.54 220.47 303.96C217.01 299.38 212.47 292.67 212.47 292.67C212.47 292.67 207.37 274.45 207.37 273.72C207.743 270.318 207.244 266.876 205.92 263.72" stroke="#263238" stroke-linecap="round" stroke-linejoin="round"/>
<path d="M233.22 326.91C231.76 326.73 229.94 324.91 227.76 320.54C225.58 316.17 223.93 308.54 220.47 303.96C217.01 299.38 212.47 292.67 212.47 292.67C212.47 292.67 209.02 280.33 207.8 275.56C201.1 274.62 196.68 275.97 193.87 277.69C195.51 280.97 200.07 294.45 201.52 298.46C202.97 302.47 205.9 307.2 211 313.76C216.1 320.32 226.84 334.34 226.84 334.34L229.76 339.44C229.76 339.44 234.68 345.09 235.22 345.27C235.76 345.45 239.05 349.64 240.32 347.09C241.59 344.54 240.32 335.44 240.32 335.44C240.32 335.44 242.32 339.44 243.06 338.53C243.8 337.62 242.87 335.62 242.15 333.43C241.43 331.24 234.69 327.1 233.22 326.91Z" fill="white" stroke="#263238" stroke-linecap="round" stroke-linejoin="round"/>
<path d="M221.24 398.68C221.64 394.2 222.48 385.08 223.02 381.56C223.75 376.83 225.2 367.17 225.2 367.17L228.89 398.68H254.17C255.08 391.81 257.37 373.39 257.81 360.43C258.04 353.68 256.05 343.92 253.63 334.65C232.26 339.33 208.03 335.94 195.45 333.5C194.39 336.63 193.35 339.92 192.45 343.31C189.02 355.75 191.31 389.18 192.06 398.68H221.24Z" fill="#263238" stroke="#263238" stroke-linecap="round" stroke-linejoin="round"/>
<path d="M214.87 220.46C214.87 220.46 213.24 219.73 213.24 223C213.24 226.27 216.87 228.44 216.87 228.44L214.87 220.46Z" fill="white" stroke="#263238" stroke-linecap="round" stroke-linejoin="round"/>
<path d="M233.58 202.5C233.58 202.5 227.76 210.7 222.65 213.98C220.014 215.713 217.279 217.293 214.46 218.71C214.46 218.71 217.01 229.28 218.1 232.71C219.19 236.14 222.46 242.2 229.02 242.56C235.58 242.92 238.5 235.99 239.78 232.71C240.509 231.015 240.899 229.194 240.93 227.35C241.85 226.768 242.636 225.996 243.232 225.085C243.829 224.174 244.224 223.146 244.39 222.07C244.75 218.61 243.84 218.79 243.84 218.79C243.84 218.79 242.84 219.92 240.67 218.22C238.91 216.91 233 207.42 233.58 202.5Z" fill="white" stroke="#263238" stroke-linecap="round" stroke-linejoin="round"/>
<path d="M219.69 223.21C219.69 223.21 222.26 221.33 226.02 223.21" stroke="#263238" stroke-linecap="round" stroke-linejoin="round"/>
<path d="M231.32 223.55C231.32 223.55 234.4 220.81 237.65 223.04" stroke="#263238" stroke-linecap="round" stroke-linejoin="round"/>
<path d="M219.18 219.1C219.18 219.1 220.55 216.54 225.18 217.74" stroke="#263238" stroke-linecap="round" stroke-linejoin="round"/>
<path d="M231.32 217.91C232.367 217.146 233.659 216.793 234.949 216.918C236.24 217.044 237.439 217.639 238.32 218.59" stroke="#263238" stroke-linecap="round" stroke-linejoin="round"/>
<path d="M230.81 229.19C230.81 229.19 228.07 231.07 226.88 229.19" stroke="#263238" stroke-linecap="round" stroke-linejoin="round"/>
<path d="M225.85 233.13C225.85 233.13 229.27 234.49 230.98 232.96" stroke="#263238" stroke-linecap="round" stroke-linejoin="round"/>
<path d="M168.05 331.43C168.05 331.43 176.05 349.19 177.96 352.77C179.87 356.35 182.09 366.54 182.36 372.59C182.63 378.64 182.36 379.89 180.99 379.75C179.62 379.61 179.06 372.04 179.06 370.8V368.88C179.06 368.88 178.37 376.03 177.27 377.41C176.17 378.79 174.65 380.3 174.52 379.48C174.39 378.66 174.79 377.27 175.34 375.21C175.672 373.626 175.766 372.002 175.62 370.39C175.62 370.39 174.79 374.24 172.87 375.62C170.95 377 168.87 377.55 169.56 376.45C170.25 375.35 172.04 374.11 172.45 372.73C172.733 371.466 172.874 370.175 172.87 368.88C172.87 368.88 170.25 373.14 169.15 373.83C168.05 374.52 168.05 373.01 168.74 372.32C169.43 371.63 170.94 366.95 170.94 366.95C170.94 366.95 170.52 366.67 168.6 362.41C166.68 358.15 165.6 350.7 165.02 347.81C164.44 344.92 163.37 341.07 163.37 341.07L152.77 323.31C152.77 323.31 151.94 319.04 155.93 318.31C159.92 317.58 168.05 331.43 168.05 331.43Z" fill="white"/>
<path opacity="0.15" d="M168.05 331.43C168.05 331.43 176.05 349.19 177.96 352.77C179.87 356.35 182.09 366.54 182.36 372.59C182.63 378.64 182.36 379.89 180.99 379.75C179.62 379.61 179.06 372.04 179.06 370.8V368.88C179.06 368.88 178.37 376.03 177.27 377.41C176.17 378.79 174.65 380.3 174.52 379.48C174.39 378.66 174.79 377.27 175.34 375.21C175.672 373.626 175.766 372.002 175.62 370.39C175.62 370.39 174.79 374.24 172.87 375.62C170.95 377 168.87 377.55 169.56 376.45C170.25 375.35 172.04 374.11 172.45 372.73C172.733 371.466 172.874 370.175 172.87 368.88C172.87 368.88 170.25 373.14 169.15 373.83C168.05 374.52 168.05 373.01 168.74 372.32C169.43 371.63 170.94 366.95 170.94 366.95C170.94 366.95 170.52 366.67 168.6 362.41C166.68 358.15 165.6 350.7 165.02 347.81C164.44 344.92 163.37 341.07 163.37 341.07L152.77 323.31C152.77 323.31 151.94 319.04 155.93 318.31C159.92 317.58 168.05 331.43 168.05 331.43Z" fill="black"/>
<path d="M168.05 331.43C168.05 331.43 176.05 349.19 177.96 352.77C179.87 356.35 182.09 366.54 182.36 372.59C182.63 378.64 182.36 379.89 180.99 379.75C179.62 379.61 179.06 372.04 179.06 370.8V368.88C179.06 368.88 178.37 376.03 177.27 377.41C176.17 378.79 174.65 380.3 174.52 379.48C174.39 378.66 174.79 377.27 175.34 375.21C175.672 373.626 175.766 372.002 175.62 370.39C175.62 370.39 174.79 374.24 172.87 375.62C170.95 377 168.87 377.55 169.56 376.45C170.25 375.35 172.04 374.11 172.45 372.73C172.733 371.466 172.874 370.175 172.87 368.88C172.87 368.88 170.25 373.14 169.15 373.83C168.05 374.52 168.05 373.01 168.74 372.32C169.43 371.63 170.94 366.95 170.94 366.95C170.94 366.95 170.52 366.67 168.6 362.41C166.68 358.15 165.6 350.7 165.02 347.81C164.44 344.92 163.37 341.07 163.37 341.07L152.77 323.31C152.77 323.31 151.94 319.04 155.93 318.31C159.92 317.58 168.05 331.43 168.05 331.43Z" stroke="#263238" stroke-linecap="round" stroke-linejoin="round"/>
<path d="M178 358C178 358 179.38 364.75 179.24 367.77C179.1 370.79 179.79 372.32 178.82 372.32C177.85 372.32 177.59 371.63 176.62 368.6C175.982 366.353 175.566 364.049 175.38 361.72C175.38 361.72 171.94 361.72 170.7 356.62" fill="white"/>
<path opacity="0.15" d="M178 358C178 358 179.38 364.75 179.24 367.77C179.1 370.79 179.79 372.32 178.82 372.32C177.85 372.32 177.59 371.63 176.62 368.6C175.982 366.353 175.566 364.049 175.38 361.72C175.38 361.72 171.94 361.72 170.7 356.62" fill="black"/>
<path d="M178 358C178 358 179.38 364.75 179.24 367.77C179.1 370.79 179.79 372.32 178.82 372.32C177.85 372.32 177.59 371.63 176.62 368.6C175.982 366.353 175.566 364.049 175.38 361.72C175.38 361.72 171.94 361.72 170.7 356.62" stroke="#263238" stroke-linecap="round" stroke-linejoin="round"/>
<path d="M116.55 398.68H167.23C167.48 389.2 169.14 327.28 169.64 324.51C170.19 321.51 172.91 293.21 173.18 282.06C173.45 270.91 168.55 254.84 168.55 253.75C168.55 252.66 167.74 245.86 160.12 240.14C152.5 234.42 146.51 234.43 144.88 235.24C144.88 235.24 138.88 239.33 129.36 249.4C119.84 259.47 116.57 267.63 116.57 283.14C116.577 292.527 117.397 301.895 119.02 311.14C119.02 311.14 116.02 359.58 116.02 360.67C116.02 361.76 116.46 392.21 116.55 398.68Z" fill="white" stroke="#263238" stroke-linecap="round" stroke-linejoin="round"/>
<path d="M139.55 289.18C140.626 289.178 141.7 289.118 142.77 289C154.43 287.73 164.57 275.81 171.26 265.51C170.95 264.02 170.64 262.59 170.33 261.28C164.02 271.57 153.82 284.78 142.45 286.02C126.62 287.74 119.45 275.27 117.45 271.24C117.17 272.78 116.96 274.4 116.82 276.11C120.36 281.47 127.51 289.18 139.55 289.18Z" fill="#263238"/>
<path d="M135.75 265.12L138.65 265.89C141.639 255.006 147.513 245.132 155.65 237.31C154.681 236.799 153.679 236.355 152.65 235.98C144.554 244.039 138.725 254.09 135.75 265.12Z" fill="#263238"/>
<path d="M138.6 279.47C139.28 279.12 153.45 271.74 168.41 252.47C168.178 251.262 167.809 250.084 167.31 248.96C152.25 268.96 137.4 276.7 137.24 276.78L138.6 279.47Z" fill="#263238"/>
<path d="M123.81 268.62L126.81 268.17C126.81 268.09 125.94 261 132.92 245.78C131.8 246.89 130.63 248.09 129.39 249.4C128.59 250.24 127.85 251.07 127.14 251.9C123.05 263 123.77 268.32 123.81 268.62Z" fill="#263238"/>
<path d="M148.55 313.07C131.31 315.31 122.55 311.69 118.63 308.91C118.86 310.37 119.02 311.18 119.02 311.18C119.02 311.18 119.02 311.71 118.93 312.67C122.77 314.78 128.93 316.78 138.36 316.78C141.899 316.765 145.433 316.521 148.94 316.05C156.887 315.028 164.526 312.328 171.35 308.13C171.47 306.87 171.58 305.58 171.69 304.27C164.772 308.975 156.846 311.989 148.55 313.07V313.07Z" fill="#263238"/>
<path d="M147.66 331.53C155.585 329.515 163.13 326.225 170 321.79C170.12 320.71 170.26 319.39 170.42 317.88C163.283 322.807 155.336 326.439 146.94 328.61C135.33 331.46 124.06 328.28 118.11 325.99C118.05 326.99 117.98 328.07 117.92 329.15C124.087 331.468 130.612 332.69 137.2 332.76C140.723 332.767 144.235 332.354 147.66 331.53V331.53Z" fill="#263238"/>
<path d="M116.58 351.13C116.51 352.21 116.45 353.23 116.4 354.13C124.131 355.986 132.049 356.949 140 357C149.776 357.106 159.482 355.348 168.6 351.82C168.6 350.72 168.67 349.62 168.7 348.55C148.62 357 127.14 353.7 116.58 351.13Z" fill="#263238"/>
<path d="M149.85 341.23C139.088 343.839 127.822 343.493 117.24 340.23C117.18 341.28 117.11 342.32 117.05 343.35C122.882 345.133 128.951 346.02 135.05 345.98C140.27 345.974 145.474 345.377 150.56 344.2C157.004 342.707 163.229 340.388 169.08 337.3C169.08 336.06 169.17 334.88 169.21 333.78C163.139 337.162 156.622 339.67 149.85 341.23V341.23Z" fill="#263238"/>
<path d="M141.45 299C129.15 299.62 121.2 295.08 116.79 291.34C116.86 292.72 116.95 294.06 117.05 295.34C123.526 299.873 131.277 302.226 139.18 302.06C139.97 302.06 140.78 302.06 141.6 302C153.67 301.39 164.35 296.11 172.98 286.75C173.08 285 173.15 283.4 173.18 282.07V281.87C166.13 290.62 155.9 298.26 141.45 299Z" fill="#263238"/>
<path d="M161.88 241.6C161.33 241.11 160.76 240.6 160.12 240.14C152.5 234.43 146.51 234.43 144.88 235.24C141.704 237.564 138.696 240.111 135.88 242.86C135.594 244.087 135.593 245.363 135.877 246.591C136.161 247.818 136.723 248.964 137.52 249.94C142.69 256.47 159.52 281.51 163.92 276.07C168.32 270.63 167.18 255.66 162.28 242.59C162.16 242.25 162 241.92 161.88 241.6Z" fill="#4CCB70" stroke="#263238" stroke-linecap="round" stroke-linejoin="round"/>
<path d="M146 270.35C146 270.35 160.7 301.65 163.69 306.55C165.008 308.878 166.559 311.066 168.32 313.08C168.32 313.08 181.32 317.45 192.47 321.54C203.62 325.63 223 331 227.07 332.13C231.14 333.26 237.95 333.22 239.07 333.22C240.19 333.22 253.22 336.22 254.07 336.76C254.92 337.3 253.8 338.39 251.89 338.94C249.98 339.49 243.73 340.02 240.73 341.11C237.73 342.2 235.29 341.93 230.94 340.84C227.512 339.786 224.222 338.325 221.14 336.49C221.14 336.49 185.43 334 177 333C168.57 332 159 330.82 155.23 326.47C147.664 317.929 140.682 308.889 134.33 299.41C129.21 291.67 119.84 280.8 123.39 270.95" fill="white"/>
<path d="M146 270.35C146 270.35 160.7 301.65 163.69 306.55C165.008 308.878 166.559 311.066 168.32 313.08C168.32 313.08 181.32 317.45 192.47 321.54C203.62 325.63 223 331 227.07 332.13C231.14 333.26 237.95 333.22 239.07 333.22C240.19 333.22 253.22 336.22 254.07 336.76C254.92 337.3 253.8 338.39 251.89 338.94C249.98 339.49 243.73 340.02 240.73 341.11C237.73 342.2 235.29 341.93 230.94 340.84C227.512 339.786 224.222 338.325 221.14 336.49C221.14 336.49 185.43 334 177 333C168.57 332 159 330.82 155.23 326.47C147.664 317.929 140.682 308.889 134.33 299.41C129.21 291.67 119.84 280.8 123.39 270.95" stroke="#263238" stroke-linecap="round" stroke-linejoin="round"/>
<path d="M239 333.22C237.91 333.22 231.11 333.22 227 332.13C222.89 331.04 203.51 325.62 192.36 321.54C181.21 317.46 168.21 313.08 168.21 313.08C166.449 311.066 164.898 308.878 163.58 306.55C162.35 304.55 159.13 298.02 155.76 291.07C144.91 293.91 139.45 299.07 136.76 303.07C142.443 311.199 148.583 318.998 155.15 326.43C158.96 330.78 168.48 331.87 176.92 332.96C185.36 334.05 221.01 336.5 221.01 336.5C224.092 338.335 227.382 339.796 230.81 340.85C235.16 341.94 237.61 342.21 240.6 341.12C243.59 340.03 249.86 339.49 251.76 338.95C253.66 338.41 254.76 337.31 253.94 336.77C253.12 336.23 240.13 333.22 239 333.22Z" fill="white"/>
<path opacity="0.15" d="M239 333.22C237.91 333.22 231.11 333.22 227 332.13C222.89 331.04 203.51 325.62 192.36 321.54C181.21 317.46 168.21 313.08 168.21 313.08C166.449 311.066 164.898 308.878 163.58 306.55C162.35 304.55 159.13 298.02 155.76 291.07C144.91 293.91 139.45 299.07 136.76 303.07C142.443 311.199 148.583 318.998 155.15 326.43C158.96 330.78 168.48 331.87 176.92 332.96C185.36 334.05 221.01 336.5 221.01 336.5C224.092 338.335 227.382 339.796 230.81 340.85C235.16 341.94 237.61 342.21 240.6 341.12C243.59 340.03 249.86 339.49 251.76 338.95C253.66 338.41 254.76 337.31 253.94 336.77C253.12 336.23 240.13 333.22 239 333.22Z" fill="black"/>
<path d="M239 333.22C237.91 333.22 231.11 333.22 227 332.13C222.89 331.04 203.51 325.62 192.36 321.54C181.21 317.46 168.21 313.08 168.21 313.08C166.449 311.066 164.898 308.878 163.58 306.55C162.35 304.55 159.13 298.02 155.76 291.07C144.91 293.91 139.45 299.07 136.76 303.07C142.443 311.199 148.583 318.998 155.15 326.43C158.96 330.78 168.48 331.87 176.92 332.96C185.36 334.05 221.01 336.5 221.01 336.5C224.092 338.335 227.382 339.796 230.81 340.85C235.16 341.94 237.61 342.21 240.6 341.12C243.59 340.03 249.86 339.49 251.76 338.95C253.66 338.41 254.76 337.31 253.94 336.77C253.12 336.23 240.13 333.22 239 333.22Z" stroke="#263238" stroke-linecap="round" stroke-linejoin="round"/>
<path d="M167.23 398.68C167.35 393.96 167.83 376.13 168.34 359.12C161.131 361.935 153.571 363.751 145.87 364.52C129.87 366.39 120.65 362.52 116.09 359.52C116.09 360.19 116.03 360.61 116.03 360.7C116.03 361.7 116.46 392.2 116.55 398.7L167.23 398.68Z" fill="#4CCB70" stroke="#263238" stroke-linecap="round" stroke-linejoin="round"/>
<path d="M154.48 396.41C152 387 158 375 149.34 368.77" stroke="#263238" stroke-linecap="round" stroke-linejoin="round"/>
<path d="M154.48 374.76L165.62 364.06" stroke="#263238" stroke-linecap="round" stroke-linejoin="round"/>
<path d="M126.55 374.83L126.26 396.41" stroke="#263238" stroke-linecap="round" stroke-linejoin="round"/>
<path d="M126.65 367.06L126.6 371" stroke="#263238" stroke-linecap="round" stroke-linejoin="round"/>
<path d="M171.3 191.36C175.726 192.533 179.638 195.143 182.42 198.78C184.307 201.195 185.586 204.028 186.15 207.04C187.48 215.14 182.92 217.64 184.39 221.32C185.86 225 187.33 226.91 186.15 228.68C184.97 230.45 181.3 230.74 180.71 230.89C180.12 231.04 178.94 237.8 176.59 240.75C174.24 243.7 165.99 240.31 165.99 240.31C165.99 240.31 162.61 246.05 161.58 247.96C160.55 249.87 162.58 261.35 161.13 266.5C159.68 271.65 156.28 266.06 149.8 257.97C143.32 249.88 140.38 243.25 140.68 241.04C140.98 238.83 146.12 233.68 147.01 231.77C147.9 229.86 148.33 228.97 147.89 227.21C147.45 225.45 142.3 218.21 142.3 208.96C142.3 199.71 149.65 190.86 159.37 190.12C163.388 189.856 167.422 190.275 171.3 191.36Z" fill="white"/>
<path opacity="0.15" d="M171.3 191.36C175.726 192.533 179.638 195.143 182.42 198.78C184.307 201.195 185.586 204.028 186.15 207.04C187.48 215.14 182.92 217.64 184.39 221.32C185.86 225 187.33 226.91 186.15 228.68C184.97 230.45 181.3 230.74 180.71 230.89C180.12 231.04 178.94 237.8 176.59 240.75C174.24 243.7 165.99 240.31 165.99 240.31C165.99 240.31 162.61 246.05 161.58 247.96C160.55 249.87 162.58 261.35 161.13 266.5C159.68 271.65 156.28 266.06 149.8 257.97C143.32 249.88 140.38 243.25 140.68 241.04C140.98 238.83 146.12 233.68 147.01 231.77C147.9 229.86 148.33 228.97 147.89 227.21C147.45 225.45 142.3 218.21 142.3 208.96C142.3 199.71 149.65 190.86 159.37 190.12C163.388 189.856 167.422 190.275 171.3 191.36Z" fill="black"/>
<path d="M171.3 191.36C175.726 192.533 179.638 195.143 182.42 198.78C184.307 201.195 185.586 204.028 186.15 207.04C187.48 215.14 182.92 217.64 184.39 221.32C185.86 225 187.33 226.91 186.15 228.68C184.97 230.45 181.3 230.74 180.71 230.89C180.12 231.04 178.94 237.8 176.59 240.75C174.24 243.7 165.99 240.31 165.99 240.31C165.99 240.31 162.61 246.05 161.58 247.96C160.55 249.87 162.58 261.35 161.13 266.5C159.68 271.65 156.28 266.06 149.8 257.97C143.32 249.88 140.38 243.25 140.68 241.04C140.98 238.83 146.12 233.68 147.01 231.77C147.9 229.86 148.33 228.97 147.89 227.21C147.45 225.45 142.3 218.21 142.3 208.96C142.3 199.71 149.65 190.86 159.37 190.12C163.388 189.856 167.422 190.275 171.3 191.36Z" stroke="#263238" stroke-linecap="round" stroke-linejoin="round"/>
<path d="M173.06 198.07C176.6 196.33 179.11 196.38 180.75 196.87C178.145 194.227 174.883 192.325 171.3 191.36C167.422 190.275 163.388 189.856 159.37 190.12C149.65 190.86 142.3 199.69 142.3 208.96C142.3 218.23 147.45 225.44 147.89 227.21C148.048 227.793 148.085 228.402 148 229C155 230.39 157.29 226.89 157.29 226.89C156.48 226.992 155.658 226.927 154.874 226.7C154.09 226.473 153.36 226.089 152.73 225.57C150.66 223.8 150.66 217.03 153.17 213.94C155.68 210.85 158.17 215.12 158.17 217.62C158.17 220.12 159.35 222.18 160.53 221.89C161.71 221.6 161.41 218.8 161.85 217.03C162.29 215.26 167.44 212.62 168.62 211.15C169.8 209.68 168.03 208.35 166.12 206.15C164.21 203.95 165.84 201.6 173.06 198.07Z" fill="#263238" stroke="#263238" stroke-linecap="round" stroke-linejoin="round"/>
<path d="M157 227.35C157 227.35 157 231.48 159.51 234.12" stroke="#263238" stroke-linecap="round" stroke-linejoin="round"/>
<path d="M179.92 219.9C178.675 219.373 177.316 219.17 175.97 219.31" stroke="#263238" stroke-linecap="round" stroke-linejoin="round"/>
<path d="M182.09 216.35C182.09 216.35 179.92 212.6 175.77 215.56" stroke="#263238" stroke-linecap="round" stroke-linejoin="round"/>
<path d="M177 232.93C176.098 233.007 175.197 232.777 174.443 232.275C173.689 231.774 173.127 231.032 172.85 230.17" stroke="#263238" stroke-linecap="round" stroke-linejoin="round"/>
<path d="M148.45 275.63L146.57 271.63C134.48 271.84 127.4 276.35 123.4 280.63C123.832 282.053 124.373 283.441 125.02 284.78C128.17 280.69 134.92 275.34 148.45 275.63Z" fill="#263238"/>
<path d="M152.64 284.42L150.76 280.48C139.53 281.08 131.98 285.22 127.35 289.02C128.05 290.18 128.8 291.32 129.55 292.43C133.82 288.83 141.25 284.63 152.64 284.42Z" fill="#263238"/>
<path d="M282.81 311.14C284.07 314.91 284.91 328.32 284.91 335.45C284.91 341.39 281.11 384.59 279.85 398.68H336.67C337.35 384.93 339.38 343.61 339.38 338.38C339.38 332.09 337.28 306.32 340.01 297.31C342.74 288.3 345.87 264.63 341.01 257.31C336.15 249.99 318.01 245.79 312.52 243.9C307.03 242.01 298.9 240.97 294.92 242.9C294.92 242.9 284.03 248.98 277.32 255.26C270.61 261.54 267.69 271.19 268.94 278.94C270.19 286.69 281.55 307.37 282.81 311.14Z" fill="white" stroke="#263238" stroke-linecap="round" stroke-linejoin="round"/>
<path d="M332.18 250.71C329.731 249.579 327.224 248.578 324.67 247.71C315.42 271.305 300.869 292.456 282.14 309.53C282.45 310.22 282.68 310.78 282.81 311.16C283.44 313.612 283.848 316.115 284.03 318.64C305.426 300.304 321.965 276.971 332.18 250.71Z" fill="#263238"/>
<path d="M343.26 278C343.751 273.006 343.657 267.972 342.98 263C331.31 282.71 311.13 312.77 284.89 336.3C284.82 338.37 284.56 342.41 284.17 347.53C309.71 326.39 329.91 299.06 343.26 278Z" fill="#263238"/>
<path d="M336.67 398.68C337.15 388.89 338.32 365.14 338.95 350.37C311.3 355.66 291.86 350.63 284.14 347.92C282.96 363.49 280.75 388.57 279.85 398.68H336.67Z" fill="#263238" stroke="#263238" stroke-linecap="round" stroke-linejoin="round"/>
<path d="M302.08 267.84C309.668 267.84 315.82 261.89 315.82 254.55C315.82 247.21 309.668 241.26 302.08 241.26C294.491 241.26 288.34 247.21 288.34 254.55C288.34 261.89 294.491 267.84 302.08 267.84Z" fill="#4CCB70" stroke="#263238" stroke-linecap="round" stroke-linejoin="round"/>
<path d="M289.52 237.81C289.52 237.81 291.82 245.98 291.82 250.81C291.82 255.64 297.06 266.74 305.65 261.71C314.24 256.68 309.84 245.16 308.37 241.59C307.327 238.863 306.488 236.062 305.86 233.21C305.86 233.21 303.13 238.21 297.86 238.45C295.064 238.617 292.258 238.401 289.52 237.81Z" fill="white" stroke="#263238" stroke-linecap="round" stroke-linejoin="round"/>
<path d="M275.35 208.15C275.35 208.15 273.9 211.76 275.71 214.65C277.52 217.54 280 221.5 280 221.5L279.64 205.63C279.64 205.63 276.07 202.74 275.35 208.15Z" fill="#263238" stroke="#263238" stroke-linecap="round" stroke-linejoin="round"/>
<path d="M280 217.89C280 217.89 277.11 218.98 278.55 223.66C279.99 228.34 282.16 226.91 282.16 226.91L280 217.89Z" fill="white" stroke="#263238" stroke-linecap="round" stroke-linejoin="round"/>
<path d="M277.36 209.74C277.36 209.74 279.88 222.74 281.36 229.22C282.84 235.7 290.79 241.58 294.98 242.84C299.17 244.1 304.62 239.49 305.88 236.77C307.14 234.05 307.76 227.97 307.76 227.97C307.76 227.97 312.37 226.08 312.76 221.26C313.15 216.44 311.92 214.98 309.41 214.35L307.52 213.51C307.52 213.51 308.57 205.76 305.85 200.94C303.13 196.12 293.49 202.41 288.46 203.87C283.43 205.33 276.73 204.92 277.36 209.74Z" fill="white" stroke="#263238" stroke-linecap="round" stroke-linejoin="round"/>
<path d="M289.52 219.17C289.52 219.17 288.52 226.71 289.93 227.34C291.34 227.97 294.12 226.5 294.75 226.29" stroke="#263238" stroke-linecap="round" stroke-linejoin="round"/>
<path d="M293.5 232C293.5 232 299.36 232.84 301.67 226.13" stroke="#263238" stroke-linecap="round" stroke-linejoin="round"/>
<path d="M282.39 217.49C282.857 216.767 283.516 216.189 284.293 215.82C285.07 215.45 285.935 215.305 286.79 215.4" stroke="#263238" stroke-linecap="round" stroke-linejoin="round"/>
<path d="M292.45 214.35C292.45 214.35 296.64 212.25 299.15 214.56" stroke="#263238" stroke-linecap="round" stroke-linejoin="round"/>
<path d="M286.293 222.931C286.864 222.831 287.166 221.824 286.968 220.682C286.769 219.539 286.145 218.693 285.574 218.793C285.002 218.892 284.7 219.899 284.899 221.041C285.097 222.184 285.721 223.03 286.293 222.931Z" fill="#263238"/>
<path d="M295.515 221.049C296.086 220.95 296.388 219.943 296.19 218.801C295.991 217.658 295.367 216.812 294.796 216.911C294.224 217.011 293.922 218.018 294.121 219.16C294.319 220.303 294.944 221.149 295.515 221.049Z" fill="#263238"/>
<path d="M301.25 204.08C295.69 206.69 289.857 208.675 283.86 210C274.64 211.88 270.45 209.79 270.86 205.18C271.27 200.57 283.22 190.51 294.11 190.51C305 190.51 308.78 195.51 309.41 200.78C309.753 205.313 309.753 209.866 309.41 214.4L307.52 217.12C307.52 217.12 308 215 305 213.3C302 211.6 299.78 208.48 301.25 204.08Z" fill="#263238" stroke="#263238" stroke-linecap="round" stroke-linejoin="round"/>
<path d="M359.56 219.06C361.61 220.63 359.2 227.19 365.96 232.45C381.52 244.55 390.52 252.74 392.18 270.72C394 290.32 383.47 297.94 386.74 304.47C390.01 311 394.36 318.62 387.46 324.47C380.56 330.32 369.32 335.36 359.89 321.57C350.46 307.78 345.37 277.3 341.38 260.57C337.39 243.84 330.86 235.9 331.94 228.64C333 221.64 338.71 216.64 345.54 215.43C348.001 215 350.525 215.102 352.943 215.728C355.361 216.354 357.617 217.49 359.56 219.06Z" fill="#263238" stroke="#263238" stroke-linecap="round" stroke-linejoin="round"/>
<path d="M340.82 288.73L311.74 310C311.74 310 265.17 326.64 262.43 327.49C259.69 328.34 246.63 330.65 243.89 332.12C241.15 333.59 235.89 343.29 235.04 345.61C234.863 345.934 234.796 346.307 234.849 346.673C234.901 347.038 235.071 347.377 235.332 347.638C235.593 347.899 235.932 348.069 236.297 348.121C236.663 348.174 237.036 348.107 237.36 347.93C237.99 347.29 244.1 341.39 246 341.18C247.9 340.97 249.58 340.76 249.58 340.76C249.58 340.76 244.73 344.98 244.52 346.24C244.31 347.5 245.37 347.08 246.63 346.45C247.89 345.82 252.74 344.13 254.63 340.76C256.52 337.39 258.21 335.49 261.37 334.23C264.53 332.97 305.77 324.03 313.15 322.77C320.53 321.51 347.08 305.56 348.35 305.35C349.62 305.14 344.83 288.73 340.82 288.73Z" fill="white" stroke="#263238" stroke-linecap="round" stroke-linejoin="round"/>
<path d="M335.14 315.93C335.4 316.71 334.62 327.68 334.09 346.75C333.69 361.38 330.22 387.38 328.62 398.68H384.21C384.61 387.22 385.11 361.01 381.89 350.14C377.71 336.04 373.01 333.14 371.45 326.9C369.89 320.66 367.53 286.15 363.61 273.09C359.69 260.03 347.94 252.19 346.11 249.32C344.28 246.45 338.53 229.73 338.53 229.73L328.61 238.09C328.61 238.09 335.92 249.84 336.97 253.5C338.02 257.16 329.91 265.77 325.74 274.66C321.57 283.55 320.74 290.59 324.43 296.07C328.12 301.55 334.88 315.14 335.14 315.93Z" fill="#4CCB70"/>
<path d="M343.64 369.6L352.75 371.6L361.86 369.6L370.97 371.6L380.08 369.6L384.3 370.52L384.21 368.46L380.08 367.55L370.97 369.55L361.86 367.55L352.75 369.55L343.64 367.55L334.54 369.55L332.35 369.07C332.28 369.74 332.21 370.4 332.13 371.07L334.54 371.6L343.64 369.6Z" fill="white"/>
<path d="M353.7 301.16L344.59 303.16L335.48 301.16L328.36 302.72L329.36 304.55L335.49 303.21L344.6 305.21L353.71 303.21L362.82 305.21L368.58 303.94C368.5 303.28 368.43 302.61 368.35 301.94L362.82 303.16L353.7 301.16Z" fill="white"/>
<path d="M343.64 384.83L352.75 386.83L361.86 384.83L370.97 386.83L380.08 384.83L384.49 385.83C384.49 385.16 384.49 384.48 384.49 383.83L380.07 382.83L370.96 384.83L361.85 382.83L352.74 384.83L343.63 382.83L334.53 384.83L330.59 383.96C330.51 384.64 330.42 385.3 330.34 385.96L334.53 386.88L343.64 384.83Z" fill="white"/>
<path d="M384.41 391.36L380.08 390.41L370.97 392.41L361.86 390.41L352.75 392.41L343.64 390.41L334.54 392.41L329.63 391.33C329.54 392.01 329.45 392.68 329.37 393.33L334.54 394.46L343.64 392.46L352.75 394.46L361.86 392.46L370.97 394.46L380.08 392.46L384.37 393.41C384.38 392.74 384.4 392.06 384.41 391.36Z" fill="white"/>
<path d="M323.07 281.63L326.37 282.35L335.48 280.35L344.59 282.35L353.7 280.35L362.81 282.35L365.54 281.75C365.42 281.08 365.3 280.42 365.18 279.75L362.81 280.27L353.7 278.27L344.59 280.27L335.48 278.27L326.37 280.27L323.67 279.68C323.45 280.353 323.25 281.003 323.07 281.63Z" fill="white"/>
<path d="M353.7 285.92L344.59 287.92L335.48 285.92L326.37 287.92L322.13 286.99C322.09 287.673 322.09 288.357 322.13 289.04L326.37 289.97L335.48 287.97L344.59 289.97L353.7 287.97L362.81 289.97L366.71 289.11C366.61 288.44 366.52 287.78 366.42 287.11L362.81 287.9L353.7 285.92Z" fill="white"/>
<path d="M353.7 293.54L344.59 295.54L335.48 293.54L326.37 295.54L323.77 294.97C323.97 295.34 324.19 295.71 324.43 296.07C324.67 296.43 324.96 296.88 325.24 297.34L326.37 297.59L335.48 295.59L344.59 297.59L353.7 295.59L362.81 297.59L367.69 296.52C367.61 295.85 367.52 295.19 367.44 294.52L362.81 295.52L353.7 293.54Z" fill="white"/>
<path d="M343.64 377.22L352.75 379.22L361.86 377.22L370.97 379.22L380.08 377.22L384.48 378.22V376.17L380.11 375.17L371 377.17L361.89 375.17L352.78 377.17L343.67 375.17L334.57 377.17L331.57 376.5L331.33 378.5L334.6 379.22L343.64 377.22Z" fill="white"/>
<path d="M335.14 315.93C335.4 316.71 334.62 327.68 334.09 346.75C333.69 361.38 330.22 387.38 328.62 398.68H384.21C384.61 387.22 385.11 361.01 381.89 350.14C377.71 336.04 373.01 333.14 371.45 326.9C369.89 320.66 367.53 286.15 363.61 273.09C359.69 260.03 347.94 252.19 346.11 249.32C344.28 246.45 338.53 229.73 338.53 229.73L328.61 238.09C328.61 238.09 335.92 249.84 336.97 253.5C338.02 257.16 329.91 265.77 325.74 274.66C321.57 283.55 320.74 290.59 324.43 296.07C328.12 301.55 334.88 315.14 335.14 315.93Z" stroke="#263238" stroke-linecap="round" stroke-linejoin="round"/>
<path d="M328.6 299.06C328.6 299.06 331.96 305.79 343.18 303.17" stroke="#263238" stroke-linecap="round" stroke-linejoin="round"/>
<path d="M359.25 342.42C359.25 342.42 342.43 362.98 334.95 379.42" stroke="#263238" stroke-linecap="round" stroke-linejoin="round"/>
<path d="M341.31 359.25C341.31 359.25 334.2 372.33 332.31 380.55" stroke="#263238" stroke-linecap="round" stroke-linejoin="round"/>
<path d="M331.81 272.63C337.24 269.63 344.17 256.63 347.19 254.23L349.25 252.58C348.099 251.599 347.047 250.507 346.11 249.32C344.28 246.45 338.53 229.73 338.53 229.73L328.61 238.09C328.61 238.09 335.92 249.84 336.97 253.5C337.89 256.73 331.68 263.84 327.34 271.57C327.85 273 329.05 274.16 331.81 272.63Z" fill="white" stroke="#263238" stroke-linecap="round" stroke-linejoin="round"/>
<path d="M319.85 209.62C318.692 212.365 318.113 215.32 318.15 218.3C318.33 220.94 318.9 223.03 317.84 225.64C317.22 227.14 315.12 229.05 315.41 230.78C315.67 232.34 319.59 232.87 319.59 232.87C319.59 232.87 323.51 245.14 325.59 245.4C327.67 245.66 332.38 244.4 338.38 239.4C344.38 234.4 337.08 216.4 331.85 211.71C326.62 207.02 322.46 206.48 319.85 209.62Z" fill="white" stroke="#263238" stroke-linecap="round" stroke-linejoin="round"/>
<path d="M321.63 225.99C322.006 225.99 322.31 225.13 322.31 224.07C322.31 223.01 322.006 222.15 321.63 222.15C321.255 222.15 320.95 223.01 320.95 224.07C320.95 225.13 321.255 225.99 321.63 225.99Z" fill="#263238"/>
<path d="M319.82 219.66C319.82 219.66 320.5 216.94 323.22 218.98" stroke="#263238" stroke-linecap="round" stroke-linejoin="round"/>
<path d="M321.18 235.5C321.18 235.5 322.99 235.96 325.03 233.5" stroke="#263238" stroke-linecap="round" stroke-linejoin="round"/>
<path d="M325.6 195.77C325.6 195.77 315.93 196.04 314.36 202.3C312.79 208.56 319.85 214.06 324.81 216.67C329.77 219.28 334.21 223.46 334.21 227.9C334.21 232.34 334.48 237.57 338.13 242.27C341.78 246.97 350.13 250.89 356.68 250.63C363.23 250.37 356.16 235 359.81 224C363.46 213 358.81 202.06 351.45 197.36C344.09 192.66 325.6 195.77 325.6 195.77Z" fill="#263238" stroke="#263238" stroke-linecap="round" stroke-linejoin="round"/>
<path d="M384.64 290.61C384.553 291.98 384.338 293.339 384 294.67" stroke="white" stroke-linecap="round" stroke-linejoin="round"/>
<path d="M323.38 212C325.18 215 328.59 218.2 335 220C349 224 354.33 233.67 354.33 242C354.33 250.33 355 256.33 368.33 263C372.26 264.965 375.704 267.779 378.414 271.238C381.124 274.697 383.032 278.714 384 283" stroke="white" stroke-linecap="round" stroke-linejoin="round"/>
<path d="M321.33 205.33C321.333 205.911 321.389 206.49 321.5 207.06" stroke="white" stroke-linecap="round" stroke-linejoin="round"/>
<path d="M340 205.33C340 205.33 356.67 213.67 356.33 225C355.99 236.33 357 247 367.33 253.33C377.66 259.66 388.33 263.67 392 276.33" stroke="white" stroke-linecap="round" stroke-linejoin="round"/>
<path d="M349.3 266C349.3 266 344.87 267.68 342.56 276.32C340.25 284.96 349.72 300.13 351.2 306.88C352.68 313.63 354.15 323.94 354.15 323.94C354.15 323.94 321.06 350.94 316.22 355.13C311.38 359.32 308.84 362.08 308.84 362.08C308.84 362.08 296.84 372.62 295.78 374.73C294.72 376.84 291.78 387.79 292.83 388.21C293.88 388.63 295.78 384 295.78 383.16C295.78 382.32 297.88 377.68 297.88 377.68C297.88 377.68 296.2 388.4 296.2 389C296.2 389.6 297.88 389 298.09 388.15C298.3 387.3 300.62 378.46 300.62 378.46C300.62 378.46 299.36 388.36 300.2 389.46C301.04 390.56 302.52 383.14 302.52 383.14L304.2 377.24C304.2 377.24 303.78 387.56 304.63 387.98C305.48 388.4 307.37 377.87 307.37 377.87C307.37 377.87 311.16 370.28 312.63 367.75C313.468 366.374 314.108 364.886 314.53 363.33C314.53 363.33 334.13 352.58 346.35 346.68C358.57 340.78 368.9 329.82 370.16 327.93C371.42 326.04 368.68 299.48 366.58 288.1C364.48 276.72 360.05 263 349.3 266Z" fill="white" stroke="#263238" stroke-linecap="round" stroke-linejoin="round"/>
<path d="M280.84 252.42C280.84 252.42 273.3 257.55 267.27 262.42C261.24 267.29 262.14 276.9 262.14 279.01C262.14 281.12 261.84 290.77 261.84 290.77L257.31 300.42C257.31 300.42 250.38 306.76 248.87 308.27C247.36 309.78 238.62 326.96 238.62 326.96L236.51 329.96L248 331.44C252.29 326.657 257.036 322.303 262.17 318.44C269.68 313 276 298 276.31 296.15C277.585 291.097 278.484 285.956 279 280.77" fill="white"/>
<path d="M280.84 252.42C280.84 252.42 273.3 257.55 267.27 262.42C261.24 267.29 262.14 276.9 262.14 279.01C262.14 281.12 261.84 290.77 261.84 290.77L257.31 300.42C257.31 300.42 250.38 306.76 248.87 308.27C247.36 309.78 238.62 326.96 238.62 326.96L236.51 329.96L248 331.44C252.29 326.657 257.036 322.303 262.17 318.44C269.68 313 276 298 276.31 296.15C277.585 291.097 278.484 285.956 279 280.77" stroke="#263238" stroke-linecap="round" stroke-linejoin="round"/>
<path d="M277 292.93C271.93 284.61 265 285.69 261.92 286.73C261.85 288.93 261.8 290.73 261.8 290.73L257.27 300.38C257.27 300.38 250.34 306.72 248.83 308.23C247.32 309.74 238.58 326.92 238.58 326.92L236.47 329.92L248 331.44C252.29 326.657 257.036 322.303 262.17 318.44C269.68 313 276 298 276.31 296.15C276.42 295.54 276.7 294.42 277 292.93Z" fill="white" stroke="#263238" stroke-linecap="round" stroke-linejoin="round"/>
<path d="M242.92 323C242.92 323 235.43 329.12 233.92 331.06C232.41 333 231.23 344.41 231.83 345.24C232.43 346.07 236.62 348.3 238.42 346.35C240.22 344.4 246.81 335 246.81 335C246.81 335 241.81 341.76 245.38 341.38C248.95 341 251 335.5 253.1 333C255.2 330.5 254.9 330.22 253.1 326.61L251.31 323" fill="white"/>
<path d="M242.92 323C242.92 323 235.43 329.12 233.92 331.06C232.41 333 231.23 344.41 231.83 345.24C232.43 346.07 236.62 348.3 238.42 346.35C240.22 344.4 246.81 335 246.81 335C246.81 335 241.81 341.76 245.38 341.38C248.95 341 251 335.5 253.1 333C255.2 330.5 254.9 330.22 253.1 326.61L251.31 323" stroke="#263238" stroke-linecap="round" stroke-linejoin="round"/>
<path d="M231.84 345.23C231.84 345.23 235.65 332.23 237.17 331.23" stroke="#263238" stroke-linecap="round" stroke-linejoin="round"/>
<path d="M233.63 346.18C233.63 346.18 238.05 333.96 240.33 331.43" stroke="#263238" stroke-linecap="round" stroke-linejoin="round"/>
<path d="M236 347.05C236 347.05 240.79 335.05 243.93 332.14" stroke="#263238" stroke-linecap="round" stroke-linejoin="round"/>
<path d="M246.81 335C246.81 335 249.36 332.74 249.75 331.38Z" fill="white"/>
<path d="M246.81 335C246.81 335 249.36 332.74 249.75 331.38" stroke="#263238" stroke-linecap="round" stroke-linejoin="round"/>
</svg>
