<svg width="500" height="500" viewBox="0 0 500 500" fill="none" xmlns="http://www.w3.org/2000/svg">
<path d="M456.55 209.11C407.81 125.63 275.6 155.36 248.6 114.76C234.77 94 219.3 69.87 196.86 57.34C175.47 45.34 150.67 41.13 129.05 42.71C51.84 48.36 19.11 117.44 33.94 193.3C53.74 294.49 143.44 397.86 250 398.58C305.74 399 359 379 400.7 350.87L401.63 350.24C443.33 321.85 493.77 272.84 456.55 209.11Z" fill="#4CCB70"/>
<path opacity="0.7" d="M456.55 209.11C407.81 125.63 275.6 155.36 248.6 114.76C234.77 94 219.3 69.87 196.86 57.34C175.47 45.34 150.67 41.13 129.05 42.71C51.84 48.36 19.11 117.44 33.94 193.3C53.74 294.49 143.44 397.86 250 398.58C305.74 399 359 379 400.7 350.87L401.63 350.24C443.33 321.85 493.77 272.84 456.55 209.11Z" fill="white"/>
<path d="M78.19 215.18H72.77C66.9538 215.18 61.3758 217.49 57.2631 221.603C53.1504 225.716 50.84 231.294 50.84 237.11V357.45C50.84 363.266 53.1504 368.844 57.2631 372.957C61.3758 377.07 66.9538 379.38 72.77 379.38H147.13C152.946 379.38 158.524 377.07 162.637 372.957C166.749 368.844 169.06 363.266 169.06 357.45" stroke="#263238" stroke-width="1.10311" stroke-linecap="round" stroke-linejoin="round" stroke-dasharray="4.41 4.41"/>
<path d="M163 101.63V77.86C163 74.3033 164.411 70.8919 166.923 68.3741C169.435 65.8564 172.843 64.4379 176.4 64.43H273.1C276.662 64.43 280.078 65.8449 282.596 68.3635C285.115 70.8822 286.53 74.2981 286.53 77.86" stroke="#263238" stroke-width="1.10311" stroke-linecap="round" stroke-linejoin="round" stroke-dasharray="4.41 4.41"/>
<path d="M250 472.16C355.774 472.16 441.52 460.179 441.52 445.4C441.52 430.621 355.774 418.64 250 418.64C144.226 418.64 58.48 430.621 58.48 445.4C58.48 460.179 144.226 472.16 250 472.16Z" fill="#4CCB70"/>
<path opacity="0.5" d="M250 472.16C355.774 472.16 441.52 460.179 441.52 445.4C441.52 430.621 355.774 418.64 250 418.64C144.226 418.64 58.48 430.621 58.48 445.4C58.48 460.179 144.226 472.16 250 472.16Z" fill="white"/>
<path d="M430.54 133.52V313.58C430.54 319.466 428.202 325.111 424.041 329.274C419.88 333.437 414.236 335.777 408.35 335.78H91.65C85.7639 335.777 80.1198 333.437 75.9587 329.274C71.7975 325.111 69.46 319.466 69.46 313.58V133.52C69.46 132.99 69.46 132.52 69.53 131.96C69.9198 126.359 72.4195 121.114 76.5247 117.283C80.6299 113.453 86.0352 111.322 91.65 111.32H408.35C413.971 111.322 419.382 113.459 423.488 117.298C427.594 121.137 430.09 126.392 430.47 132C430.52 132.48 430.54 133 430.54 133.52Z" fill="white" stroke="#263238" stroke-width="1.10311" stroke-linecap="round" stroke-linejoin="round"/>
<path d="M80.26 140.28H420.87V306.61C420.87 312.126 418.679 317.417 414.778 321.318C410.877 325.219 405.587 327.41 400.07 327.41H101.07C95.5535 327.41 90.2629 325.219 86.3622 321.318C82.4614 317.417 80.27 312.126 80.27 306.61V140.28H80.26Z" fill="#263238"/>
<path opacity="0.2" d="M420.88 140.28V306.61C420.909 312.096 418.759 317.368 414.901 321.269C411.044 325.169 405.796 327.378 400.31 327.41H100.83C95.3443 327.378 90.0958 325.169 86.2385 321.269C82.3811 317.368 80.2307 312.096 80.2599 306.61V140.28H420.88Z" fill="white"/>
<path d="M430.47 132H69.5299C69.9198 126.399 72.4194 121.154 76.5247 117.323C80.6299 113.493 86.0351 111.362 91.6499 111.36H408.35C413.965 111.362 419.37 113.493 423.475 117.323C427.58 121.154 430.08 126.399 430.47 132V132Z" fill="#4CCB70" stroke="#263238" stroke-width="1.10311" stroke-miterlimit="10"/>
<path d="M113.88 121.64C113.88 122.417 113.65 123.177 113.218 123.823C112.786 124.47 112.172 124.973 111.454 125.271C110.736 125.568 109.946 125.646 109.183 125.495C108.421 125.343 107.721 124.969 107.171 124.419C106.621 123.869 106.247 123.169 106.096 122.407C105.944 121.644 106.022 120.854 106.319 120.136C106.617 119.418 107.12 118.804 107.767 118.372C108.413 117.941 109.173 117.71 109.95 117.71C110.992 117.71 111.992 118.124 112.729 118.861C113.466 119.598 113.88 120.598 113.88 121.64Z" fill="#263238"/>
<path d="M130.5 121.64C130.5 122.417 130.27 123.177 129.838 123.823C129.406 124.47 128.792 124.973 128.074 125.271C127.356 125.568 126.566 125.646 125.803 125.495C125.041 125.343 124.341 124.969 123.791 124.419C123.241 123.869 122.867 123.169 122.716 122.407C122.564 121.644 122.642 120.854 122.939 120.136C123.237 119.418 123.74 118.804 124.387 118.372C125.033 117.941 125.793 117.71 126.57 117.71C127.612 117.71 128.612 118.124 129.349 118.861C130.086 119.598 130.5 120.598 130.5 121.64V121.64Z" fill="#263238"/>
<path d="M143.19 125.57C145.36 125.57 147.12 123.811 147.12 121.64C147.12 119.47 145.36 117.71 143.19 117.71C141.02 117.71 139.26 119.47 139.26 121.64C139.26 123.811 141.02 125.57 143.19 125.57Z" fill="#263238"/>
<path d="M420.87 140.28V306.61C420.87 312.126 418.679 317.417 414.778 321.318C410.877 325.219 405.586 327.41 400.07 327.41H101.07C96.2553 327.409 91.59 325.738 87.8699 322.682C84.1497 319.625 81.6051 315.373 80.6699 310.65V310.59C80.4157 309.272 80.2885 307.932 80.2899 306.59V140.28H420.87Z" stroke="#263238" stroke-width="1.10311" stroke-miterlimit="10"/>
<path d="M420.55 166C419.092 165.181 417.541 164.54 415.93 164.09L414.06 155.74H406.12L404.27 164.09C402.65 164.532 401.091 165.173 399.63 166L392.46 161.41L386.85 167L391.36 174.17C390.534 175.632 389.893 177.19 389.45 178.81L381.1 180.66V188.6L389.45 190.47C389.888 192.098 390.529 193.663 391.36 195.13L386.77 202.35L392.39 207.96L399.6 203.37C401.058 204.198 402.614 204.843 404.23 205.29L406.09 213.63H414L415.86 205.29C417.472 204.838 419.023 204.194 420.48 203.37L420.85 203.61V165.8L420.55 166ZM410.11 195C408.08 195 406.096 194.398 404.409 193.27C402.721 192.142 401.406 190.539 400.63 188.664C399.854 186.789 399.651 184.725 400.048 182.735C400.445 180.744 401.423 178.916 402.859 177.482C404.294 176.047 406.124 175.071 408.114 174.676C410.105 174.281 412.169 174.486 414.043 175.264C415.918 176.042 417.52 177.359 418.646 179.047C419.772 180.736 420.372 182.72 420.37 184.75C420.37 186.097 420.105 187.431 419.589 188.675C419.073 189.919 418.317 191.049 417.364 192.001C416.411 192.953 415.28 193.708 414.036 194.223C412.791 194.737 411.457 195.001 410.11 195V195Z" fill="#263238"/>
<path d="M277.45 174.05V157.31L259.85 153.4C258.9 149.999 257.558 146.72 255.85 143.63L257.98 140.28H174.88L176.93 143.54C175.201 146.617 173.858 149.895 172.93 153.3L155.32 157.22V174L172.93 177.93C173.858 181.361 175.201 184.665 176.93 187.77L167.26 202.98L179.11 214.82L194.31 205.14C197.394 206.875 200.673 208.234 204.08 209.19L208 226.74H224.7L228.64 209.15C232.035 208.19 235.305 206.83 238.38 205.1L253.59 214.78L265.43 202.94L255.82 187.73C257.523 184.644 258.866 181.373 259.82 177.98L277.45 174.05ZM216.45 187.31C212.172 187.31 207.99 186.041 204.433 183.665C200.876 181.288 198.104 177.91 196.466 173.957C194.829 170.005 194.401 165.656 195.236 161.46C196.07 157.264 198.13 153.41 201.155 150.385C204.18 147.36 208.034 145.3 212.23 144.466C216.426 143.631 220.775 144.059 224.727 145.696C228.68 147.334 232.058 150.106 234.435 153.663C236.811 157.22 238.08 161.402 238.08 165.68C238.081 168.521 237.523 171.334 236.436 173.959C235.35 176.584 233.756 178.969 231.748 180.978C229.739 182.986 227.354 184.58 224.729 185.666C222.104 186.753 219.291 187.311 216.45 187.31V187.31Z" fill="#263238"/>
<path d="M166.38 289L167.09 275.71L153.32 271.83C152.681 269.099 151.735 266.449 150.5 263.93L158.82 252.25L149.9 242.36L137.44 249.36C135.058 247.862 132.511 246.643 129.85 245.73L127.47 231.61L114.19 231L110.35 244.81C107.614 245.424 104.962 246.364 102.45 247.61L90.78 239.3L80.87 248.21L87.93 260.68C86.4165 263.051 85.1943 265.596 84.29 268.26L80.29 268.92V286.92L83.21 287.74C83.8158 290.48 84.7527 293.136 86 295.65L80.26 303.7L80.64 310.59V310.65L86.57 317.22L99.05 310.17C101.428 311.699 103.983 312.932 106.66 313.84L109 327.4L109.11 327.97L122.39 328.67L122.74 327.4L126.23 314.87C128.978 314.255 131.644 313.315 134.17 312.07L145.82 320.37L155.72 311.47L148.72 298.99C150.219 296.622 151.425 294.08 152.31 291.42L166.38 289ZM131.11 268.25C128.835 265.72 125.861 263.921 122.564 263.081C119.267 262.242 115.794 262.399 112.586 263.533C109.378 264.667 106.579 266.727 104.542 269.452C102.505 272.178 101.322 275.446 101.143 278.844C100.964 282.242 101.797 285.616 103.536 288.541C105.275 291.465 107.842 293.808 110.913 295.273C113.984 296.738 117.42 297.26 120.788 296.771C124.155 296.283 127.302 294.807 129.83 292.53C133.206 289.48 135.236 285.217 135.476 280.674C135.715 276.131 134.146 271.678 131.11 268.29V268.25Z" fill="#263238"/>
<path d="M272.6 269.19C273.114 267.132 273.386 265.021 273.41 262.9L282.96 257.9L280.32 248.21L269.54 248.71C268.448 246.899 267.15 245.221 265.67 243.71L268.86 233.4L260.16 228.4L252.88 236.34C250.826 235.844 248.723 235.576 246.61 235.54L241.61 225.99L231.93 228.62L232.44 239.41C230.629 240.502 228.951 241.8 227.44 243.28L217.12 240.09L212.12 248.78L220.12 256.05C219.603 258.1 219.337 260.206 219.33 262.32L209.76 267.32L212.4 277L223.2 276.49C224.27 278.31 225.564 279.99 227.05 281.49L223.84 291.75L232.55 296.75L239.79 288.87C241.847 289.388 243.959 289.653 246.08 289.66L251.08 299.22L260.76 296.59L260.33 287.37L260.26 285.79C262.097 284.709 263.796 283.409 265.32 281.92L275.63 285.12L279.89 277.68L280.61 276.42L272.6 269.19ZM249.73 275.07C247.248 275.755 244.618 275.687 242.174 274.874C239.731 274.062 237.583 272.543 236.004 270.509C234.425 268.474 233.486 266.017 233.306 263.448C233.125 260.88 233.712 258.315 234.991 256.08C236.27 253.845 238.184 252.041 240.49 250.895C242.797 249.75 245.391 249.315 247.945 249.646C250.498 249.977 252.896 251.059 254.834 252.754C256.772 254.45 258.163 256.683 258.83 259.17C259.719 262.485 259.261 266.017 257.557 268.995C255.852 271.974 253.038 274.158 249.73 275.07V275.07Z" fill="#263238"/>
<path d="M383.32 286.23L385.52 272.93L372.06 267.52C371.754 264.685 371.106 261.898 370.13 259.22L379.82 248.43L371.98 237.43L358.62 243.1C356.402 241.322 353.978 239.818 351.4 238.62L350.62 224.13L337.32 221.93L331.87 235.33C329.048 235.662 326.273 236.316 323.6 237.28L312.78 227.59L301.83 235.43L307.51 248.78C305.947 250.731 304.589 252.839 303.46 255.07C303.31 255.38 303.15 255.69 303.01 256L288.53 256.8L286.32 270.08L288.5 270.96L299.78 275.51C300.088 278.331 300.736 281.105 301.71 283.77L292 294.63L299.85 305.63L313.2 299.93C315.411 301.724 317.832 303.242 320.41 304.45L321.16 318.87L334.45 321.07L339.89 307.77C342.718 307.461 345.499 306.81 348.17 305.83L358.97 315.52L369.97 307.67L364.29 294.31C366.099 292.09 367.628 289.655 368.84 287.06L383.32 286.23ZM346.02 285.63C343.222 287.637 339.892 288.77 336.45 288.885C333.008 288.999 329.61 288.091 326.684 286.273C323.759 284.456 321.438 281.813 320.016 278.677C318.593 275.541 318.132 272.053 318.692 268.655C319.252 265.257 320.806 262.102 323.159 259.588C325.512 257.073 328.558 255.313 331.912 254.53C335.265 253.747 338.776 253.976 341.999 255.188C345.222 256.401 348.013 258.541 350.02 261.34C352.708 265.094 353.794 269.762 353.04 274.318C352.286 278.873 349.754 282.942 346 285.63H346.02Z" fill="#263238"/>
<path d="M203.08 187.77H98.5C91.2596 187.77 85.39 193.64 85.39 200.88V345.67C85.39 352.91 91.2596 358.78 98.5 358.78H203.08C210.32 358.78 216.19 352.91 216.19 345.67V200.88C216.19 193.64 210.32 187.77 203.08 187.77Z" fill="#4CCB70" stroke="#263238" stroke-width="1.10311" stroke-miterlimit="10"/>
<path opacity="0.2" d="M203.08 187.77H98.5C91.2596 187.77 85.39 193.64 85.39 200.88V345.67C85.39 352.91 91.2596 358.78 98.5 358.78H203.08C210.32 358.78 216.19 352.91 216.19 345.67V200.88C216.19 193.64 210.32 187.77 203.08 187.77Z" fill="black"/>
<path d="M228.36 213.8V358.59C228.361 360.312 228.023 362.018 227.365 363.61C226.707 365.202 225.741 366.648 224.524 367.867C223.306 369.085 221.861 370.052 220.269 370.711C218.678 371.371 216.973 371.71 215.25 371.71H110.67C108.948 371.709 107.244 371.368 105.654 370.708C104.064 370.048 102.619 369.081 101.403 367.863C100.186 366.645 99.2218 365.199 98.5642 363.608C97.9066 362.017 97.5688 360.312 97.5701 358.59V213.8C97.5701 210.325 98.9499 206.992 101.406 204.533C103.863 202.075 107.195 200.693 110.67 200.69H215.25C218.727 200.69 222.062 202.071 224.52 204.53C226.979 206.988 228.36 210.323 228.36 213.8Z" fill="white" stroke="#263238" stroke-width="1.10311" stroke-linecap="round" stroke-linejoin="round"/>
<path d="M228.36 213.8V221.55H97.5701V213.8C97.5701 210.325 98.9499 206.992 101.406 204.533C103.863 202.075 107.195 200.693 110.67 200.69H215.25C218.727 200.69 222.062 202.071 224.52 204.53C226.979 206.988 228.36 210.323 228.36 213.8Z" fill="#4CCB70" stroke="#263238" stroke-width="1.10311" stroke-miterlimit="10"/>
<path d="M142.05 230.53H109.87V235.93H142.05V230.53Z" fill="#4CCB70"/>
<path d="M142.05 278.92H109.87V284.32H142.05V278.92Z" fill="#4CCB70"/>
<path d="M142.05 322.8H109.87V328.2H142.05V322.8Z" fill="#4CCB70"/>
<path d="M201.26 243.9H109.87V247.86H201.26V243.9Z" fill="#263238"/>
<path d="M184.78 251.47H109.87V255.33H184.78V251.47Z" fill="#263238"/>
<path d="M194.59 258.92H109.87V262.78H194.59V258.92Z" fill="#263238"/>
<path d="M194.59 266.36H109.87V270.22H194.59V266.36Z" fill="#263238"/>
<path d="M201.26 287.78H109.87V291.74H201.26V287.78Z" fill="#263238"/>
<path d="M184.78 295.35H109.87V299.21H184.78V295.35Z" fill="#263238"/>
<path d="M194.59 302.8H109.87V306.66H194.59V302.8Z" fill="#263238"/>
<path d="M201.26 335.96H109.87V339.92H201.26V335.96Z" fill="#263238"/>
<path d="M184.78 343.54H109.87V347.4H184.78V343.54Z" fill="#263238"/>
<path d="M194.59 350.99H109.87V354.85H194.59V350.99Z" fill="#263238"/>
<path d="M375.77 100.29V158.81C375.77 160.863 375.365 162.897 374.579 164.794C373.793 166.691 372.641 168.414 371.188 169.866C369.736 171.317 368.012 172.468 366.114 173.253C364.217 174.038 362.183 174.441 360.13 174.44H225.35C223.297 174.441 221.263 174.038 219.366 173.253C217.468 172.468 215.744 171.317 214.291 169.866C212.839 168.414 211.687 166.691 210.901 164.794C210.115 162.897 209.71 160.863 209.71 158.81V100.29C209.713 96.1428 211.361 92.1663 214.294 89.2338C217.226 86.3013 221.203 84.6526 225.35 84.65H360.13C364.278 84.65 368.256 86.2978 371.189 89.2308C374.122 92.1639 375.77 96.142 375.77 100.29Z" fill="white" stroke="#222221" stroke-width="1.10311" stroke-miterlimit="10"/>
<path d="M375.77 100.29V101.63H209.71V100.29C209.713 96.1428 211.361 92.1663 214.294 89.2338C217.226 86.3013 221.203 84.6526 225.35 84.65H360.13C364.278 84.65 368.256 86.2978 371.189 89.2308C374.122 92.1639 375.77 96.142 375.77 100.29Z" fill="#4CCB70" stroke="#263238" stroke-width="1.10311" stroke-miterlimit="10"/>
<path d="M234.11 95.94C233.775 96.2762 233.347 96.5054 232.881 96.5984C232.415 96.6915 231.933 96.6443 231.494 96.4628C231.055 96.2814 230.68 95.9737 230.416 95.5789C230.152 95.1841 230.011 94.7199 230.011 94.245C230.011 93.7701 230.152 93.3058 230.416 92.911C230.68 92.5162 231.055 92.2086 231.494 92.0271C231.933 91.8456 232.415 91.7984 232.881 91.8915C233.347 91.9846 233.775 92.2137 234.11 92.55C234.556 93.0012 234.807 93.6103 234.807 94.245C234.807 94.8797 234.556 95.4888 234.11 95.94V95.94Z" fill="#263238"/>
<path d="M245.23 95.94C244.895 96.2762 244.467 96.5054 244.001 96.5984C243.536 96.6915 243.053 96.6443 242.614 96.4628C242.175 96.2814 241.8 95.9737 241.536 95.5789C241.272 95.1841 241.131 94.7199 241.131 94.245C241.131 93.7701 241.272 93.3058 241.536 92.911C241.8 92.5162 242.175 92.2086 242.614 92.0271C243.053 91.8456 243.536 91.7984 244.001 91.8915C244.467 91.9846 244.895 92.2137 245.23 92.55C245.676 93.0012 245.927 93.6103 245.927 94.245C245.927 94.8797 245.676 95.4888 245.23 95.94V95.94Z" fill="#263238"/>
<path d="M256.35 95.94C256.015 96.2762 255.587 96.5054 255.121 96.5984C254.656 96.6915 254.173 96.6443 253.734 96.4628C253.295 96.2814 252.92 95.9737 252.656 95.5789C252.392 95.1841 252.251 94.7199 252.251 94.245C252.251 93.7701 252.392 93.3058 252.656 92.911C252.92 92.5162 253.295 92.2086 253.734 92.0271C254.173 91.8456 254.656 91.7984 255.121 91.8915C255.587 91.9846 256.015 92.2137 256.35 92.55C256.796 93.0012 257.047 93.6103 257.047 94.245C257.047 94.8797 256.796 95.4888 256.35 95.94Z" fill="#263238"/>
<path d="M274.58 112.39H220.3V159.31H274.58V112.39Z" stroke="#263238" stroke-width="1.10311" stroke-linecap="round" stroke-linejoin="round" stroke-dasharray="4.41 4.41"/>
<path d="M345.43 112.39H282.96V115.69H345.43V112.39Z" fill="#263238"/>
<path d="M330.88 119.22H282.96V122.51H330.88V119.22Z" fill="#263238"/>
<path d="M354.31 126.02H282.96V129.35H354.31V126.02Z" fill="#263238"/>
<path d="M343.72 132.65H282.96V135.98H343.72V132.65Z" fill="#263238"/>
<path d="M380.31 245.53H349.76C346.154 245.53 343.23 248.454 343.23 252.06V269.99C343.23 273.596 346.154 276.52 349.76 276.52H380.31C383.916 276.52 386.84 273.596 386.84 269.99V252.06C386.84 248.454 383.916 245.53 380.31 245.53Z" fill="white" stroke="#263238" stroke-width="1.10311" stroke-linecap="round" stroke-linejoin="round"/>
<path d="M357.3 254.85L348.91 260.11L356.7 267.01" stroke="#263238" stroke-width="1.10311" stroke-linecap="round" stroke-linejoin="round"/>
<path d="M372.58 267.51L380.12 261.09L371.42 255.39" stroke="#263238" stroke-width="1.10311" stroke-linecap="round" stroke-linejoin="round"/>
<path d="M361.38 271.47L367.57 252.05" stroke="#263238" stroke-width="1.10311" stroke-linecap="round" stroke-linejoin="round"/>
<path d="M324.41 457.36L264.08 457.08C262.354 457.076 260.645 456.731 259.052 456.065C257.459 455.399 256.013 454.425 254.798 453.198C253.582 451.971 252.621 450.517 251.969 448.918C251.318 447.319 250.988 445.607 251 443.88L251.64 293.05C251.649 291.326 251.998 289.621 252.667 288.032C253.335 286.443 254.31 285.002 255.536 283.79C256.762 282.578 258.215 281.619 259.811 280.969C261.408 280.319 263.117 279.99 264.84 280L325.17 280.27C328.65 280.283 331.982 281.676 334.436 284.144C336.89 286.611 338.266 289.95 338.26 293.43L337.62 444.27C337.615 445.998 337.269 447.707 336.602 449.301C335.935 450.895 334.959 452.341 333.732 453.557C332.505 454.773 331.05 455.735 329.45 456.388C327.851 457.04 326.138 457.371 324.41 457.36V457.36Z" fill="#455A64"/>
<path d="M325.09 285.52H313.39C313.01 285.525 312.634 285.606 312.285 285.756C311.936 285.907 311.62 286.125 311.355 286.398C311.09 286.672 310.882 286.994 310.742 287.348C310.602 287.702 310.534 288.08 310.54 288.46V290.58C310.548 291.348 310.254 292.088 309.721 292.64C309.187 293.192 308.458 293.512 307.69 293.53L284.88 293.42C284.497 293.411 284.12 293.326 283.77 293.17C283.42 293.014 283.105 292.79 282.842 292.51C282.58 292.231 282.376 291.903 282.241 291.544C282.107 291.185 282.046 290.803 282.06 290.42V288.28C282.074 287.898 282.011 287.516 281.876 287.158C281.742 286.8 281.537 286.472 281.275 286.193C281.013 285.914 280.698 285.69 280.349 285.533C280 285.377 279.623 285.291 279.24 285.28H275.12H264.88C263.673 285.274 262.477 285.505 261.36 285.961C260.242 286.416 259.225 287.088 258.367 287.937C257.509 288.785 256.827 289.795 256.359 290.907C255.891 292.02 255.647 293.213 255.64 294.42L255.01 441.65C255.005 444.088 255.968 446.429 257.687 448.158C259.407 449.887 261.742 450.862 264.18 450.87L324.39 451.15C326.828 451.161 329.17 450.205 330.904 448.492C332.638 446.778 333.622 444.448 333.64 442.01L334.26 294.78C334.27 293.569 334.039 292.368 333.583 291.246C333.126 290.125 332.453 289.104 331.601 288.244C330.748 287.383 329.734 286.7 328.617 286.232C327.5 285.765 326.301 285.523 325.09 285.52V285.52Z" fill="white"/>
<path d="M324.1 385.7H264.52V389.69H324.1V385.7Z" fill="#455A64"/>
<path d="M321.98 401.39C321.98 401.53 309.26 401.65 293.58 401.65C277.9 401.65 265.17 401.53 265.17 401.39C265.17 401.25 277.89 401.13 293.58 401.13C309.27 401.13 321.98 401.25 321.98 401.39Z" fill="#455A64"/>
<path d="M321.98 306.88C321.98 307.03 309.26 307.14 293.58 307.14C277.9 307.14 265.17 307.03 265.17 306.88C265.17 306.73 277.89 306.62 293.58 306.62C309.27 306.62 321.98 306.71 321.98 306.88Z" fill="#455A64"/>
<path d="M321.98 408.65C321.98 408.79 309.26 408.91 293.58 408.91C277.9 408.91 265.17 408.79 265.17 408.65C265.17 408.51 277.89 408.39 293.58 408.39C309.27 408.39 321.98 408.5 321.98 408.65Z" fill="#455A64"/>
<path d="M321.98 415.88C321.98 416.02 309.26 416.14 293.58 416.14C277.9 416.14 265.17 416.02 265.17 415.88C265.17 415.74 277.89 415.62 293.58 415.62C309.27 415.62 321.98 415.76 321.98 415.88Z" fill="#455A64"/>
<path d="M321.98 423.16C321.98 423.3 309.26 423.42 293.58 423.42C277.9 423.42 265.17 423.3 265.17 423.16C265.17 423.02 277.89 422.9 293.58 422.9C309.27 422.9 321.98 423.01 321.98 423.16Z" fill="#455A64"/>
<path d="M321.98 430.41C321.98 430.56 309.26 430.67 293.58 430.67C277.9 430.67 265.17 430.56 265.17 430.41C265.17 430.26 277.89 430.15 293.58 430.15C309.27 430.15 321.98 430.27 321.98 430.41Z" fill="#455A64"/>
<path d="M322.79 438.64C322.79 438.78 310.07 438.9 294.39 438.9C278.71 438.9 265.98 438.78 265.98 438.64C265.98 438.5 278.7 438.38 294.39 438.38C310.08 438.38 322.79 438.49 322.79 438.64Z" fill="#455A64"/>
<path d="M324.9 315.13H265.17V372.92H324.9V315.13Z" fill="#E0E0E0"/>
<path d="M269.8 367.97L286.33 338.23L299.84 357.24L308.05 347.14L320.27 367.97H269.8Z" fill="#63AB52"/>
<path d="M305.6 332.45C305.6 333.301 305.348 334.132 304.876 334.839C304.403 335.546 303.732 336.097 302.946 336.423C302.16 336.748 301.295 336.834 300.461 336.668C299.627 336.502 298.861 336.092 298.26 335.491C297.658 334.889 297.249 334.123 297.083 333.289C296.917 332.455 297.002 331.59 297.328 330.805C297.653 330.019 298.204 329.347 298.911 328.875C299.618 328.402 300.45 328.15 301.3 328.15C302.44 328.153 303.532 328.607 304.338 329.413C305.144 330.218 305.598 331.311 305.6 332.45Z" fill="#63AB52"/>
<path d="M320.27 368.13C320.27 368.13 320.27 368.05 320.27 367.89C320.27 367.73 320.27 367.5 320.27 367.22C320.27 366.6 320.27 365.74 320.27 364.62C320.27 362.33 320.27 359.01 320.2 354.8C320.2 346.36 320.13 334.34 320.08 319.91L320.32 320.15H269.86C269.79 320.21 270.39 319.61 270.14 319.87V332.87C270.14 337.12 270.14 341.28 270.14 345.32C270.14 353.42 270.14 361.07 270.14 368.11L269.89 367.86L306.38 367.99L316.68 368.05H319.41H320.11H320.36H320.14H319.46H316.78L306.54 368.11L269.89 368.24H269.64V367.99C269.64 360.99 269.64 353.3 269.64 345.2C269.64 341.2 269.64 337 269.64 332.75V319.75C269.38 320 269.98 319.39 269.93 319.46H320.39H320.49V319.88C320.43 334.38 320.39 346.45 320.36 354.93C320.36 359.11 320.36 362.41 320.3 364.69C320.3 365.79 320.3 366.64 320.3 367.24C320.3 367.51 320.3 367.72 320.3 367.89C320.302 367.971 320.292 368.052 320.27 368.13V368.13Z" fill="#455A64"/>
<path d="M457.931 452.157C460.02 451.92 462.024 451.191 463.778 450.032C465.533 448.873 466.989 447.316 468.028 445.488C468.871 443.781 468.88 442.283 468.208 441.232C464.234 434.888 429.795 390.923 428.028 388.066C427.796 387.761 427.484 387.524 427.128 387.381C426.771 387.238 426.383 387.194 426.003 387.253C424.953 387.373 423.945 387.74 423.063 388.322C422.181 388.905 421.449 389.687 420.926 390.606C420.718 390.926 420.601 391.297 420.588 391.679C420.575 392.06 420.665 392.438 420.849 392.773C423.906 397.265 447.964 441.608 453.913 450.568C454.622 451.687 456.014 452.278 457.931 452.157Z" fill="#68C896"/>
<path opacity="0.1" d="M464.228 449.704C465.814 448.623 467.117 447.177 468.028 445.488C468.872 443.791 468.881 442.293 468.22 441.251L468.137 441.118C464.446 435.33 438.934 402.595 430.599 391.56L430.591 391.48L430.247 391.031L430.144 390.9L429.96 390.646L429.74 390.345C428.867 389.182 428.299 388.382 428.11 388.079C428.039 387.986 427.957 387.903 427.866 387.831C427.621 387.628 427.337 387.477 427.031 387.388C426.725 387.3 426.405 387.275 426.089 387.315C425.866 387.322 425.643 387.343 425.422 387.379C425.333 387.387 425.243 387.395 425.153 387.404C425.064 387.412 424.885 387.429 424.753 387.522L424.433 387.643C424.303 387.655 424.191 387.746 424.067 387.808C423.971 387.844 423.878 387.887 423.787 387.935L464.228 449.704Z" fill="black"/>
<path d="M420.907 390.618C421.426 389.701 422.155 388.92 423.035 388.34C423.914 387.759 424.918 387.395 425.965 387.277C427.892 387.155 428.759 388.459 427.898 390.198C427.372 391.106 426.64 391.879 425.761 392.454C424.882 393.029 423.881 393.39 422.837 393.509C420.946 393.688 420.046 392.346 420.907 390.618Z" fill="#68C896"/>
<path d="M418.291 376.752C417.487 376.846 416.717 377.127 416.042 377.572C415.367 378.018 414.806 378.617 414.405 379.319C414.252 379.565 414.165 379.847 414.153 380.137C414.142 380.427 414.206 380.715 414.34 380.973V380.973L421.434 391.733C421.617 391.957 421.856 392.128 422.127 392.229C422.398 392.33 422.69 392.359 422.975 392.311C423.779 392.217 424.549 391.936 425.224 391.49C425.899 391.044 426.46 390.446 426.861 389.744C427.016 389.498 427.102 389.215 427.112 388.925C427.121 388.634 427.054 388.347 426.916 388.091L419.823 377.341C419.641 377.117 419.404 376.946 419.135 376.842C418.866 376.739 418.575 376.708 418.291 376.752V376.752Z" fill="#37474F"/>
<path d="M419.844 377.349C419.661 377.121 419.421 376.945 419.148 376.84C418.875 376.736 418.579 376.705 418.291 376.752C417.693 376.802 417.111 376.974 416.581 377.255L425.726 391.126C426.194 390.75 426.58 390.283 426.862 389.754C427.017 389.508 427.103 389.225 427.113 388.935C427.122 388.644 427.055 388.357 426.917 388.101L419.824 377.351L419.844 377.349Z" fill="#263238"/>
<path d="M409.618 392.227C416.876 391.541 423.67 386.057 428.299 375.947C437.558 355.726 434.62 324.635 421.737 306.506C415.296 297.442 407.595 293.329 400.337 294.014L386.967 295.278C379.719 295.963 372.915 301.447 368.285 311.558C359.027 331.778 361.965 362.87 374.848 380.998C381.289 390.062 389 394.175 396.248 393.49L409.618 392.227ZM417.851 309.274C423.637 317.366 427.411 328.601 428.573 340.896C429.735 353.191 428.103 364.937 423.964 373.966C420.226 382.134 414.973 386.93 409.169 387.478C403.365 388.026 397.298 384.301 392.106 376.977C386.319 368.885 382.545 357.65 381.383 345.355C380.221 333.06 381.864 321.313 385.992 312.285C389.731 304.117 394.992 299.311 400.786 298.763C406.58 298.216 412.648 301.951 417.851 309.274V309.274Z" fill="#68C896"/>
<path opacity="0.3" d="M381.646 310.295C372.387 330.516 375.325 361.607 388.208 379.736C401.091 397.864 419.041 396.168 428.299 375.947C437.558 355.726 434.62 324.635 421.737 306.506C408.855 288.378 390.903 290.054 381.646 310.295ZM400.786 298.763C406.59 298.215 412.648 301.941 417.85 309.264C423.636 317.356 427.41 328.591 428.572 340.886C429.734 353.181 428.102 364.927 423.964 373.966C420.225 382.124 414.973 386.93 409.169 387.478C403.365 388.026 397.297 384.291 392.106 376.977C386.318 368.875 382.544 357.641 381.382 345.345C380.22 333.05 381.863 321.303 385.991 312.275C389.721 304.118 394.952 299.315 400.786 298.763Z" fill="white"/>
<path d="M400.786 298.763C398.429 299.018 396.182 299.896 394.276 301.307C397.84 302.979 401.325 306.065 404.49 310.537C410.276 318.618 414.05 329.853 415.213 342.158C416.375 354.464 414.742 366.199 410.602 375.219C408.33 380.195 405.489 383.928 402.299 386.199C404.434 387.228 406.806 387.67 409.169 387.478C414.974 386.929 420.226 382.134 423.963 373.956C428.133 364.934 429.734 353.181 428.573 340.896C427.412 328.611 423.597 317.36 417.851 309.274C412.648 301.941 406.59 298.215 400.786 298.763Z" fill="#68C896"/>
<path opacity="0.1" d="M400.786 298.763C398.429 299.018 396.182 299.896 394.276 301.307C397.84 302.979 401.325 306.065 404.49 310.537C410.276 318.618 414.05 329.853 415.213 342.158C416.375 354.464 414.742 366.199 410.602 375.219C408.33 380.195 405.489 383.928 402.299 386.199C404.434 387.228 406.806 387.67 409.169 387.478C414.974 386.929 420.226 382.134 423.963 373.956C428.133 364.934 429.734 353.181 428.573 340.896C427.412 328.611 423.597 317.36 417.851 309.274C412.648 301.941 406.59 298.215 400.786 298.763Z" fill="black"/>
<path opacity="0.4" d="M411.807 309.836C417.593 317.927 421.367 329.162 422.529 341.457C423.691 353.752 422.049 365.499 417.921 374.537C414.83 381.268 410.709 385.705 406.075 387.369C401.242 386.6 396.363 383.013 392.036 376.983C386.248 368.882 382.474 357.647 381.313 345.352C380.151 333.057 381.793 321.31 385.922 312.282C389.011 305.541 393.132 301.104 397.767 299.45C402.63 300.206 407.509 303.793 411.807 309.836Z" fill="white"/>
<path opacity="0.1" d="M376.317 334.152L362.966 335.414C363.201 327.195 365.006 319.097 368.285 311.558C372.915 301.447 379.719 295.963 386.977 295.277L400.337 294.014C401.817 293.878 403.308 293.936 404.773 294.188C395.921 292.674 387.217 298.137 381.645 310.285C378.375 317.832 376.567 325.931 376.317 334.152Z" fill="black"/>
</svg>
